<svg width="21" height="18" viewBox="0 0 21 18" fill="none" xmlns="http://www.w3.org/2000/svg">
<path d="M4.74508 10.791C4.2589 11.4291 3.92466 11.8545 3.92466 11.8545C3.71196 12.0672 3.71196 12.4318 3.92466 12.6445L8.26982 16.9897C8.48252 17.2024 8.84715 17.2024 9.05985 16.9897C9.05985 16.9897 9.48524 16.7162 10.2145 16.1389" stroke="#32B38C"/>
<path d="M8.87735 14.8027L7.44922 16.2005" stroke="#32B38C"/>
<path d="M7.47977 13.4043L6.08203 14.8324" stroke="#32B38C"/>
<path d="M6.1121 12.0371L4.71436 13.4349" stroke="#32B38C"/>
<path d="M12.6756 7.20531C13.0707 7.60032 16.5954 11.8543 16.5954 11.8543C16.8081 12.067 16.8081 12.4316 16.5954 12.6443L12.2502 16.9895C12.0375 17.2022 11.6729 17.2022 11.4602 16.9895C11.4602 16.9895 8.90782 15.2271 5.35269 11.672C3.98533 10.3046 3.37762 8.54228 3.59032 8.32958L7.93548 3.98442C8.0874 3.8325 9.1509 4.07558 10.1232 4.56175" stroke="#32B38C" stroke-linecap="round"/>
<path d="M15.8662 10.8223C16.717 9.66765 17.0817 8.51299 16.8993 8.33068L12.5542 3.98552C12.3415 3.77282 10.3968 4.16783 8.99906 5.56558C8.42174 6.1429 7.11515 7.05448 6.47705 8.54337C6.47705 8.54337 6.81129 9.1207 7.69248 8.78646C9.15099 8.23952 10.1537 7.69258 10.1537 7.69258C10.1537 7.69258 11.673 8.30029 12.615 7.23679" stroke="#32B38C" stroke-linecap="round"/>
<path d="M8.75595 2.34457C8.96865 2.55727 8.96865 2.9219 8.75595 3.1346L3.1346 8.75595C2.9219 8.96865 2.55727 8.96865 2.34457 8.75595L1.15952 7.57091C0.946825 7.35821 0.946825 6.99358 1.15952 6.78088L6.78088 1.15952C6.99358 0.946825 7.35821 0.946825 7.57091 1.15952L8.75595 2.34457Z" stroke="#32B38C"/>
<path d="M11.8548 2.46566C11.6421 2.67836 11.6421 3.04299 11.8548 3.25569L17.5066 8.90743C17.7193 9.12013 18.0839 9.12013 18.2966 8.90743L19.4816 7.72239C19.6943 7.50969 19.6943 7.14506 19.4816 6.93236L13.8299 1.28062C13.6172 1.06792 13.2526 1.06792 13.0399 1.28062L11.8548 2.46566Z" stroke="#32B38C"/>
<path d="M9.48535 12.6758L13.0405 16.2005" stroke="#32B38C"/>
<path d="M10.8833 11.2773L14.408 14.8325" stroke="#32B38C"/>
<path d="M12.2505 9.91016L15.7752 13.4349" stroke="#32B38C"/>
</svg>
