<svg width="8" height="4" viewBox="0 0 8 4" fill="none" xmlns="http://www.w3.org/2000/svg">
<path d="M5.55509e-06 0.354319C-0.000248034 0.40068 0.0081587 0.446637 0.0247441 0.489557C0.0413295 0.532481 0.0657675 0.571518 0.0966558 0.604433L2.81952 3.48251C2.97431 3.64657 3.15821 3.7767 3.36064 3.86547C3.5631 3.95428 3.78014 4 3.99933 4C4.21849 4 4.43553 3.95428 4.63799 3.86547C4.84045 3.7767 5.02432 3.64657 5.17913 3.48251L7.90199 0.604433C7.93306 0.571587 7.9577 0.532595 7.97453 0.489678C7.99132 0.446764 8 0.400768 8 0.35432C8 0.307868 7.99132 0.261872 7.97453 0.218958C7.9577 0.176041 7.93306 0.137049 7.90199 0.104203C7.87091 0.0713572 7.83403 0.0453041 7.79342 0.0275266C7.75281 0.00974918 7.70931 0.000601819 7.66535 0.000601816C7.62142 0.000601814 7.57789 0.00974917 7.53728 0.0275266C7.4967 0.045304 7.45982 0.0713572 7.42874 0.104203L4.70585 2.98229C4.51841 3.1802 4.26427 3.29137 3.99933 3.29137C3.73436 3.29137 3.48025 3.1802 3.29277 2.98229L0.569908 0.104203C0.538926 0.0711845 0.502064 0.0449752 0.461453 0.0270937C0.420838 0.00920893 0.377279 1.73346e-08 0.333281 1.5313e-08C0.289285 1.32916e-08 0.245724 0.00920892 0.205111 0.0270937C0.164499 0.0449751 0.127638 0.0711845 0.0966558 0.104203C0.0657675 0.137121 0.0413295 0.176155 0.0247441 0.219078C0.00815871 0.261998 -0.00024803 0.307956 5.55509e-06 0.354319Z" fill="black"/>
</svg>
