<svg width="11" height="12" viewBox="0 0 11 12" fill="none" xmlns="http://www.w3.org/2000/svg">
<circle cx="5.5" cy="6.5" r="5.5" fill="#BF5B5B"/>
<path d="M5.575 7.092H4.9L4.675 2.574H5.8L5.575 7.092ZM4.612 8.469C4.612 8.235 4.672 8.07 4.792 7.974C4.912 7.878 5.059 7.83 5.233 7.83C5.401 7.83 5.545 7.878 5.665 7.974C5.785 8.07 5.845 8.235 5.845 8.469C5.845 8.703 5.785 8.871 5.665 8.973C5.545 9.075 5.401 9.126 5.233 9.126C5.059 9.126 4.912 9.075 4.792 8.973C4.672 8.871 4.612 8.703 4.612 8.469Z" fill="white"/>
</svg>
