<svg width="14" height="15" viewBox="0 0 14 15" fill="none" xmlns="http://www.w3.org/2000/svg">
<path d="M12.9777 13.1799L12.7293 10.0418C12.4809 7.21757 10.9907 5.33473 8.69318 3.76569L9.31412 0H6.20942L5.71266 0.627615H4.34659L4.71916 2.63598L7.4513 3.01255C7.69968 3.07531 7.82386 3.2636 7.82386 3.45188C7.82386 3.64017 7.63758 3.82845 7.3892 3.82845L4.90544 3.76569C2.60795 5.33473 1.11769 7.21757 0.931412 10.0418L0.683036 13.1799C0.310471 13.3054 0 13.6192 0 14.0586C0 14.5607 0.434659 15 0.931412 15H12.7293C13.2261 15 13.6607 14.5607 13.6607 14.0586C13.6607 13.6192 13.3502 13.3054 12.9777 13.1799ZM4.59497 9.10042L5.96104 8.91213L6.58198 7.6569C6.70617 7.46862 6.95455 7.46862 7.07873 7.6569L7.69968 8.91213L9.06575 9.10042C9.31412 9.16318 9.37622 9.41423 9.25203 9.60251L8.25852 10.6067L8.5069 11.9874C8.56899 12.2385 8.32062 12.4268 8.07224 12.3013L6.83036 11.6736L5.58847 12.3013C5.40219 12.4268 5.15382 12.2385 5.15382 11.9874L5.40219 10.6067L4.40869 9.60251C4.2845 9.41423 4.34659 9.16318 4.59497 9.10042Z" fill="#32B38C"/>
</svg>
