<svg width="10" height="9" viewBox="0 0 10 9" fill="none" xmlns="http://www.w3.org/2000/svg">
<path d="M9.70886 1.20008C9.70825 1.20008 9.70764 1.2 9.70703 1.2H7.05078V0.9C7.05078 0.40375 6.65649 0 6.17188 0H3.82812C3.34351 0 2.94922 0.40375 2.94922 0.9V1.2H0.292969C0.129852 1.2 0 1.33687 0 1.5V8.1C0 8.59625 0.394287 9 0.878906 9H9.12109C9.60571 9 10 8.59625 10 8.1V1.50633C10 1.50594 10 1.50555 10 1.50516C9.98878 1.30813 9.87045 1.20117 9.70886 1.20008ZM3.53516 0.9C3.53516 0.734609 3.66661 0.6 3.82812 0.6H6.17188C6.33339 0.6 6.46484 0.734609 6.46484 0.9V1.2H3.53516V0.9ZM9.30054 1.8L8.39073 4.59484C8.35083 4.71758 8.23914 4.8 8.11287 4.8H6.46484V4.5C6.46484 4.3343 6.33369 4.2 6.17188 4.2H3.82812C3.66631 4.2 3.53516 4.3343 3.53516 4.5V4.8H1.88713C1.76086 4.8 1.64917 4.71758 1.60927 4.59484L0.699463 1.8H9.30054ZM5.87891 4.8V5.4H4.12109V4.8H5.87891ZM9.41406 8.1C9.41406 8.26539 9.28261 8.4 9.12109 8.4H0.878906C0.717392 8.4 0.585938 8.26539 0.585938 8.1V3.34867L1.05339 4.78461C1.17317 5.15273 1.50826 5.4 1.88713 5.4H3.53516V5.7C3.53516 5.8657 3.66631 6 3.82812 6H6.17188C6.33369 6 6.46484 5.8657 6.46484 5.7V5.4H8.11287C8.49174 5.4 8.82683 5.15273 8.94661 4.78461L9.41406 3.34867V8.1Z" fill="white"/>
</svg>
