<svg width="15" height="16" viewBox="0 0 15 16" fill="none" xmlns="http://www.w3.org/2000/svg">
<path d="M9.7145 16.0003C8.81035 16.0003 7.92652 15.7322 7.17475 15.2299C6.42298 14.7275 5.83705 14.0136 5.49105 13.1783C5.14505 12.3429 5.05452 11.4238 5.23091 10.537C5.4073 9.65024 5.84268 8.83569 6.48201 8.19636C7.12133 7.55704 7.93589 7.12165 8.82266 6.94526C9.70943 6.76887 10.6286 6.8594 11.4639 7.2054C12.2992 7.5514 13.0132 8.13734 13.5155 8.8891C14.0178 9.64087 14.2859 10.5247 14.2859 11.4289C14.2859 12.6413 13.8043 13.804 12.947 14.6613C12.0897 15.5187 10.9269 16.0003 9.7145 16.0003ZM9.7145 8.00028C9.03639 8.00028 8.37351 8.20136 7.80968 8.5781C7.24586 8.95484 6.80641 9.49031 6.54691 10.1168C6.28741 10.7433 6.21951 11.4327 6.3518 12.0977C6.4841 12.7628 6.81064 13.3737 7.29013 13.8532C7.76962 14.3327 8.38054 14.6593 9.04562 14.7915C9.71069 14.9238 10.4001 14.8559 11.0266 14.5964C11.653 14.3369 12.1885 13.8975 12.5653 13.3337C12.942 12.7698 13.1431 12.107 13.1431 11.4289C13.1431 10.5195 12.7818 9.64747 12.1389 9.00449C11.4959 8.3615 10.6238 8.00028 9.7145 8.00028Z" fill="#32B38C"/>
<path d="M10.6231 13.1426L9.14307 11.6626V9.14258H10.2859V11.194L11.4288 12.3369L10.6231 13.1426Z" fill="#32B38C"/>
<path d="M13.7143 2.28571C13.7143 1.98261 13.5939 1.69192 13.3796 1.47759C13.1652 1.26327 12.8745 1.14286 12.5714 1.14286H10.2857V0H9.14286V1.14286H4.57143V0H3.42857V1.14286H1.14286C0.839753 1.14286 0.549062 1.26327 0.334735 1.47759C0.120408 1.69192 0 1.98261 0 2.28571V13.7143C0 14.0174 0.120408 14.3081 0.334735 14.5224C0.549062 14.7367 0.839753 14.8571 1.14286 14.8571H3.42857V13.7143H1.14286V2.28571H3.42857V3.42857H4.57143V2.28571H9.14286V3.42857H10.2857V2.28571H12.5714V5.71429H13.7143V2.28571Z" fill="#32B38C"/>
</svg>
