<svg width="18" height="25" viewBox="0 0 18 25" fill="none" xmlns="http://www.w3.org/2000/svg">
<path d="M7.85742 3.22041V2.14286C7.85742 1.51168 8.36908 1 9.00028 1C9.63148 1 10.1431 1.51168 10.1431 2.14286V3.28571" stroke="#32B38C" stroke-width="2"/>
<path d="M15.5474 16.5232C13.9346 13.9003 13.8117 11.3588 14.3482 8.5961C14.8672 5.9237 13.0567 3.28711 10.3344 3.28711H7.36148C4.98224 3.48775 3.19682 5.96018 3.58231 8.3038C4.20793 10.8151 4.17505 12.6951 2.48438 16.2964" stroke="#32B38C" stroke-width="2" stroke-linecap="round"/>
<path d="M9 19.286C13.4183 19.286 17 18.5185 17 17.5717C17 16.6249 13.4183 15.8574 9 15.8574C4.58172 15.8574 1 16.6249 1 17.5717C1 18.5185 4.58172 19.286 9 19.286Z" stroke="#32B38C" stroke-width="2"/>
<path d="M11.2843 22.7129C11.2843 22.7129 10.9034 23.8557 8.99861 23.8557C7.0938 23.8557 6.71289 22.7129 6.71289 22.7129" stroke="#32B38C" stroke-width="2" stroke-linecap="round" stroke-linejoin="round"/>
</svg>
