<svg width="17" height="8" viewBox="0 0 17 8" fill="none" xmlns="http://www.w3.org/2000/svg">
<path d="M3.26038 7.11104C2.42556 7.11104 1.74627 6.4305 1.74627 5.60029C1.74627 4.76106 2.42556 4.08388 3.26038 4.08388C4.09731 4.08388 4.77722 4.76106 4.77722 5.60029C4.77722 6.43029 4.09731 7.11104 3.26038 7.11104ZM3.26038 4.78058C2.81369 4.78058 2.44676 5.14793 2.44676 5.59568C2.44676 6.04258 2.81369 6.40993 3.26038 6.40993C3.70981 6.40993 4.07611 6.04258 4.07611 5.59568C4.07611 5.14793 3.70981 4.78058 3.26038 4.78058ZM13.4632 7.11104C12.6263 7.11104 11.9479 6.4305 11.9479 5.60029C11.9479 4.76106 12.6261 4.08388 13.4632 4.08388C14.2981 4.08388 14.9763 4.76106 14.9763 5.60029C14.9763 6.43029 14.2979 7.11104 13.4632 7.11104ZM13.4632 4.78058C13.0132 4.78058 12.6456 5.14793 12.6456 5.59568C12.6456 6.04258 13.0132 6.40993 13.4632 6.40993C13.9123 6.40993 14.2786 6.04258 14.2786 5.59568C14.2786 5.14793 13.912 4.78058 13.4632 4.78058ZM16.4023 4.46298C16.4023 2.99127 15.486 2.81684 15.486 2.81684C14.1371 2.62539 11.8133 2.52715 11.8133 2.52715C11.6001 2.15645 10.6153 0 10.0417 0C9.85042 0 5.73674 0 5.00897 0C4.28014 0 3.08469 2.10418 2.82313 2.57879C2.82313 2.57879 1.90791 2.73791 1.47632 2.83468C1.2366 2.8903 0.573485 2.90269 0.573485 4.75644H0V5.59547H1.39677C1.39677 4.56521 2.23264 3.73038 3.26038 3.73038C4.2919 3.73038 5.12568 4.56521 5.12568 5.59547H11.5967C11.5967 4.56521 12.4294 3.73038 13.4632 3.73038C14.4914 3.73038 15.3262 4.56521 15.3262 5.59547H16.6957V4.46277H16.4023V4.46298ZM7.47063 2.38483H4.56584C4.9588 1.16082 5.68657 0.286952 5.99346 0.286952C6.37991 0.286952 7.47063 0.286952 7.47063 0.286952V2.38483ZM8.01199 2.38483V0.286952C8.01199 0.286952 9.51099 0.286952 9.89576 0.286952C10.2849 0.286952 11.1328 2.06303 11.3719 2.51729L8.01199 2.38483Z" fill="#32B38C"/>
</svg>
