<svg width="49" height="49" viewBox="0 0 49 49" fill="none" xmlns="http://www.w3.org/2000/svg">
<path d="M41.8241 7.17582C37.1966 2.54848 31.0442 0 24.5 0C17.9557 0 11.8032 2.54848 7.17582 7.17582C2.54838 11.8033 0 17.9558 0 24.5C0 31.0442 2.54838 37.1966 7.17582 41.8241C11.8033 46.4515 17.9557 49 24.5 49C31.0442 49 37.1966 46.4515 41.8241 41.8241C46.4515 37.1966 49 31.0442 49 24.5C49 17.9558 46.4515 11.8034 41.8241 7.17582ZM24.5 46.1289C12.5738 46.1289 2.87109 36.4262 2.87109 24.5C2.87109 12.5738 12.5738 2.87109 24.5 2.87109C36.4262 2.87109 46.1289 12.5738 46.1289 24.5C46.1289 36.4262 36.4262 46.1289 24.5 46.1289Z" fill="url(#paint0_linear_1_16002)"/>
<path d="M36.2065 16.641C35.6459 16.0806 34.737 16.0806 34.1764 16.6411L21.4997 29.3179L14.8266 22.6448C14.2661 22.0842 13.3571 22.0842 12.7964 22.6448C12.2358 23.2053 12.2358 24.1143 12.7964 24.6749L20.4846 32.363C20.7649 32.6433 21.1323 32.7835 21.4996 32.7835C21.8669 32.7835 22.2344 32.6433 22.5146 32.363L36.2065 18.6712C36.7671 18.1106 36.7671 17.2016 36.2065 16.641Z" fill="url(#paint1_linear_1_16002)"/>
<defs>
<linearGradient id="paint0_linear_1_16002" x1="12.6724" y1="5.91379" x2="24.5" y2="49" gradientUnits="userSpaceOnUse">
<stop stop-color="#FF9999"/>
<stop offset="1" stop-color="#D94848"/>
</linearGradient>
<linearGradient id="paint1_linear_1_16002" x1="18.6478" y1="18.2197" x2="21.4843" y2="33.3491" gradientUnits="userSpaceOnUse">
<stop stop-color="#FF9999"/>
<stop offset="1" stop-color="#D94848"/>
</linearGradient>
</defs>
</svg>
