<svg width="14" height="16" viewBox="0 0 14 16" fill="none" xmlns="http://www.w3.org/2000/svg">
<path d="M1.5 0C1.10218 0 0.720644 0.158035 0.43934 0.43934C0.158035 0.720644 0 1.10218 0 1.5V14.5C0 14.8978 0.158035 15.2794 0.43934 15.5607C0.720644 15.842 1.10218 16 1.5 16H8.5C8.89782 16 9.27936 15.842 9.56066 15.5607C9.84196 15.2794 10 14.8978 10 14.5V13C10 12.8674 9.94732 12.7402 9.85355 12.6464C9.75979 12.5527 9.63261 12.5 9.5 12.5C9.087 12.5 8.823 12.398 8.644 12.264C8.461 12.127 8.322 11.922 8.22 11.641C8.006 11.053 8 10.274 8 9.5C7.99999 9.43423 7.98699 9.3691 7.96177 9.30835C7.93655 9.24761 7.89958 9.19244 7.853 9.146L7.567 8.859L6.354 7.646C5.887 7.179 5.75 6.866 5.724 6.691C5.704 6.551 5.746 6.457 5.846 6.361C6.06 6.156 6.213 6.017 6.386 5.975C6.489 5.949 6.724 5.931 7.146 6.353L10.146 9.353C10.2398 9.44689 10.367 9.49968 10.4996 9.49978C10.5653 9.49982 10.6304 9.48693 10.6911 9.46183C10.7518 9.43673 10.807 9.39992 10.8535 9.3535C10.9 9.30708 10.9369 9.25195 10.9621 9.19127C10.9872 9.1306 11.0002 9.06555 11.0003 8.99985C11.0003 8.93416 10.9874 8.86909 10.9623 8.80838C10.9372 8.74766 10.9004 8.69249 10.854 8.646L10 7.793V4.707L12.56 7.267C12.6994 7.40627 12.8101 7.57166 12.8856 7.75372C12.9611 7.93577 13 8.13091 13 8.328V15.5C13 15.6326 13.0527 15.7598 13.1464 15.8536C13.2402 15.9473 13.3674 16 13.5 16C13.6326 16 13.7598 15.9473 13.8536 15.8536C13.9473 15.7598 14 15.6326 14 15.5V8.328C13.9999 7.66526 13.7366 7.02969 13.268 6.561L10 3.293V1.5C10 1.10218 9.84196 0.720644 9.56066 0.43934C9.27936 0.158035 8.89782 0 8.5 0H1.5ZM9 3.5V6.793L7.854 5.646C7.275 5.068 6.7 4.869 6.149 5.003C6.04076 5.02972 5.93579 5.06828 5.836 5.118C5.38899 4.98851 4.918 4.96476 4.46023 5.04862C4.00246 5.13248 3.57047 5.32166 3.1984 5.6012C2.82632 5.88074 2.52436 6.24298 2.31638 6.6593C2.10839 7.07563 2.00008 7.53462 2 8C1.99996 8.57995 2.16802 9.14747 2.48383 9.63389C2.79964 10.1203 3.24967 10.5047 3.77945 10.7407C4.30923 10.9766 4.89604 11.054 5.46886 10.9633C6.04168 10.8727 6.57595 10.618 7.007 10.23C7.024 10.808 7.082 11.44 7.28 11.983C7.428 12.39 7.664 12.779 8.044 13.063L8.05 13.069C7.74549 13.1648 7.47947 13.3552 7.29063 13.6125C7.10179 13.8699 6.99998 14.1808 7 14.5V15H3V14.5C3 14.1022 2.84196 13.7206 2.56066 13.4393C2.27936 13.158 1.89782 13 1.5 13H1V3H1.5C1.89782 3 2.27936 2.84196 2.56066 2.56066C2.84196 2.27936 3 1.89782 3 1.5V1H7V1.5C7 1.89782 7.15804 2.27936 7.43934 2.56066C7.72064 2.84196 8.10218 3 8.5 3H9V3.5ZM9 14.5V14.509C8.99764 14.64 8.94392 14.7649 8.85041 14.8568C8.7569 14.9486 8.63106 15 8.5 15H8V14.5C8 14.3674 8.05268 14.2402 8.14645 14.1464C8.24021 14.0527 8.36739 14 8.5 14H9V14.5ZM3 8C3.00001 7.49138 3.19379 7.00188 3.54193 6.63108C3.89006 6.26028 4.36639 6.03604 4.874 6.004C4.75 6.234 4.687 6.514 4.735 6.837C4.806 7.319 5.113 7.82 5.646 8.353L6.553 9.26C6.29262 9.58087 5.93925 9.81321 5.54146 9.92508C5.14367 10.0369 4.72099 10.0229 4.33153 9.88474C3.94207 9.74663 3.60495 9.49128 3.36652 9.15378C3.12809 8.81629 3.00005 8.41322 3 8ZM2 1V1.5C2 1.63261 1.94732 1.75979 1.85355 1.85355C1.75979 1.94732 1.63261 2 1.5 2H1V1.5C1 1.36739 1.05268 1.24021 1.14645 1.14645C1.24021 1.05268 1.36739 1 1.5 1H2ZM1 14H1.5C1.63261 14 1.75979 14.0527 1.85355 14.1464C1.94732 14.2402 2 14.3674 2 14.5V15H1.5C1.36739 15 1.24021 14.9473 1.14645 14.8536C1.05268 14.7598 1 14.6326 1 14.5V14ZM9 2H8.5C8.36739 2 8.24021 1.94732 8.14645 1.85355C8.05268 1.75979 8 1.63261 8 1.5V1H8.5C8.63261 1 8.75979 1.05268 8.85355 1.14645C8.94732 1.24021 9 1.36739 9 1.5V2Z" fill="#32B38C"/>
</svg>
