<svg width="17" height="17" viewBox="0 0 17 17" fill="none" xmlns="http://www.w3.org/2000/svg">
<path d="M13.7308 16.0049H3.26923C2.40218 16.0049 1.57064 15.6807 0.957536 15.1037C0.344436 14.5267 0 13.744 0 12.928V4.31265C0 4.14944 0.0688871 3.99291 0.191507 3.87751C0.314127 3.7621 0.480435 3.69727 0.653846 3.69727H13.7308C14.5978 3.69727 15.4294 4.02144 16.0425 4.59847C16.6556 5.1755 17 5.95813 17 6.77418V12.928C17 13.744 16.6556 14.5267 16.0425 15.1037C15.4294 15.6807 14.5978 16.0049 13.7308 16.0049V16.0049ZM1.30769 4.92803V12.928C1.30769 13.4176 1.51435 13.8872 1.88221 14.2334C2.25007 14.5796 2.749 14.7741 3.26923 14.7741H13.7308C14.251 14.7741 14.7499 14.5796 15.1178 14.2334C15.4856 13.8872 15.6923 13.4176 15.6923 12.928V6.77418C15.6923 6.28455 15.4856 5.81497 15.1178 5.46875C14.7499 5.12253 14.251 4.92803 13.7308 4.92803H1.30769Z" fill="#32B38C"/>
<path d="M15.0385 4.92859C14.8651 4.92859 14.6988 4.86376 14.5762 4.74835C14.4536 4.63295 14.3847 4.47642 14.3847 4.31321V2.62091C14.3972 2.40534 14.3579 2.18988 14.2695 1.99062C14.1812 1.79137 14.0463 1.61345 13.8747 1.47015C13.7205 1.36144 13.5421 1.28722 13.3529 1.25309C13.1637 1.21897 12.9687 1.22586 12.7828 1.27323L1.81776 3.61783C1.67027 3.64909 1.53884 3.7275 1.44586 3.8397C1.35287 3.9519 1.30407 4.09096 1.30776 4.23321C1.30776 4.39642 1.23888 4.55295 1.11626 4.66835C0.993637 4.78376 0.827329 4.84859 0.653918 4.84859C0.480508 4.84859 0.314199 4.78376 0.191579 4.66835C0.0689594 4.55295 7.23025e-05 4.39642 7.23025e-05 4.23321C-0.00376412 3.81253 0.145175 3.40323 0.422228 3.0731C0.699281 2.74296 1.08783 2.51178 1.52353 2.41784L12.4951 0.0732304C12.8724 -0.016569 13.2666 -0.0238819 13.6474 0.0518517C14.0282 0.127585 14.3855 0.284356 14.692 0.510152C15.0161 0.769006 15.2742 1.09307 15.4473 1.45841C15.6205 1.82375 15.7042 2.22103 15.6924 2.62091V4.31321C15.6924 4.47642 15.6235 4.63295 15.5009 4.74835C15.3783 4.86376 15.2119 4.92859 15.0385 4.92859Z" fill="#32B38C"/>
<path d="M16.3447 12.3137H11.7677C11.0741 12.3137 10.4089 12.0543 9.91837 11.5927C9.42789 11.1311 9.15234 10.505 9.15234 9.85215C9.15234 9.19932 9.42789 8.57322 9.91837 8.11159C10.4089 7.64996 11.0741 7.39063 11.7677 7.39062H16.3447C16.5181 7.39062 16.6844 7.45546 16.807 7.57087C16.9296 7.68627 16.9985 7.8428 16.9985 8.00601V11.6983C16.9985 11.8615 16.9296 12.018 16.807 12.1334C16.6844 12.2488 16.5181 12.3137 16.3447 12.3137ZM11.7677 8.62139C11.4209 8.62139 11.0883 8.75106 10.8431 8.98187C10.5978 9.21268 10.46 9.52573 10.46 9.85215C10.46 10.1786 10.5978 10.4916 10.8431 10.7224C11.0883 10.9532 11.4209 11.0829 11.7677 11.0829H15.6908V8.62139H11.7677Z" fill="#32B38C"/>
</svg>
