<svg width="33" height="33" viewBox="0 0 33 33" fill="none" xmlns="http://www.w3.org/2000/svg">
<path d="M28.1672 4.8327C25.0508 1.71632 20.9073 0 16.5 0C12.0926 0 7.94907 1.71632 4.8327 4.8327C1.71626 7.94913 0 12.0927 0 16.5C0 20.9073 1.71626 25.0508 4.8327 28.1672C7.94913 31.2837 12.0926 33 16.5 33C20.9073 33 25.0508 31.2837 28.1672 28.1672C31.2837 25.0508 33 20.9073 33 16.5C33 12.0927 31.2837 7.9492 28.1672 4.8327ZM16.5 31.0664C8.46805 31.0664 1.93359 24.532 1.93359 16.5C1.93359 8.46805 8.46805 1.93359 16.5 1.93359C24.532 1.93359 31.0664 8.46805 31.0664 16.5C31.0664 24.532 24.532 31.0664 16.5 31.0664Z" fill="#32B38C"/>
<path d="M24.3851 11.1971C24.0076 10.8197 23.3954 10.8197 23.0179 11.1972L14.4805 19.7346L9.98636 15.2405C9.60885 14.863 8.99668 14.863 8.61911 15.2405C8.24155 15.618 8.24155 16.2301 8.61911 16.6077L13.7968 21.7854C13.9856 21.9742 14.233 22.0686 14.4804 22.0686C14.7278 22.0686 14.9753 21.9741 15.164 21.7854L24.3851 12.5644C24.7626 12.1869 24.7626 11.5747 24.3851 11.1971Z" fill="#32B38C"/>
</svg>
