<svg width="15" height="16" viewBox="0 0 15 16" fill="none" xmlns="http://www.w3.org/2000/svg">
<path d="M10.5438 10.5399L7.89325 8.92233V5.25853C7.89325 4.93502 7.64157 4.67621 7.32697 4.67621H7.27978C6.96518 4.67621 6.7135 4.93502 6.7135 5.25853V9.07599C6.7135 9.35907 6.85507 9.62597 7.09888 9.77155L9.96962 11.5428C10.237 11.7045 10.5831 11.6237 10.7404 11.3487C10.9056 11.0656 10.819 10.7017 10.5438 10.5399ZM14.7201 2.25794L12.2977 0.187452C11.9673 -0.0956227 11.4718 -0.0551836 11.1887 0.292594C10.9134 0.632283 10.9606 1.14182 11.2909 1.43298L13.7055 3.50347C14.0358 3.78654 14.5313 3.7461 14.8145 3.39833C14.8812 3.3171 14.9316 3.22316 14.963 3.12187C14.9943 3.02058 15.0059 2.91393 14.9972 2.80802C14.9884 2.7021 14.9594 2.599 14.9119 2.50462C14.8643 2.41023 14.7992 2.32641 14.7201 2.25794ZM1.28663 3.50347L3.70119 1.43298C4.03939 1.14182 4.08658 0.632283 3.80344 0.292594C3.73823 0.210773 3.65788 0.14308 3.56704 0.0934405C3.4762 0.0438011 3.37668 0.0132037 3.27425 0.00342294C3.17182 -0.00635781 3.06852 0.00487286 2.97034 0.0364635C2.87217 0.0680541 2.78107 0.119376 2.70233 0.187452L0.279901 2.25794C0.200833 2.32641 0.135664 2.41023 0.0881227 2.50462C0.040581 2.599 0.0115986 2.7021 0.00283301 2.80802C-0.00593256 2.91393 0.00569069 3.02058 0.0370378 3.12187C0.0683849 3.22316 0.118841 3.3171 0.185521 3.39833C0.460797 3.7461 0.956294 3.78654 1.28663 3.50347ZM7.5 1.44107C5.62255 1.44118 3.82204 2.20822 2.49456 3.57346C1.16708 4.9387 0.421368 6.7903 0.421472 8.72094C0.421576 10.6516 1.16749 12.5031 2.49512 13.8682C3.82275 15.2333 5.62334 16.0001 7.50079 16C8.4304 15.9999 9.35091 15.8116 10.2097 15.4457C11.0686 15.0799 11.8489 14.5436 12.5062 13.8676C13.1635 13.1916 13.6849 12.3891 14.0406 11.5059C14.3963 10.6227 14.5794 9.67608 14.5793 8.72013C14.5793 7.76418 14.3961 6.81759 14.0403 5.93443C13.6845 5.05126 13.163 4.24881 12.5057 3.57289C11.8483 2.89696 11.0679 2.36081 10.209 1.99503C9.35014 1.62925 8.42962 1.44101 7.5 1.44107ZM7.5 14.3816C4.4641 14.3816 1.99448 11.842 1.99448 8.72013C1.99448 5.59822 4.4641 3.05864 7.5 3.05864C10.5359 3.05864 13.0055 5.59822 13.0055 8.72013C13.0055 11.842 10.5359 14.3816 7.5 14.3816Z" fill="#32B38C"/>
</svg>
