<svg width="52" height="52" viewBox="0 0 52 52" fill="none" xmlns="http://www.w3.org/2000/svg">
<g filter="url(#filter0_d_1_50010)">
<circle cx="26" cy="26" r="20" fill="white"/>
</g>
<path d="M26.1951 14C24.2956 14 22.6215 15.2556 22.0849 17.08C21.5161 16.8224 20.9151 16.6829 20.2927 16.6829C19.1542 16.6829 18.0623 17.1352 17.2573 17.9402C16.4523 18.7453 16 19.8371 16 20.9756C16.0025 21.9263 16.3198 22.8493 16.9022 23.6007C17.4847 24.352 18.2995 24.8893 19.2195 25.1288V32.7805H33.1707V25.1288C35.0595 24.6351 36.3902 22.9288 36.3902 20.9756C36.3902 19.8371 35.938 18.7453 35.1329 17.9402C34.3279 17.1352 33.2361 16.6829 32.0976 16.6829C31.4751 16.6829 30.8741 16.8224 30.3054 17.08C29.7688 15.2556 28.0946 14 26.1951 14ZM25.6585 23.6585H26.7317V31.1707H25.6585V23.6585ZM22.439 25.8049H23.5122V31.1707H22.439V25.8049ZM28.878 25.8049H29.9512V31.1707H28.878V25.8049ZM19.2195 33.8537V34.9268C19.2195 35.2115 19.3326 35.4844 19.5338 35.6857C19.7351 35.8869 20.0081 36 20.2927 36H32.0976C32.3822 36 32.6551 35.8869 32.8564 35.6857C33.0577 35.4844 33.1707 35.2115 33.1707 34.9268V33.8537H19.2195Z" fill="#32B38C"/>
<defs>
<filter id="filter0_d_1_50010" x="0" y="0" width="52" height="52" filterUnits="userSpaceOnUse" color-interpolation-filters="sRGB">
<feFlood flood-opacity="0" result="BackgroundImageFix"/>
<feColorMatrix in="SourceAlpha" type="matrix" values="0 0 0 0 0 0 0 0 0 0 0 0 0 0 0 0 0 0 127 0" result="hardAlpha"/>
<feOffset/>
<feGaussianBlur stdDeviation="3"/>
<feComposite in2="hardAlpha" operator="out"/>
<feColorMatrix type="matrix" values="0 0 0 0 0 0 0 0 0 0 0 0 0 0 0 0 0 0 0.25 0"/>
<feBlend mode="normal" in2="BackgroundImageFix" result="effect1_dropShadow_1_50010"/>
<feBlend mode="normal" in="SourceGraphic" in2="effect1_dropShadow_1_50010" result="shape"/>
</filter>
</defs>
</svg>
