<svg width="15" height="13" viewBox="0 0 15 13" fill="none" xmlns="http://www.w3.org/2000/svg">
<path d="M0.468693 10.3125H6.09372C6.35284 10.3125 6.56257 10.155 6.56257 9.96095V9.25772C6.56257 9.0637 6.35284 8.90628 6.09372 8.90628H0.468693C0.20963 8.90628 0 9.06367 0 9.25772V9.96095C0 10.155 0.20963 10.3125 0.468693 10.3125ZM0.468693 12.1876H6.09372C6.35284 12.1876 6.56257 12.0301 6.56257 11.836V11.1328C6.56257 10.9387 6.35284 10.7813 6.09372 10.7813H0.468693C0.20963 10.7813 0 10.9387 0 11.1328V11.836C0 12.0301 0.20963 12.1876 0.468693 12.1876ZM0.468693 8.43734H6.09372C6.35284 8.43734 6.56257 8.27995 6.56257 8.08591V7.38297C6.56257 7.18877 6.35284 7.0312 6.09372 7.0312H0.468693C0.20963 7.03117 0 7.18874 0 7.38294V8.08587C0 8.27995 0.20963 8.43734 0.468693 8.43734ZM7.47946 8.25077C7.48672 8.1958 7.50002 8.14269 7.50002 8.08587V7.38294C7.50002 6.65955 6.88241 6.09372 6.09372 6.09372H4.21873C4.21873 4.79918 5.268 3.75004 6.56257 3.75004C7.85711 3.75004 8.90631 4.79918 8.90631 6.09372C8.90634 7.06236 8.31807 7.89356 7.47946 8.25077ZM0 1.87499H13.1251V10.3125H7.44418C7.4776 10.2009 7.50002 10.0836 7.50002 9.96095V9.37503H10.3126C10.3126 8.33953 11.1521 7.49998 12.1875 7.49998V4.68752C11.1521 4.68752 10.3126 3.84794 10.3126 2.81253H2.81253C2.81253 3.84798 1.97305 4.68752 0.937541 4.68752V6.09372H0.468693C0.302528 6.09372 0.146936 6.12395 0 6.16971V1.87499ZM15 0V9.37503H14.0626V0.93751H0.937541V0H15Z" fill="#8F8F8F"/>
</svg>
