<svg width="12" height="12" viewBox="0 0 12 12" fill="none" xmlns="http://www.w3.org/2000/svg">
<path d="M9.60624 2.39374C8.64311 1.43063 7.36207 0.9 6 0.9C4.63791 0.9 3.35685 1.43063 2.39374 2.39374C1.43061 3.35687 0.9 4.63793 0.9 6C0.9 7.36207 1.43061 8.64311 2.39374 9.60624C3.35687 10.5694 4.63791 11.1 6 11.1C7.36207 11.1 8.64311 10.5694 9.60624 9.60624C10.5694 8.64311 11.1 7.36207 11.1 6C11.1 4.63793 10.5694 3.35689 9.60624 2.39374ZM6 10.3141C3.6213 10.3141 1.68594 8.3787 1.68594 6C1.68594 3.6213 3.6213 1.68594 6 1.68594C8.3787 1.68594 10.3141 3.6213 10.3141 6C10.3141 8.3787 8.3787 10.3141 6 10.3141Z" fill="white" stroke="white" stroke-width="0.2"/>
<path d="M4.2523 4.52082L5.50334 5.80416L4.04292 7.30228C3.89273 7.45635 3.89273 7.70512 4.04292 7.85919C4.1945 8.01468 4.44135 8.01468 4.59293 7.85919L6.04979 6.36471L7.50668 7.85922C7.65826 8.01471 7.90511 8.01471 8.05669 7.85922C8.20688 7.70515 8.20688 7.45638 8.05669 7.30231L6.59624 5.80416L7.84731 4.52079C7.9975 4.36672 7.9975 4.11796 7.84731 3.96389C7.69572 3.80839 7.44888 3.80839 7.2973 3.96389L6.04979 5.2436L4.80231 3.96391C4.65073 3.80842 4.40389 3.80842 4.2523 3.96391C4.10211 4.11798 4.10211 4.36675 4.2523 4.52082Z" fill="white" stroke="white" stroke-width="0.2"/>
</svg>
