<svg width="15" height="15" viewBox="0 0 15 15" fill="none" xmlns="http://www.w3.org/2000/svg">
<path d="M7.5 5.90222C7.80242 5.90222 8.04939 6.14856 8.04939 6.45098C8.04939 6.72694 8.27369 6.9506 8.54965 6.9506C8.82497 6.9506 9.04927 6.72694 9.04927 6.45098C9.04927 5.77306 8.60761 5.20098 7.99962 4.99181V4.70829C7.99962 4.43296 7.77596 4.20804 7.5 4.20804C7.22341 4.20804 6.99975 4.43296 6.99975 4.70829V4.99181C6.39176 5.20098 5.95136 5.77306 5.95136 6.45098C5.95136 7.30595 6.64567 8.00025 7.5 8.00025C7.80242 8.00025 8.04939 8.24723 8.04939 8.54965C8.04939 8.8527 7.80242 9.09904 7.5 9.09904C7.19758 9.09904 6.95123 8.8527 6.95123 8.54965C6.95123 8.27369 6.72694 8.04939 6.45098 8.04939C6.1744 8.04939 5.95136 8.27369 5.95136 8.54965C5.95136 9.22757 6.39176 9.79902 6.99975 10.0082V10.2917C6.99975 10.5683 7.22341 10.7926 7.5 10.7926C7.77596 10.7926 7.99962 10.5683 7.99962 10.2917V10.0082C8.60761 9.79902 9.04927 9.22757 9.04927 8.54965C9.04927 7.69531 8.35433 7.00038 7.5 7.00038C7.19758 7.00038 6.95123 6.75403 6.95123 6.45098C6.95123 6.14856 7.19758 5.90222 7.5 5.90222ZM11.6891 10.2766C11.9342 10.4057 12.236 10.3119 12.3645 10.0687C12.7804 9.28301 12.9996 8.39466 12.9996 7.5C12.9996 4.46825 10.5318 2.00101 7.5 2.00101C4.46762 2.00101 2.00038 4.46825 2.00038 7.5C2.00038 10.5324 4.46762 12.9996 7.5 12.9996C8.38143 12.9996 9.25718 12.7867 10.0328 12.3828C10.2778 12.2562 10.373 11.9531 10.2457 11.7087C10.1184 11.4648 9.81666 11.3678 9.57094 11.4957C8.92893 11.8309 8.23148 12.0004 7.5 12.0004C5.0189 12.0004 2.99962 9.98173 2.99962 7.5C2.99962 5.01953 5.0189 3.00025 7.5 3.00025C9.9811 3.00025 12.0004 5.01953 12.0004 7.5C12.0004 8.23274 11.8202 8.95917 11.4812 9.60055C11.3514 9.84501 11.4447 10.1474 11.6891 10.2766ZM7.5 0C6.05154 0 4.64529 0.414567 3.43372 1.19771C3.20123 1.34766 3.13508 1.65701 3.28503 1.88886C3.43561 2.12072 3.7437 2.18624 3.97681 2.03755C5.0252 1.35963 6.24496 1.0005 7.5 1.0005C11.0843 1.0005 13.9995 3.91633 13.9995 7.5C13.9995 11.0843 11.0843 14.0001 7.5 14.0001C3.9157 14.0001 0.999874 11.0843 0.999874 7.5C0.999874 6.25693 1.35207 5.04788 2.01928 4.00517C2.16797 3.77205 2.09992 3.4627 1.86681 3.31401C1.63432 3.16532 1.32497 3.23337 1.17692 3.46585C0.407006 4.66986 0 6.06603 0 7.5C0 11.6362 3.36379 15 7.5 15C11.6356 15 15 11.6362 15 7.5C15 3.36505 11.6356 0 7.5 0Z" fill="#32B38C"/>
</svg>
