<svg width="8" height="16" viewBox="0 0 8 16" fill="none" xmlns="http://www.w3.org/2000/svg">
<path d="M2.77477 15.0802L2.75187 15.0873C2.7598 15.0573 2.77037 15.0036 2.77037 14.9186C2.77037 14.7851 2.70165 14.5358 2.68271 14.5002C2.66377 14.4645 2.64307 14.4389 2.59727 14.4517C2.56247 14.4614 2.29555 14.5953 2.12509 14.6019C1.8084 14.6138 1.65556 14.3297 1.65556 14.3297C1.65556 14.3297 1.47982 14.4301 1.34019 14.5116C1.20012 14.5931 1.03759 14.7151 0.917787 14.7878C0.8156 14.8499 0.698878 14.8794 0.578192 14.8948C0.457506 14.9102 0.359283 14.9049 0.330212 14.9076C0.301142 14.9102 0.0566858 14.8807 0.0478766 15.1225L0.0491981 15.1785L0.0254133 15.167C0.0254133 15.167 0.0042711 15.2419 0.00250926 15.256C0.000747416 15.2705 -0.00806201 15.2789 0.0227703 15.2983C0.0536025 15.3177 0.189265 15.3758 0.361925 15.419C0.534586 15.4621 0.814719 15.526 1.03099 15.526C1.24725 15.526 1.43136 15.4828 1.53796 15.4573C1.64499 15.4317 1.87403 15.3828 1.89605 15.393C1.91807 15.4031 1.94714 15.4771 1.97225 15.5C1.9978 15.5229 2.68139 15.4643 2.73028 15.4542C2.77962 15.4441 2.79459 15.4018 2.79459 15.3828V15.097C2.79547 15.0851 2.78534 15.0772 2.77477 15.0802ZM7.5965 13.4276L7.37451 13.2387C7.36614 13.2316 7.35336 13.2338 7.34852 13.244L7.33883 13.2664C7.32077 13.2404 7.28597 13.1968 7.22034 13.1409C7.11684 13.0528 6.87811 12.9409 6.83802 12.9326C6.79794 12.9237 6.76447 12.9229 6.74421 12.9665C6.72879 12.9999 6.65655 13.2951 6.54864 13.4316C6.34867 13.6849 6.02714 13.6157 6.02714 13.6157L5.95975 13.9804C5.93023 14.1425 5.91746 14.3495 5.89456 14.4905C5.87518 14.6107 5.821 14.7208 5.75273 14.8243C5.6849 14.9283 5.61619 15.0005 5.59857 15.0252C5.58139 15.0494 5.39728 15.2194 5.57875 15.3864L5.62323 15.422L5.59901 15.4331C5.59901 15.4331 5.64305 15.4987 5.65274 15.5097C5.66243 15.5207 5.66376 15.533 5.69855 15.522C5.73335 15.511 5.86857 15.4441 6.01612 15.3388C6.16412 15.2331 6.39844 15.0582 6.54115 14.8904C6.6843 14.7226 6.77196 14.5513 6.82305 14.4517C6.87414 14.3522 6.98734 14.1421 7.0098 14.1315C7.03227 14.1209 7.10847 14.1473 7.14326 14.1429C7.17762 14.1385 7.58417 13.5695 7.60883 13.525C7.6335 13.4805 7.61103 13.44 7.5965 13.4276Z" fill="#292F33"/>
<path d="M3.3418 5.06651C3.7501 5.48936 4.69049 6.33945 4.71119 6.44119C4.82175 6.97988 4.98163 7.58903 4.94023 7.96255C4.91028 8.23343 5.10584 8.53426 5.18292 8.65979C5.27894 8.81572 5.52692 9.05533 5.68549 9.03859C5.78415 9.02846 5.93523 8.84919 5.85463 8.75846C5.69738 8.58227 5.72337 8.31403 5.62471 8.07178C5.42694 7.58507 5.60489 6.66495 5.33356 6.06196C5.2208 5.81221 5.0107 5.31625 4.0897 4.46484C3.86462 4.66834 3.3418 5.06651 3.3418 5.06651Z" fill="#EEC2AD"/>
<path d="M1.91604 14.7394C1.35842 14.7874 1.09987 14.6368 1.15801 14.5562C1.23069 14.4558 1.21439 14.3813 1.21527 14.3201C1.2276 13.2449 1.00781 11.6813 1.00781 11.6813C1.00781 11.528 1.00913 11.3232 1.14524 10.9933C1.48792 10.1639 2.8855 7.60615 2.8855 7.60615C3.12687 7.18419 3.66555 7.03663 4.08752 7.27844C4.50992 7.51982 4.58171 7.89729 4.41522 8.48046C4.10029 9.58514 3.10925 10.9479 2.6961 11.7738C2.79476 12.708 2.61946 13.4709 2.71152 14.3536C2.72473 14.4804 2.47367 14.6914 1.91604 14.7394Z" fill="#2A6797"/>
<path d="M6.64468 13.7387C6.48435 13.9823 6.21744 14.1536 5.94083 14.1078C5.38188 13.2604 3.75834 11.7641 3.75834 11.7641C3.65219 11.654 3.5108 11.5056 3.37955 11.1735C3.05008 10.3388 2.27927 7.52776 2.27927 7.52776C2.15947 7.05646 2.44489 6.57636 2.91618 6.45743C3.38747 6.33763 3.70152 6.55962 3.9865 7.09434C4.52695 8.10784 4.76039 9.77675 5.03656 10.6577C5.86022 11.3483 6.08618 12.2447 6.91953 12.9265C6.8909 13.304 6.80501 13.4951 6.64468 13.7387Z" fill="#4289C1"/>
<path d="M3.03545 0.29861C2.32367 0.0867478 1.32074 0.532054 1.22516 1.34338C1.0917 2.47537 1.80789 3.3629 2.50293 3.22679C3.23146 3.08409 3.66927 2.88235 3.90228 2.09965C4.13484 1.31696 3.74724 0.510471 3.03545 0.29861Z" fill="#F7DECE"/>
<path d="M3.72442 2.31153C4.62517 1.04873 2.22201 1.37071 2.22201 1.37071C1.76657 1.42665 2.14625 2.16045 1.96698 2.59431C1.84409 2.8947 2.47792 2.99381 2.47792 2.99381C2.47792 2.99381 2.76246 2.96518 2.80738 3.30918L2.80782 3.31226C2.81883 3.39991 2.81839 3.50518 2.78932 3.64833C2.64441 4.35747 3.60946 4.70191 3.75393 3.99145C3.81119 3.71044 3.75922 3.47171 3.69932 3.2528L3.69359 3.23298C3.6033 2.90704 3.50199 2.62382 3.72442 2.31153Z" fill="#F7DECE"/>
<path d="M3.92278 0.463573C3.54354 0.0332424 2.36927 -0.27464 1.69581 0.368874C1.18752 0.324828 1.03644 0.817703 1.10251 1.08815C1.15536 1.30397 1.69801 1.31454 1.86847 1.71845C1.95348 1.60613 1.95964 1.39074 1.92969 1.27843C2.11513 1.42862 2.07769 1.8682 2.77538 2.09328C3.45016 2.31087 3.38409 2.8958 3.38409 2.8958C3.38409 2.8958 3.71312 2.7042 3.92806 2.40733C4.33946 1.84089 4.34078 0.937949 3.92278 0.463573Z" fill="#292F33"/>
<path d="M4.97189 8.48356C4.97189 8.48356 4.97189 8.92402 4.09097 8.92402H1.93359C2.37405 6.90759 1.89219 6.35173 2.03975 5.14442C2.19875 3.8433 3.04708 3.04298 3.57035 3.23282C4.37287 3.52397 4.75651 4.39608 4.86178 5.81304C4.96705 7.23001 4.97189 8.48356 4.97189 8.48356Z" fill="#FA743E"/>
<path d="M2.65961 4.86914C2.58605 5.48535 2.51778 6.8217 2.44863 6.90627C2.08173 7.35598 1.69016 7.89291 1.35673 8.10829C1.11492 8.26421 0.999514 8.62539 0.948421 8.77207C0.884994 8.95442 0.854603 9.31736 0.973527 9.43584C1.04797 9.50984 1.29506 9.5138 1.31532 9.38739C1.35497 9.14117 1.59105 8.98349 1.72363 8.74123C1.98967 8.25496 2.86134 7.78675 3.17363 7.16262C3.30313 6.90363 3.56828 6.40106 3.65065 5.07968C3.33352 5.03123 2.65961 4.86914 2.65961 4.86914Z" fill="#F7DECE"/>
</svg>
