<svg width="14" height="16" viewBox="0 0 14 16" fill="none" xmlns="http://www.w3.org/2000/svg">
<path d="M14 7.72847C14 7.50853 13.9475 7.30214 13.8596 7.11456C13.2733 5.223 10.5282 5.36117 6.62352 5.26891C5.9707 5.25361 6.34412 4.48273 6.57324 2.79056C6.72234 1.68999 6.01268 0 4.81985 0C2.85308 0 4.74508 1.55138 3.00612 5.38784C2.07696 7.43769 0 6.28946 0 8.34849V13.0354C0 13.8369 0.0787058 14.6073 1.20595 14.7341C2.29864 14.857 2.05291 15.6358 3.62921 15.6358H11.519C12.3227 15.6358 12.9764 14.9816 12.9764 14.178C12.9764 13.8448 12.8596 13.5413 12.6712 13.2956C13.1172 13.0459 13.4233 12.5746 13.4233 12.028C13.4233 11.6957 13.307 11.3922 13.1189 11.1469C13.5662 10.8977 13.8732 10.4259 13.8732 9.87844C13.8732 9.48098 13.7123 9.12068 13.453 8.85702C13.784 8.58986 14 8.18583 14 7.72847Z" fill="#FFDB5E"/>
<path d="M8.78074 9.18622H12.5429C13.0545 9.18622 13.5346 8.9125 13.796 8.47218C13.9036 8.29072 13.8437 8.05592 13.6618 7.94792C13.4803 7.83991 13.2455 7.90069 13.1375 8.08215C13.0138 8.2916 12.7851 8.42103 12.5424 8.42103H8.69023C8.3085 8.42103 7.99805 8.11057 7.99805 7.72885C7.99805 7.34713 8.3085 7.03668 8.69023 7.03668H11.2643C11.4755 7.03668 11.6469 6.86528 11.6469 6.65408C11.6469 6.44289 11.4755 6.27148 11.2643 6.27148H8.68979C7.88612 6.27148 7.23242 6.92518 7.23242 7.72885C7.23242 8.17704 7.44012 8.57363 7.75931 8.84123C7.4904 9.10576 7.32293 9.47306 7.32293 9.87883C7.32293 10.3283 7.53194 10.7262 7.85289 10.9934C7.58572 11.2575 7.42 11.6235 7.42 12.0284C7.42 12.5181 7.66443 12.9501 8.03609 13.2146C7.80697 13.4722 7.66355 13.8076 7.66355 14.1783C7.66355 14.982 8.31725 15.6357 9.12092 15.6357H11.5188C12.0304 15.6357 12.511 15.3624 12.7724 14.9221C12.8804 14.7407 12.8205 14.5059 12.6391 14.3979C12.4572 14.2907 12.2224 14.3498 12.1148 14.5312C11.9902 14.7407 11.7615 14.8705 11.5188 14.8705H9.12092C8.7392 14.8705 8.42875 14.5601 8.42875 14.1783C8.42875 13.7966 8.7392 13.4862 9.12092 13.4862H11.9657C12.4773 13.4862 12.9583 13.2125 13.2193 12.7721C13.3273 12.5902 13.2674 12.3554 13.0859 12.2479C12.9027 12.1381 12.6688 12.1998 12.5617 12.3812C12.4353 12.5942 12.2123 12.721 11.9657 12.721H8.87737C8.49565 12.721 8.1852 12.4101 8.1852 12.0284C8.1852 11.6466 8.49565 11.3362 8.87737 11.3362H12.4152C12.9268 11.3362 13.4073 11.0629 13.6688 10.6226C13.7768 10.4411 13.7169 10.2063 13.5354 10.0983C13.3531 9.99077 13.1187 10.0502 13.0112 10.2317C12.8848 10.4442 12.6618 10.571 12.4152 10.571H8.78074C8.39902 10.571 8.08857 10.2606 8.08857 9.87883C8.08857 9.49711 8.39858 9.18622 8.78074 9.18622Z" fill="#EE9547"/>
</svg>
