<svg width="27" height="27" viewBox="0 0 27 27" fill="none" xmlns="http://www.w3.org/2000/svg">
<path d="M13.5303 0.46967C13.2374 0.176777 12.7626 0.176777 12.4697 0.46967L7.6967 5.24264C7.40381 5.53553 7.40381 6.01041 7.6967 6.3033C7.98959 6.59619 8.46447 6.59619 8.75736 6.3033L13 2.06066L17.2426 6.3033C17.5355 6.59619 18.0104 6.59619 18.3033 6.3033C18.5962 6.01041 18.5962 5.53553 18.3033 5.24264L13.5303 0.46967ZM13.75 7L13.75 1L12.25 1L12.25 7L13.75 7Z" fill="black"/>
<path d="M13.5303 0.46967C13.2374 0.176777 12.7626 0.176777 12.4697 0.46967L7.6967 5.24264C7.40381 5.53553 7.40381 6.01041 7.6967 6.3033C7.98959 6.59619 8.46447 6.59619 8.75736 6.3033L13 2.06066L17.2426 6.3033C17.5355 6.59619 18.0104 6.59619 18.3033 6.3033C18.5962 6.01041 18.5962 5.53553 18.3033 5.24264L13.5303 0.46967ZM13.75 7L13.75 1L12.25 1L12.25 7L13.75 7Z" fill="black"/>
<path d="M13.5303 0.46967C13.2374 0.176777 12.7626 0.176777 12.4697 0.46967L7.6967 5.24264C7.40381 5.53553 7.40381 6.01041 7.6967 6.3033C7.98959 6.59619 8.46447 6.59619 8.75736 6.3033L13 2.06066L17.2426 6.3033C17.5355 6.59619 18.0104 6.59619 18.3033 6.3033C18.5962 6.01041 18.5962 5.53553 18.3033 5.24264L13.5303 0.46967ZM13.75 7L13.75 1L12.25 1L12.25 7L13.75 7Z" fill="white"/>
<path d="M12.4697 26.5303C12.7626 26.8232 13.2374 26.8232 13.5303 26.5303L18.3033 21.7574C18.5962 21.4645 18.5962 20.9896 18.3033 20.6967C18.0104 20.4038 17.5355 20.4038 17.2426 20.6967L13 24.9393L8.75736 20.6967C8.46447 20.4038 7.98959 20.4038 7.6967 20.6967C7.40381 20.9896 7.40381 21.4645 7.6967 21.7574L12.4697 26.5303ZM12.25 20L12.25 26L13.75 26L13.75 20L12.25 20Z" fill="black"/>
<path d="M12.4697 26.5303C12.7626 26.8232 13.2374 26.8232 13.5303 26.5303L18.3033 21.7574C18.5962 21.4645 18.5962 20.9896 18.3033 20.6967C18.0104 20.4038 17.5355 20.4038 17.2426 20.6967L13 24.9393L8.75736 20.6967C8.46447 20.4038 7.98959 20.4038 7.6967 20.6967C7.40381 20.9896 7.40381 21.4645 7.6967 21.7574L12.4697 26.5303ZM12.25 20L12.25 26L13.75 26L13.75 20L12.25 20Z" fill="white"/>
<path d="M12.4697 26.5303C12.7626 26.8232 13.2374 26.8232 13.5303 26.5303L18.3033 21.7574C18.5962 21.4645 18.5962 20.9896 18.3033 20.6967C18.0104 20.4038 17.5355 20.4038 17.2426 20.6967L13 24.9393L8.75736 20.6967C8.46447 20.4038 7.98959 20.4038 7.6967 20.6967C7.40381 20.9896 7.40381 21.4645 7.6967 21.7574L12.4697 26.5303ZM12.25 20L12.25 26L13.75 26L13.75 20L12.25 20Z" fill="white"/>
<path d="M26.5303 14.5303C26.8232 14.2374 26.8232 13.7626 26.5303 13.4697L21.7574 8.6967C21.4645 8.40381 20.9896 8.40381 20.6967 8.6967C20.4038 8.98959 20.4038 9.46447 20.6967 9.75736L24.9393 14L20.6967 18.2426C20.4038 18.5355 20.4038 19.0104 20.6967 19.3033C20.9896 19.5962 21.4645 19.5962 21.7574 19.3033L26.5303 14.5303ZM20 14.75L26 14.75V13.25L20 13.25V14.75Z" fill="black"/>
<path d="M26.5303 14.5303C26.8232 14.2374 26.8232 13.7626 26.5303 13.4697L21.7574 8.6967C21.4645 8.40381 20.9896 8.40381 20.6967 8.6967C20.4038 8.98959 20.4038 9.46447 20.6967 9.75736L24.9393 14L20.6967 18.2426C20.4038 18.5355 20.4038 19.0104 20.6967 19.3033C20.9896 19.5962 21.4645 19.5962 21.7574 19.3033L26.5303 14.5303ZM20 14.75L26 14.75V13.25L20 13.25V14.75Z" fill="black"/>
<path d="M26.5303 14.5303C26.8232 14.2374 26.8232 13.7626 26.5303 13.4697L21.7574 8.6967C21.4645 8.40381 20.9896 8.40381 20.6967 8.6967C20.4038 8.98959 20.4038 9.46447 20.6967 9.75736L24.9393 14L20.6967 18.2426C20.4038 18.5355 20.4038 19.0104 20.6967 19.3033C20.9896 19.5962 21.4645 19.5962 21.7574 19.3033L26.5303 14.5303ZM20 14.75L26 14.75V13.25L20 13.25V14.75Z" fill="white"/>
<path d="M0.46967 13.4697C0.176777 13.7626 0.176777 14.2374 0.46967 14.5303L5.24264 19.3033C5.53553 19.5962 6.01041 19.5962 6.3033 19.3033C6.59619 19.0104 6.59619 18.5355 6.3033 18.2426L2.06066 14L6.3033 9.75736C6.59619 9.46447 6.59619 8.98959 6.3033 8.6967C6.01041 8.40381 5.53553 8.40381 5.24264 8.6967L0.46967 13.4697ZM7 13.25H1V14.75H7V13.25Z" fill="black"/>
<path d="M0.46967 13.4697C0.176777 13.7626 0.176777 14.2374 0.46967 14.5303L5.24264 19.3033C5.53553 19.5962 6.01041 19.5962 6.3033 19.3033C6.59619 19.0104 6.59619 18.5355 6.3033 18.2426L2.06066 14L6.3033 9.75736C6.59619 9.46447 6.59619 8.98959 6.3033 8.6967C6.01041 8.40381 5.53553 8.40381 5.24264 8.6967L0.46967 13.4697ZM7 13.25H1V14.75H7V13.25Z" fill="black"/>
<path d="M0.46967 13.4697C0.176777 13.7626 0.176777 14.2374 0.46967 14.5303L5.24264 19.3033C5.53553 19.5962 6.01041 19.5962 6.3033 19.3033C6.59619 19.0104 6.59619 18.5355 6.3033 18.2426L2.06066 14L6.3033 9.75736C6.59619 9.46447 6.59619 8.98959 6.3033 8.6967C6.01041 8.40381 5.53553 8.40381 5.24264 8.6967L0.46967 13.4697ZM7 13.25H1V14.75H7V13.25Z" fill="white"/>
</svg>
