<svg width="64" height="75" viewBox="0 0 64 75" fill="none" xmlns="http://www.w3.org/2000/svg">
<path d="M18.0697 75C2.38501 66.3396 -1.74445 58.1424 0.616479 46.9468C2.35942 38.6798 8.06659 31.9539 8.61382 23.7028C11.0517 28.0493 12.0704 31.1835 12.3428 35.7256C20.0967 26.4184 25.2206 13.5341 25.524 0C25.524 0 45.7199 11.6256 47.0451 29.1863C48.7837 25.5667 49.6589 19.818 47.9203 16.0923C53.136 19.8182 83.6642 52.8946 43.7852 75C51.2829 60.6976 45.7195 41.3993 32.7015 32.4864C33.5709 36.3188 32.0467 50.6127 26.2875 56.8936C27.8832 46.3988 24.7691 41.9612 24.7691 41.9612C24.7691 41.9612 23.7003 47.8396 19.5534 53.7778C15.7665 59.2004 13.1426 64.9557 18.0697 75Z" fill="#F2F2F2" fill-opacity="0.7"/>
</svg>
