<svg width="16" height="15" viewBox="0 0 16 15" fill="none" xmlns="http://www.w3.org/2000/svg">
<path d="M0.737705 3.93443H0.983607V14.2623C0.983607 14.669 1.31459 15 1.72131 15C2.12803 15 2.45902 14.669 2.45902 14.2623V3.93443H2.70492C3.11164 3.93443 3.44262 3.60344 3.44262 3.19672V0.737705C3.44262 0.330984 3.11164 0 2.70492 0C2.51533 0 2.34393 0.0740164 2.21311 0.191803C2.08229 0.0740164 1.9109 0 1.72131 0C1.53172 0 1.36033 0.0740164 1.22951 0.191803C1.09869 0.0740164 0.927295 0 0.737705 0C0.330984 0 0 0.330984 0 0.737705V3.19672C0 3.60344 0.330984 3.93443 0.737705 3.93443ZM0.491803 0.737705C0.491803 0.601967 0.602213 0.491803 0.737705 0.491803C0.873197 0.491803 0.983607 0.601967 0.983607 0.737705V2.70492H1.47541V0.737705C1.47541 0.601967 1.58582 0.491803 1.72131 0.491803C1.8568 0.491803 1.96721 0.601967 1.96721 0.737705V2.70492H2.45902V0.737705C2.45902 0.601967 2.56943 0.491803 2.70492 0.491803C2.84041 0.491803 2.95082 0.601967 2.95082 0.737705V3.19672C2.95082 3.33246 2.84041 3.44262 2.70492 3.44262H2.21311C2.07738 3.44262 1.96721 3.55254 1.96721 3.68852V14.2623C1.96721 14.398 1.8568 14.5082 1.72131 14.5082C1.58582 14.5082 1.47541 14.398 1.47541 14.2623V3.68852C1.47541 3.55254 1.36525 3.44262 1.22951 3.44262H0.737705C0.602213 3.44262 0.491803 3.33246 0.491803 3.19672V0.737705Z" fill="#32B28C"/>
<path d="M14.0162 0C13.0671 0 12.2949 0.772377 12.2949 1.72131V3.19672C12.2949 3.79057 12.7181 4.2873 13.2785 4.40139V14.2623C13.2785 14.669 13.6095 15 14.0162 15C14.423 15 14.7539 14.669 14.7539 14.2623V4.40139C15.3143 4.28705 15.7375 3.79057 15.7375 3.19672V1.72131C15.7375 0.772377 14.9654 0 14.0162 0ZM15.2457 3.19672C15.2457 3.60344 14.9148 3.93443 14.508 3.93443C14.3723 3.93443 14.2621 4.04434 14.2621 4.18033V14.2623C14.2621 14.398 14.1517 14.5082 14.0162 14.5082C13.8807 14.5082 13.7703 14.398 13.7703 14.2623V4.18033C13.7703 4.04434 13.6602 3.93443 13.5244 3.93443C13.1177 3.93443 12.7867 3.60344 12.7867 3.19672V1.72131C12.7867 1.04336 13.3383 0.491803 14.0162 0.491803C14.6942 0.491803 15.2457 1.04336 15.2457 1.72131V3.19672Z" fill="#32B28C"/>
<path d="M7.86891 13.0337C10.4452 13.0337 12.541 10.9379 12.541 8.36158C12.541 5.78527 10.4452 3.68945 7.86891 3.68945C5.2926 3.68945 3.19678 5.78527 3.19678 8.36158C3.19678 10.9379 5.2926 13.0337 7.86891 13.0337ZM7.86891 4.18126C10.174 4.18126 12.0492 6.0565 12.0492 8.36158C12.0492 10.6667 10.174 12.5419 7.86891 12.5419C5.56383 12.5419 3.68858 10.6667 3.68858 8.36158C3.68858 6.0565 5.56383 4.18126 7.86891 4.18126Z" fill="#32B28C"/>
<path d="M7.86889 11.8032C9.76725 11.8032 11.3115 10.259 11.3115 8.36059C11.3115 6.46223 9.76725 4.91797 7.86889 4.91797C5.97053 4.91797 4.42627 6.46223 4.42627 8.36059C4.42627 10.259 5.97053 11.8032 7.86889 11.8032ZM7.86889 5.40977C9.49602 5.40977 10.8197 6.73346 10.8197 8.36059C10.8197 9.98772 9.49602 11.3114 7.86889 11.3114C6.24176 11.3114 4.91807 9.98772 4.91807 8.36059C4.91807 6.73346 6.24176 5.40977 7.86889 5.40977Z" fill="#32B28C"/>
</svg>
