<svg width="37" height="37" viewBox="0 0 37 37" fill="none" xmlns="http://www.w3.org/2000/svg">
<circle cx="18.5" cy="18.5" r="18.5" fill="white"/>
<path d="M18 21.6364C19.578 21.6364 20.8571 20.3339 20.8571 18.7273C20.8571 17.1206 19.578 15.8182 18 15.8182C16.422 15.8182 15.1429 17.1206 15.1429 18.7273C15.1429 20.3339 16.422 21.6364 18 21.6364Z" fill="black"/>
<path d="M26.9286 12.9091H23.2232C23.0893 12.9091 22.9232 12.8209 22.7938 12.6818L21.5759 10.7364C21.0804 10 20.8571 10 20.0536 10H15.9464C15.1429 10 14.875 10 14.4254 10.7368L13.2062 12.6818C13.1071 12.7918 12.9679 12.9091 12.8214 12.9091V12.1818C12.8214 12.0854 12.7838 11.9929 12.7168 11.9247C12.6498 11.8565 12.559 11.8182 12.4643 11.8182H10.6786C10.5839 11.8182 10.493 11.8565 10.426 11.9247C10.3591 11.9929 10.3214 12.0854 10.3214 12.1818V12.9091H9.07143C8.78727 12.9091 8.51475 13.024 8.31381 13.2286C8.11288 13.4332 8 13.7107 8 14V24.9091C8 25.1984 8.11288 25.4759 8.31381 25.6805C8.51475 25.8851 8.78727 26 9.07143 26H26.9286C27.2127 26 27.4853 25.8851 27.6862 25.6805C27.8871 25.4759 28 25.1984 28 24.9091V14C28 13.7107 27.8871 13.4332 27.6862 13.2286C27.4853 13.024 27.2127 12.9091 26.9286 12.9091ZM18.2013 23.0864C17.3375 23.1277 16.4816 22.9019 15.7461 22.4388C15.0106 21.9757 14.4299 21.2969 14.0803 20.4916C13.7308 19.6862 13.6286 18.792 13.7874 17.9265C13.9461 17.061 14.3583 16.2646 14.9698 15.642C15.5813 15.0194 16.3635 14.5997 17.2135 14.438C18.0636 14.2764 18.9418 14.3804 19.7328 14.7364C20.5238 15.0923 21.1905 15.6836 21.6453 16.4324C22.1001 17.1813 22.3218 18.0527 22.2812 18.9323C22.2301 20.0172 21.7838 21.0438 21.0295 21.8118C20.2752 22.5799 19.2669 23.0343 18.2013 23.0864Z" fill="black"/>
</svg>
