<svg width="17" height="19" viewBox="0 0 17 19" fill="none" xmlns="http://www.w3.org/2000/svg">
<path d="M8.19111 0C5.18955 0 2.75586 2.41733 2.75586 5.39936C2.75586 6.9249 4.25232 9.65797 4.25232 9.65797L7.99076 16L11.8914 9.73202C11.8914 9.73202 13.6241 7.12434 13.6241 5.39936C13.6245 2.41733 11.1913 0 8.19111 0ZM8.16567 8.37321C6.44659 8.37321 5.05416 6.98078 5.05416 5.25989C5.05416 3.54127 6.44614 2.14975 8.16567 2.14975C9.88383 2.14975 11.2776 3.54127 11.2776 5.25989C11.2776 6.98078 9.88383 8.37321 8.16567 8.37321Z" fill="#32B38C"/>
<path d="M12.8185 15.4141C12.829 15.7779 12.6601 16.1417 12.3258 16.4751C11.9915 16.8087 11.5014 17.1021 10.8964 17.3311C10.2914 17.5601 9.58894 17.7181 8.84753 17.7919C8.10611 17.8657 7.34716 17.8531 6.63387 17.7553C5.83066 17.645 5.27355 17.4772 4.74664 17.2294C4.21974 16.9817 3.8282 16.6736 3.60462 16.331C3.38105 15.9883 3.33189 15.6209 3.46125 15.2593" stroke="#32B38C" stroke-linecap="round"/>
</svg>
