<svg width="13" height="14" viewBox="0 0 13 14" fill="none" xmlns="http://www.w3.org/2000/svg">
<path d="M12 10.9622C12 11.2993 11.7908 11.6315 11.3898 11.9312C10.9888 12.2309 10.4075 12.4894 9.6944 12.6852C8.98133 12.8809 8.15708 13.0083 7.29021 13.0568C6.42334 13.1052 5.53894 13.0733 4.71066 12.9636C3.88236 12.854 3.13411 12.6698 2.52817 12.4263C1.92225 12.1829 1.47617 11.8873 1.22707 11.5641C0.977979 11.241 0.933064 10.8995 1.09608 10.5684" stroke="white" stroke-width="0.7" stroke-linecap="round"/>
<path d="M10.4577 6.19483L8.54395 10.1731C8.20316 10.8817 7.40284 11.3554 6.50049 11.3554C5.59815 11.3554 4.79786 10.8817 4.45703 10.1731L2.54322 6.19477C1.36886 3.75359 3.40019 1 6.50049 1C9.60078 1 11.6321 3.75359 10.4577 6.19483Z" stroke="white" stroke-width="0.7"/>
<path d="M6.49902 5.54946C7.25842 5.54946 7.87402 4.98749 7.87402 4.29426C7.87402 3.60103 7.25842 3.03906 6.49902 3.03906C5.73963 3.03906 5.12402 3.60103 5.12402 4.29426C5.12402 4.98749 5.73963 5.54946 6.49902 5.54946Z" stroke="white" stroke-width="0.7"/>
</svg>
