<svg width="20" height="18" viewBox="0 0 20 18" fill="none" xmlns="http://www.w3.org/2000/svg">
<path d="M8 0.4L6 1.7V0H4V3L0 5.6L0.6 6.4L8 1.6L15.4 6.4L16 5.6L8 0.4Z" fill="#8F8F8F"/>
<path d="M8 3L2 7V14H7V11H9V14H14V7L8 3Z" fill="#8F8F8F"/>
<circle cx="15" cy="13" r="5" fill="white"/>
<path d="M15.111 10.9048C15.9655 10.9048 16.5109 10.6316 16.5109 10.4442V9.92773C16.1837 10.1317 15.6454 10.2367 15.111 10.2367C14.5766 10.2367 14.0385 10.1317 13.7114 9.9279V10.4433C13.7114 10.6316 14.2568 10.9048 15.111 10.9048Z" fill="#8F8F8F"/>
<path d="M15.111 9.92131C15.9655 9.92131 16.5109 9.64821 16.5109 9.46066C16.5109 9.2731 15.9655 9 15.111 9C14.2565 9 13.7114 9.27179 13.7114 9.46C13.7114 9.64821 14.2568 9.92131 15.111 9.92131Z" fill="#8F8F8F"/>
<path d="M12.881 11.8092C13.2078 11.8092 13.4881 11.7689 13.7112 11.7092C13.7691 11.6935 13.8216 11.6763 13.8714 11.6585C13.89 11.6519 13.908 11.6453 13.9254 11.6383C13.969 11.6214 14.0118 11.6022 14.0534 11.5808C14.0639 11.5754 14.0723 11.5698 14.082 11.5644C14.1112 11.5481 14.1393 11.5298 14.1661 11.5098C14.1732 11.5045 14.1811 11.4992 14.1875 11.4933C14.211 11.4742 14.2319 11.452 14.2497 11.4275C14.2531 11.4226 14.2557 11.4178 14.2585 11.4129C14.2731 11.394 14.281 11.3709 14.281 11.3471C14.281 11.3233 14.2731 11.3001 14.2585 11.2813C14.2557 11.2763 14.2531 11.2716 14.2497 11.2666C14.2319 11.2421 14.211 11.22 14.1875 11.2008C14.1811 11.1955 14.1732 11.1903 14.1661 11.1844C14.1392 11.1644 14.111 11.1462 14.0818 11.1297C14.0721 11.1243 14.0639 11.1187 14.0536 11.1133C14.0119 11.0919 13.9691 11.0727 13.9254 11.0559C13.908 11.049 13.89 11.0422 13.8714 11.0356C13.8221 11.0177 13.7691 11.0006 13.7112 10.985C13.4881 10.9251 13.2078 10.8848 12.881 10.8848C12.0268 10.8848 11.4814 11.1584 11.4814 11.3464C11.4814 11.5345 12.0268 11.8092 12.881 11.8092Z" fill="#8F8F8F"/>
<path d="M18.9735 13.594C18.9622 13.5768 18.9475 13.5619 18.9304 13.5504C18.9133 13.5388 18.8941 13.5307 18.8738 13.5266C18.8536 13.5225 18.8328 13.5224 18.8125 13.5263C18.7922 13.5303 18.7729 13.5382 18.7557 13.5496L14.4686 16.3909L11.2222 14.9233C11.1841 14.9062 11.1408 14.9048 11.1018 14.9195C11.0628 14.9342 11.0312 14.9639 11.014 15.0019C10.9968 15.0399 10.9954 15.0832 11.0101 15.1223C11.0249 15.1613 11.0545 15.1929 11.0925 15.2101L14.4181 16.7135C14.4385 16.7226 14.4606 16.7273 14.483 16.7273C14.5138 16.7274 14.544 16.7183 14.5697 16.7011L18.9294 13.8118C18.9467 13.8005 18.9615 13.7858 18.973 13.7687C18.9845 13.7515 18.9926 13.7323 18.9967 13.7121C19.0008 13.6919 19.0008 13.671 18.9969 13.6507C18.9929 13.6305 18.985 13.6112 18.9735 13.594Z" fill="#8F8F8F"/>
<path d="M11.0909 14.5183L12.043 14.9633L13.6566 15.7175L14.4096 16.0696C14.4342 16.081 14.4613 16.0858 14.4884 16.0837C14.5154 16.0816 14.5415 16.0726 14.5641 16.0576L15.2003 15.6298L17.9463 13.7872L18.819 13.201C18.8422 13.1855 18.8609 13.1641 18.8731 13.1391C18.8853 13.114 18.8906 13.0861 18.8885 13.0583C18.8863 13.0305 18.8768 13.0038 18.861 12.9809C18.8451 12.958 18.8234 12.9397 18.7981 12.9279L17.8482 12.4837L16.5103 11.8585V10.9043C16.1798 11.1106 15.6352 11.2187 15.1109 11.2187C14.9262 11.2185 14.7417 11.2048 14.559 11.1779C14.5828 11.2311 14.5952 11.2886 14.5955 11.3469V12.0314L14.2811 12.2288V11.8083C14.2398 11.8338 14.1972 11.857 14.1534 11.8778C14.132 11.8881 14.1085 11.8973 14.086 11.907C14.0634 11.9168 14.0381 11.9281 14.0126 11.9378C13.981 11.9498 13.9476 11.9607 13.9139 11.9707C13.8958 11.9765 13.8782 11.9827 13.8597 11.9883C13.8219 11.9997 13.7826 12.0099 13.7431 12.0197C13.461 12.089 13.1716 12.1239 12.8812 12.1236C12.357 12.1236 11.8126 12.0151 11.4816 11.8087V12.3302C11.4816 12.5184 12.027 12.7918 12.8812 12.7918C13.074 12.7925 13.2666 12.7774 13.457 12.7466L12.8841 13.1062H12.8805C12.3463 13.1062 11.8082 13.0013 11.481 12.7973V13.3129C11.481 13.4234 11.6746 13.5618 12.0048 13.6584L11.961 13.6865L11.0738 14.2426C11.0498 14.2576 11.0304 14.2788 11.0175 14.3039C11.0045 14.329 10.9986 14.3571 11.0003 14.3853C11.002 14.4135 11.0112 14.4407 11.027 14.4641C11.0428 14.4875 11.0647 14.5062 11.0902 14.5183H11.0909ZM14.4624 15.7466L13.9553 15.5099C13.9576 15.5071 13.9589 15.5036 13.9614 15.501C13.9693 15.4919 13.9789 15.4845 13.9872 15.4763C14.0165 15.4465 14.0485 15.4195 14.083 15.3959C14.0973 15.3862 14.1121 15.3772 14.1273 15.369C14.1603 15.3504 14.195 15.3348 14.2309 15.3225C14.2464 15.3171 14.2613 15.311 14.2771 15.306C14.3771 15.2773 14.4829 15.2758 14.5836 15.3018C14.5978 15.3052 14.6114 15.31 14.6254 15.3143C14.6585 15.3245 14.6907 15.3374 14.7217 15.3528C14.7353 15.3597 14.7491 15.3664 14.7623 15.3741C14.7964 15.3946 14.8286 15.4181 14.8584 15.4444C14.865 15.4501 14.8724 15.4548 14.8786 15.4608C14.8798 15.462 14.8806 15.4635 14.8817 15.4646L14.4624 15.7466ZM17.8571 12.8993C17.8594 12.8882 17.8614 12.8774 17.864 12.8664C17.866 12.8581 17.8702 12.8499 17.8726 12.8418L18.4135 13.0942L17.9148 13.429C17.9112 13.421 17.9086 13.4126 17.9051 13.4043C17.8887 13.3636 17.8752 13.3217 17.8648 13.279C17.8612 13.2643 17.8576 13.2497 17.8548 13.2349C17.8442 13.1807 17.8387 13.1256 17.8383 13.0704C17.8388 13.0128 17.8451 12.9555 17.8571 12.8993ZM15.5938 11.7766L16.0757 12.002C16.0729 12.0053 16.0712 12.0097 16.0684 12.013C16.0584 12.0245 16.0465 12.0341 16.0355 12.0449C16.0077 12.0736 15.9773 12.0996 15.9447 12.1227C15.9296 12.1333 15.9138 12.1428 15.8978 12.1522C15.8645 12.1711 15.8296 12.1871 15.7935 12.1999C15.7771 12.2056 15.7623 12.2124 15.7458 12.2163C15.6923 12.2316 15.6369 12.2397 15.5813 12.2404C15.5322 12.2398 15.4834 12.2335 15.4358 12.2218C15.4217 12.2183 15.408 12.2135 15.3944 12.2093C15.3608 12.199 15.3281 12.1859 15.2967 12.1701C15.2837 12.1635 15.2703 12.1573 15.2577 12.1497C15.2201 12.1275 15.1848 12.1016 15.1524 12.0724C15.1489 12.0691 15.1448 12.0668 15.1414 12.0635C15.1414 12.0635 15.14 12.0617 15.1392 12.0609L15.5938 11.7766ZM14.8684 12.2326C14.8729 12.2376 14.8786 12.2412 14.8831 12.2461C14.9227 12.29 14.9664 12.3301 15.0135 12.3659C15.0152 12.367 15.0166 12.3687 15.0185 12.37C15.0669 12.405 15.1185 12.4353 15.1726 12.4607C15.1826 12.4654 15.1924 12.4704 15.2026 12.4748C15.2556 12.4981 15.3106 12.5164 15.3671 12.5294C15.3776 12.5319 15.3883 12.5335 15.3988 12.5357C15.4592 12.5481 15.5206 12.5547 15.5823 12.5553C15.625 12.555 15.6676 12.5519 15.7099 12.5459C15.7238 12.5441 15.7371 12.5406 15.7507 12.5381C15.7789 12.533 15.8068 12.5273 15.8341 12.5197C15.8496 12.5154 15.8646 12.5103 15.8797 12.5052C15.9047 12.4969 15.9291 12.4878 15.9536 12.4774C15.9687 12.471 15.9834 12.4643 15.998 12.4572C16.0219 12.4455 16.0447 12.4329 16.0674 12.4194C16.0809 12.4113 16.0944 12.4029 16.1076 12.3948C16.1316 12.3784 16.1545 12.3619 16.1772 12.3432C16.1872 12.3351 16.1979 12.3277 16.2076 12.3192C16.2688 12.2665 16.323 12.2063 16.3692 12.14L17.5815 12.7066C17.5739 12.73 17.5707 12.7538 17.5651 12.7774C17.5596 12.7981 17.5542 12.8188 17.5499 12.8399C17.5335 12.9159 17.5247 12.9933 17.5238 13.071C17.5241 13.1254 17.5281 13.1796 17.5358 13.2334C17.5381 13.2499 17.5415 13.2663 17.5445 13.2828C17.5511 13.3204 17.5593 13.3576 17.5695 13.3943C17.5744 13.4117 17.5794 13.4292 17.585 13.4463C17.5978 13.4854 17.6126 13.5238 17.6294 13.5615C17.6348 13.5735 17.6391 13.5858 17.6449 13.5975C17.6467 13.6014 17.648 13.6054 17.6498 13.6092L15.1491 15.2873C15.1446 15.2823 15.1391 15.2789 15.1344 15.2741C15.0944 15.2302 15.0503 15.1902 15.0028 15.1545C15.002 15.154 15.0013 15.1534 15.0007 15.1527C14.9525 15.1183 14.9011 15.0885 14.8474 15.0637C14.8372 15.0588 14.8273 15.0537 14.8169 15.0492C14.7643 15.0265 14.7097 15.0086 14.6539 14.9957C14.643 14.9933 14.632 14.9916 14.621 14.9895C14.5614 14.9774 14.5008 14.971 14.44 14.9704C14.37 14.971 14.3002 14.9794 14.2321 14.9954C14.2212 14.9979 14.2102 14.9995 14.1991 15.0023C14.136 15.0189 14.0748 15.042 14.0164 15.0713C14.0052 15.0769 13.9943 15.0828 13.9835 15.0889C13.9254 15.1202 13.8708 15.1576 13.8204 15.2002C13.8148 15.2052 13.8099 15.2108 13.804 15.2157C13.7552 15.26 13.7111 15.3092 13.6724 15.3625C13.6694 15.3664 13.6654 15.3692 13.6626 15.3732L12.311 14.7414C12.3184 14.7184 12.3216 14.6948 12.3274 14.6716C12.3328 14.6511 12.3381 14.6305 12.3422 14.6098C12.3584 14.5341 12.367 14.4569 12.3679 14.3795C12.367 14.302 12.3585 14.2249 12.3424 14.1491C12.3389 14.131 12.3351 14.1133 12.3307 14.0953C12.313 14.0209 12.2883 13.9484 12.2568 13.8787C12.256 13.8768 12.2558 13.8749 12.255 13.8731L14.8684 12.2326ZM11.9829 14.0432C11.9864 14.0514 11.989 14.0596 11.9921 14.0682C12.0065 14.1057 12.0182 14.1442 12.0273 14.1833C12.0306 14.1975 12.0341 14.2115 12.0367 14.2258C12.0464 14.2764 12.0516 14.3278 12.0522 14.3793C12.0515 14.4365 12.045 14.4935 12.0329 14.5494C12.0308 14.5599 12.029 14.5706 12.0265 14.5813C12.0245 14.5892 12.0206 14.5968 12.0184 14.6045L11.4857 14.3556L11.9829 14.0432Z" fill="#8F8F8F"/>
<path d="M14.1517 13.2695C14.1235 13.3275 14.1012 13.3881 14.085 13.4505C14.0612 13.5382 14.0553 13.6297 14.0674 13.7197C14.0788 13.8029 14.1085 13.8826 14.1545 13.953C14.2018 14.0237 14.2662 14.0813 14.3418 14.1204C14.4092 14.1545 14.4826 14.1748 14.5579 14.1802C14.6332 14.1855 14.7088 14.1758 14.7803 14.1515C14.9047 14.1084 15.023 14.0245 15.1241 13.9077L15.5958 14.2162C15.532 14.2887 15.4685 14.3381 15.4063 14.3629C15.324 14.3958 15.2503 14.4006 15.1881 14.3794C15.1194 14.3465 15.0401 14.372 14.9917 14.4417C14.9769 14.4601 14.9664 14.4816 14.961 14.5046C14.9555 14.5275 14.9553 14.5514 14.9603 14.5745C14.9653 14.5958 14.9758 14.6153 14.9908 14.6312C15.0057 14.6472 15.0246 14.6588 15.0455 14.6652C15.1212 14.6966 15.2028 14.711 15.2847 14.7074C15.3666 14.7038 15.4467 14.6823 15.5193 14.6444C15.645 14.5796 15.7555 14.4888 15.8436 14.3782L15.8793 14.4014C15.8995 14.4156 15.9228 14.4247 15.9472 14.4281C15.9716 14.4315 15.9965 14.4291 16.0198 14.421C16.0578 14.4073 16.0903 14.3817 16.1126 14.348C16.1341 14.3143 16.1452 14.275 16.1443 14.2351C16.1438 14.2095 16.1369 14.1845 16.1243 14.1622C16.1117 14.14 16.0938 14.1212 16.0721 14.1076L16.0326 14.0816C16.093 13.9456 16.1113 13.8207 16.0871 13.7098C16.058 13.5764 15.9967 13.4732 15.9061 13.4036C15.8574 13.3643 15.8029 13.3329 15.7445 13.3103C15.6771 13.284 15.6052 13.2712 15.5328 13.2725H15.532C15.4501 13.2777 15.3703 13.3001 15.2977 13.3383C15.2278 13.3739 15.1639 13.42 15.108 13.475L14.6279 13.1603C14.662 13.1455 14.6977 13.1351 14.7344 13.1294C14.7666 13.1247 14.7995 13.126 14.8313 13.1332C14.866 13.1417 14.8996 13.1543 14.9313 13.1708C15.0246 13.2166 15.1011 13.169 15.1361 13.1019C15.1717 13.0318 15.1551 12.9578 15.0837 12.888C14.9443 12.8015 14.8007 12.7761 14.6559 12.8138C14.5441 12.8436 14.442 12.9021 14.3598 12.9836L14.3012 12.9464C14.2803 12.9328 14.2565 12.9242 14.2317 12.9213C14.2069 12.9185 14.1817 12.9214 14.1582 12.93C14.074 12.9619 14.0283 13.0358 14.036 13.1294C14.0392 13.1521 14.0473 13.1738 14.0597 13.193C14.0722 13.2123 14.0887 13.2286 14.1081 13.2407L14.1517 13.2695ZM15.4918 13.5894C15.5576 13.579 15.63 13.6009 15.7187 13.6601L15.7248 13.665C15.7371 13.6751 15.7478 13.687 15.7566 13.7003C15.7709 13.7193 15.7816 13.7407 15.7883 13.7636C15.796 13.7988 15.7973 13.8352 15.7919 13.8709C15.7899 13.8866 15.7864 13.9022 15.7814 13.9173L15.3689 13.6468C15.4051 13.6188 15.4471 13.5991 15.4918 13.5894ZM14.4011 13.4332L14.8696 13.7406C14.8479 13.7613 14.8242 13.7799 14.7989 13.796C14.7582 13.8226 14.7139 13.843 14.6673 13.8567C14.6417 13.8647 14.6146 13.8666 14.5881 13.8623C14.5599 13.8562 14.5325 13.8466 14.5067 13.8337C14.4712 13.8136 14.4407 13.7857 14.4175 13.7521C14.3944 13.7186 14.3791 13.6802 14.3729 13.6399C14.3619 13.5782 14.3711 13.5088 14.4011 13.4332Z" fill="#8F8F8F"/>
</svg>
