<svg width="68" height="78" viewBox="0 0 68 78" fill="none" xmlns="http://www.w3.org/2000/svg">
<g filter="url(#filter0_d_1_43311)">
<path d="M44.6864 11C38.785 11 34 15.7184 34 21.5391C34 24.5169 36.9423 29.8516 36.9423 29.8516L44.2925 42.2308L51.9617 29.9962C51.9617 29.9962 55.3684 24.9062 55.3684 21.5391C55.3693 15.7184 50.5852 11 44.6864 11ZM44.6364 27.3439C41.2565 27.3439 38.5188 24.6259 38.5188 21.2669C38.5188 17.9123 41.2556 15.1961 44.6364 15.1961C48.0146 15.1961 50.755 17.9123 50.755 21.2669C50.755 24.6259 48.0146 27.3439 44.6364 27.3439Z" fill="#32B38C"/>
</g>
<defs>
<filter id="filter0_d_1_43311" x="0" y="0" width="67.3682" height="77.2305" filterUnits="userSpaceOnUse" color-interpolation-filters="sRGB">
<feFlood flood-opacity="0" result="BackgroundImageFix"/>
<feColorMatrix in="SourceAlpha" type="matrix" values="0 0 0 0 0 0 0 0 0 0 0 0 0 0 0 0 0 0 127 0" result="hardAlpha"/>
<feOffset dx="-11" dy="12"/>
<feGaussianBlur stdDeviation="11.5"/>
<feColorMatrix type="matrix" values="0 0 0 0 0 0 0 0 0 0 0 0 0 0 0 0 0 0 0.02 0"/>
<feBlend mode="normal" in2="BackgroundImageFix" result="effect1_dropShadow_1_43311"/>
<feBlend mode="normal" in="SourceGraphic" in2="effect1_dropShadow_1_43311" result="shape"/>
</filter>
</defs>
</svg>
