<svg width="19" height="19" viewBox="0 0 19 19" fill="none" xmlns="http://www.w3.org/2000/svg">
<path d="M18.4375 3H16V16.5714C16 16.9503 16.158 17.3137 16.4393 17.5816C16.7206 17.8495 17.1022 18 17.5 18C17.8978 18 18.2794 17.8495 18.5607 17.5816C18.842 17.3137 19 16.9503 19 16.5714V3.53571C19 3.39363 18.9407 3.25737 18.8352 3.15691C18.7298 3.05644 18.5867 3 18.4375 3Z" fill="#32B38C"/>
<path d="M16.9624 18.9045C16.3873 18.7471 15.8798 18.4056 15.5178 17.9325C15.1558 17.4594 14.9594 16.8809 14.9587 16.2857V0.508928C14.9587 0.373952 14.905 0.244504 14.8094 0.149061C14.7137 0.0536189 14.584 0 14.4488 0H0.509957C0.374708 0 0.244998 0.0536189 0.149363 0.149061C0.0537274 0.244504 0 0.373952 0 0.508928V16.625C0 17.2549 0.250728 17.8589 0.697027 18.3043C1.14333 18.7497 1.74864 19 2.3798 19H16.9497C16.9617 19.0004 16.9735 18.9964 16.9828 18.9886C16.992 18.9809 16.998 18.97 16.9996 18.958C17.0012 18.9461 16.9982 18.934 16.9914 18.9241C16.9845 18.9142 16.9742 18.9072 16.9624 18.9045ZM2.71977 7.46427V3.39285H6.79943V7.46427H2.71977ZM12.239 15.6071H2.71977V14.25H12.239V15.6071ZM12.239 12.8928H2.71977V11.5357H12.239V12.8928ZM12.239 10.1786H2.71977V8.82141H12.239V10.1786ZM12.239 7.46427H8.15931V6.10713H12.239V7.46427ZM12.239 4.74999H8.15931V3.39285H12.239V4.74999Z" fill="#32B38C"/>
</svg>
