<svg width="23" height="22" viewBox="0 0 23 22" fill="none" xmlns="http://www.w3.org/2000/svg">
<path d="M4.91089 2.11866L15.6045 6.70119L11.3229 8.53549L0.690695 3.97885C0.930093 3.7346 1.22287 3.53726 1.55609 3.40947L4.91089 2.11866ZM7.07517 1.28724L9.58238 0.323179C10.7033 -0.107726 11.9441 -0.107726 13.065 0.323179L21.0913 3.40947C21.4229 3.53887 21.7156 3.73298 21.955 3.97885L17.6588 5.81962L7.07517 1.28724ZM22.636 5.44759L12.1316 9.94923V22C12.4505 21.9462 12.7632 21.8606 13.065 21.7444L21.0913 18.6565C21.5488 18.4803 21.9423 18.1696 22.2198 17.7654C22.4973 17.3611 22.6458 16.8823 22.6457 16.3919V5.67404C22.646 5.59841 22.6423 5.52281 22.6344 5.44759H22.636ZM10.5141 22V9.94923L0.0113228 5.44759C0.00403332 5.52285 0.00025498 5.59842 0 5.67404V16.3919C6.49326e-05 16.8825 0.148803 17.3614 0.426599 17.7657C0.704395 18.17 1.0982 18.4806 1.55609 18.6565L9.58076 21.7444C9.88486 21.8609 10.1971 21.9466 10.5141 22Z" fill="#32B38C"/>
</svg>
