<svg width="24" height="21" viewBox="0 0 24 21" fill="none" xmlns="http://www.w3.org/2000/svg">
<path d="M0 16.3333H23.3333V21H0V16.3333ZM4.95833 4.66667H8.16667V3.5H4.66667V0H14V3.5H10.5V4.66667H18.4333C19.6 4.66667 20.7667 5.83333 21 7L21.5833 15.1667H1.75L2.39167 7C2.39167 5.83333 3.55833 4.66667 4.95833 4.66667ZM12.8333 7V9.33333H18.6667V7H12.8333ZM4.66667 7V8.16667H7V7H4.66667ZM8.16667 7V8.16667H10.5V7H8.16667ZM4.66667 9.33333V10.5H7V9.33333H4.66667ZM8.16667 9.33333V10.5H10.5V9.33333H8.16667ZM4.66667 11.6667V12.8333H7V11.6667H4.66667ZM8.16667 11.6667V12.8333H10.5V11.6667H8.16667ZM5.83333 1.16667V2.33333H12.8333V1.16667H5.83333Z" fill="#32B38C"/>
</svg>
