<svg width="24" height="23" viewBox="0 0 24 23" fill="none" xmlns="http://www.w3.org/2000/svg">
<path d="M1.41667 17C1.41667 17 0 17 0 15.5833C0 14.1667 1.41667 9.91667 7.08333 9.91667C12.75 9.91667 14.1667 14.1667 14.1667 15.5833C14.1667 17 12.75 17 12.75 17H1.41667ZM7.08333 8.5C8.2105 8.5 9.29151 8.05223 10.0885 7.2552C10.8856 6.45817 11.3333 5.37717 11.3333 4.25C11.3333 3.12283 10.8856 2.04183 10.0885 1.2448C9.29151 0.447767 8.2105 0 7.08333 0C5.95616 0 4.87516 0.447767 4.07813 1.2448C3.2811 2.04183 2.83333 3.12283 2.83333 4.25C2.83333 5.37717 3.2811 6.45817 4.07813 7.2552C4.87516 8.05223 5.95616 8.5 7.08333 8.5Z" fill="white"/>
<path d="M8 19.1111H23V22H8V19.1111ZM11.1875 11.8889H13.25V11.1667H11V9H17V11.1667H14.75V11.8889H19.85C20.6 11.8889 21.35 12.6111 21.5 13.3333L21.875 18.3889H9.125L9.5375 13.3333C9.5375 12.6111 10.2875 11.8889 11.1875 11.8889ZM16.25 13.3333V14.7778H20V13.3333H16.25ZM11 13.3333V14.0556H12.5V13.3333H11ZM13.25 13.3333V14.0556H14.75V13.3333H13.25ZM11.75 9.72222V10.4444H16.25V9.72222H11.75Z" fill="#32B38C"/>
<path d="M9 20.1111H24V23H9V20.1111ZM12.1875 12.8889H14.25V12.1667H12V10H18V12.1667H15.75V12.8889H20.85C21.6 12.8889 22.35 13.6111 22.5 14.3333L22.875 19.3889H10.125L10.5375 14.3333C10.5375 13.6111 11.2875 12.8889 12.1875 12.8889ZM17.25 14.3333V15.7778H21V14.3333H17.25ZM12 14.3333V15.0556H13.5V14.3333H12ZM14.25 14.3333V15.0556H15.75V14.3333H14.25ZM12 15.7778V16.5H13.5V15.7778H12ZM14.25 15.7778V16.5H15.75V15.7778H14.25ZM12 17.2222V17.9444H13.5V17.2222H12ZM14.25 17.2222V17.9444H15.75V17.2222H14.25ZM12.75 10.7222V11.4444H17.25V10.7222H12.75Z" fill="white"/>
</svg>
