<svg width="19" height="22" viewBox="0 0 19 22" fill="none" xmlns="http://www.w3.org/2000/svg">
<path d="M18.0399 11.3273C17.8806 8.95443 16.9992 6.74859 15.5234 5.0591C14.1007 3.42977 12.2698 2.44561 10.3007 2.23545C10.5051 1.99843 10.6314 1.67131 10.6314 1.31003C10.6314 0.586566 10.1249 0 9.5 0C8.87512 0 8.36861 0.586566 8.36861 1.31003C8.36861 1.67131 8.49493 1.99843 8.69925 2.23545C6.73023 2.44557 4.89929 3.42972 3.47663 5.0591C2.00083 6.74859 1.11948 8.95443 0.960094 11.3273H0V12.6742H1.93878V13.6166L4.59102 15.1472L11.1499 16.324L11.1724 16.3276C11.1747 16.3276 11.4007 16.3649 11.6163 16.5036C11.9374 16.711 11.9785 16.9782 11.9785 17.1883V17.4923H11.2875V22H17.8724V17.4922H16.984V13.9696L15.8479 12.6743H19V11.3273H18.0399V11.3273ZM6.09202 4.77357L6.56936 6.00196C4.52938 7.06471 4.05205 9.35494 4.04741 9.37784L2.91401 9.07479C2.93802 8.95443 3.53166 6.10745 6.09202 4.77357ZM13.2686 20.2557H12.4931V19.3578H13.2686V20.2557ZM15.8208 17.4922H13.1418V17.1883C13.1418 15.6523 11.956 15.0812 11.3178 14.991L4.94776 13.8483L3.10205 12.7833V12.6742H14.1899L15.8208 14.5334V17.4922H15.8208Z" fill="white"/>
</svg>
