<svg width="27" height="27" viewBox="0 0 27 27" fill="none" xmlns="http://www.w3.org/2000/svg">
<path fill-rule="evenodd" clip-rule="evenodd" d="M7.59375 5.67956C7.59375 4.37288 13.5 3.375 13.5 3.375C13.5 3.375 19.4062 4.37288 19.4062 5.67956C19.4062 7.42163 18.3319 8.15625 18.3319 8.15625H8.66813C8.66813 8.15625 7.59375 7.42163 7.59375 5.67956ZM14.3438 5.90625C14.3438 6.13003 14.2549 6.34464 14.0966 6.50287C13.9384 6.66111 13.7238 6.75 13.5 6.75C13.2762 6.75 13.0616 6.66111 12.9034 6.50287C12.7451 6.34464 12.6562 6.13003 12.6562 5.90625C12.6562 5.68247 12.7451 5.46786 12.9034 5.30963C13.0616 5.15139 13.2762 5.0625 13.5 5.0625C13.7238 5.0625 13.9384 5.15139 14.0966 5.30963C14.2549 5.46786 14.3438 5.68247 14.3438 5.90625ZM17.8954 10.2825C18.6772 9.67219 18.5557 9 18.5557 9H8.44425C8.44425 9 8.32219 9.67219 9.10463 10.2825C8.96059 10.9397 8.96573 11.6208 9.11968 12.2757C9.27363 12.9306 9.57246 13.5426 9.99418 14.0668C10.4159 14.591 10.9498 15.0139 11.5566 15.3045C12.1633 15.5951 12.8275 15.7459 13.5003 15.7459C14.173 15.7459 14.8372 15.5951 15.444 15.3045C16.0508 15.0139 16.5847 14.591 17.0064 14.0668C17.4281 13.5426 17.7269 12.9306 17.8809 12.2757C18.0348 11.6208 18.04 10.9397 17.8959 10.2825H17.8954ZM13.5 11.25C15.0306 11.25 16.1004 11.0734 16.848 10.8191C16.9088 11.2946 16.8677 11.7776 16.7272 12.236C16.5868 12.6943 16.3504 13.1175 16.0337 13.4773C15.7169 13.8372 15.3272 14.1254 14.8904 14.3228C14.4535 14.5203 13.9797 14.6224 13.5003 14.6224C13.0209 14.6224 12.547 14.5203 12.1102 14.3228C11.6734 14.1254 11.2836 13.8372 10.9669 13.4773C10.6502 13.1175 10.4137 12.6943 10.2733 12.236C10.1329 11.7776 10.0917 11.2946 10.1526 10.8191C10.8996 11.0734 11.9694 11.25 13.5 11.25ZM14.3438 16.875C14.4929 16.875 14.636 16.9343 14.7415 17.0398C14.847 17.1452 14.9062 17.2883 14.9062 17.4375V18.2149C14.9062 18.3193 14.8771 18.4217 14.8221 18.5105C14.7672 18.5993 14.6886 18.6711 14.5952 18.7178L14.3438 18.8438L14.6683 20.4666L17.0533 16.8891C17.2164 16.8891 17.3683 16.8902 17.5056 16.8913C20.5459 17.5849 23.625 18.999 23.625 21.1264V23.625H3.375V21.1264C3.375 18.999 6.58856 17.5686 9.62887 16.875C9.61819 16.8772 9.73238 16.8789 9.94106 16.8806L12.3508 20.4947L12.6562 18.8438L12.4048 18.7178C12.3114 18.6711 12.2328 18.5993 12.1779 18.5105C12.1229 18.4217 12.0938 18.3193 12.0938 18.2149V17.4375C12.0938 17.2883 12.153 17.1452 12.2585 17.0398C12.364 16.9343 12.5071 16.875 12.6562 16.875H14.3438ZM19.6875 19.8748C19.6875 19.8748 18.9377 19.5002 18.5625 19.125C18.1873 19.5002 17.4375 19.8748 17.4375 19.8748C17.4375 19.8748 17.8301 21.375 18.5625 21.375C19.2949 21.375 19.6875 19.8748 19.6875 19.8748Z" fill="#32B38C"/>
</svg>
