<svg width="24" height="32" viewBox="0 0 24 32" fill="none" xmlns="http://www.w3.org/2000/svg">
<path d="M16.6768 3.52128L13.679 3.06505L12.3389 0.220085C12.3023 0.142191 12.2421 0.0791345 12.1677 0.0408059C11.9811 -0.0556336 11.7544 0.0247327 11.6612 0.220085L10.3211 3.06505L7.32326 3.52128C7.24061 3.53365 7.16504 3.57445 7.10719 3.63627C7.03725 3.71155 6.9987 3.81283 7.00003 3.91785C7.00136 4.02287 7.04245 4.12305 7.11427 4.19636L9.28323 6.41076L8.7708 9.53763C8.75878 9.61037 8.76647 9.68517 8.79299 9.75357C8.81951 9.82197 8.86379 9.88121 8.92083 9.92459C8.97787 9.96797 9.04537 9.99375 9.11568 9.999C9.186 10.0042 9.25631 9.98876 9.31865 9.9543L12 8.47803L14.6814 9.9543C14.7546 9.9951 14.8396 10.0087 14.9211 9.99386C15.1265 9.95677 15.2647 9.75276 15.2292 9.53763L14.7168 6.41076L16.8858 4.19636C16.9448 4.13578 16.9838 4.05665 16.9956 3.9701C17.0275 3.75373 16.8834 3.55343 16.6768 3.52128Z" fill="#32B38C"/>
<path d="M6.77375 8.4649L4.67529 8.14554L3.73722 6.15406C3.7116 6.09953 3.66945 6.05539 3.61738 6.02856C3.48679 5.96106 3.32811 6.01731 3.26281 6.15406L2.32474 8.14554L0.226281 8.4649C0.168426 8.47355 0.115531 8.50211 0.0750326 8.54539C0.0260726 8.59809 -0.000906586 8.66898 2.32624e-05 8.7425C0.000953111 8.81601 0.0297159 8.88613 0.0799915 8.93745L1.59826 10.4875L1.23956 12.6763C1.23115 12.7273 1.23653 12.7796 1.25509 12.8275C1.27365 12.8754 1.30466 12.9168 1.34458 12.9472C1.38451 12.9776 1.43176 12.9956 1.48098 12.9993C1.5302 13.003 1.57942 12.9921 1.62305 12.968L3.50002 11.9346L5.37698 12.968C5.42822 12.9966 5.48773 13.0061 5.54476 12.9957C5.68857 12.9697 5.78527 12.8269 5.76047 12.6763L5.40178 10.4875L6.92004 8.93745C6.96137 8.89504 6.98864 8.83965 6.99691 8.77907C7.01922 8.62761 6.91839 8.4874 6.77375 8.4649Z" fill="#32B38C"/>
<path d="M23.7738 8.4649L21.6753 8.14554L20.7372 6.15406C20.7116 6.09953 20.6694 6.05539 20.6174 6.02856C20.4868 5.96106 20.3281 6.01731 20.2628 6.15406L19.3247 8.14554L17.2263 8.4649C17.1684 8.47355 17.1155 8.50211 17.075 8.54539C17.0261 8.59809 16.9991 8.66898 17 8.7425C17.001 8.81601 17.0297 8.88613 17.08 8.93745L18.5983 10.4875L18.2396 12.6763C18.2311 12.7273 18.2365 12.7796 18.2551 12.8275C18.2737 12.8754 18.3047 12.9168 18.3446 12.9472C18.3845 12.9776 18.4318 12.9956 18.481 12.9993C18.5302 13.003 18.5794 12.9921 18.6231 12.968L20.5 11.9346L22.377 12.968C22.4282 12.9966 22.4877 13.0061 22.5448 12.9957C22.6886 12.9697 22.7853 12.8269 22.7605 12.6763L22.4018 10.4875L23.92 8.93745C23.9614 8.89504 23.9886 8.83965 23.9969 8.77907C24.0192 8.62761 23.9184 8.4874 23.7738 8.4649Z" fill="#32B38C"/>
<path fill-rule="evenodd" clip-rule="evenodd" d="M7.625 16.2071C7.625 15.2392 12 14.5 12 14.5C12 14.5 16.375 15.2392 16.375 16.2071C16.375 17.4975 15.5792 18.0417 15.5792 18.0417H8.42083C8.42083 18.0417 7.625 17.4975 7.625 16.2071ZM12.625 16.375C12.625 16.5408 12.5592 16.6997 12.4419 16.8169C12.3247 16.9342 12.1658 17 12 17C11.8342 17 11.6753 16.9342 11.5581 16.8169C11.4408 16.6997 11.375 16.5408 11.375 16.375C11.375 16.2092 11.4408 16.0503 11.5581 15.9331C11.6753 15.8158 11.8342 15.75 12 15.75C12.1658 15.75 12.3247 15.8158 12.4419 15.9331C12.5592 16.0503 12.625 16.2092 12.625 16.375ZM15.2558 19.6167C15.835 19.1646 15.745 18.6667 15.745 18.6667H8.255C8.255 18.6667 8.16458 19.1646 8.74417 19.6167C8.63747 20.1035 8.64128 20.608 8.75532 21.0931C8.86935 21.5782 9.09071 22.0316 9.4031 22.4199C9.71549 22.8081 10.111 23.1214 10.5604 23.3367C11.0099 23.5519 11.5019 23.6637 12.0002 23.6637C12.4985 23.6637 12.9905 23.5519 13.44 23.3367C13.8895 23.1214 14.2849 22.8081 14.5973 22.4199C14.9097 22.0316 15.1311 21.5782 15.2451 21.0931C15.3591 20.608 15.3629 20.1035 15.2563 19.6167H15.2558ZM12 20.3333C13.1337 20.3333 13.9262 20.2025 14.48 20.0142C14.5251 20.3664 14.4946 20.7242 14.3906 21.0637C14.2865 21.4032 14.1114 21.7167 13.8768 21.9832C13.6422 22.2497 13.3535 22.4632 13.0299 22.6095C12.7063 22.7557 12.3553 22.8314 12.0002 22.8314C11.6451 22.8314 11.2941 22.7557 10.9705 22.6095C10.647 22.4632 10.3582 22.2497 10.1236 21.9832C9.88902 21.7167 9.71387 21.4032 9.60986 21.0637C9.50585 20.7242 9.47536 20.3664 9.52042 20.0142C10.0737 20.2025 10.8663 20.3333 12 20.3333ZM12.625 24.5C12.7355 24.5 12.8415 24.5439 12.9196 24.622C12.9978 24.7002 13.0417 24.8062 13.0417 24.9167V25.4925C13.0416 25.5699 13.02 25.6457 12.9794 25.7115C12.9387 25.7773 12.8805 25.8304 12.8112 25.865L12.625 25.9583L12.8654 27.1604L14.6321 24.5104C14.7529 24.5104 14.8654 24.5112 14.9671 24.5121C17.2192 25.0258 19.5 26.0733 19.5 27.6492V29.5H4.5V27.6492C4.5 26.0733 6.88042 25.0138 9.1325 24.5C9.12458 24.5017 9.20917 24.5029 9.36375 24.5042L11.1488 27.1813L11.375 25.9583L11.1887 25.865C11.1195 25.8304 11.0613 25.7773 11.0206 25.7115C10.98 25.6457 10.9584 25.5699 10.9583 25.4925V24.9167C10.9583 24.8062 11.0022 24.7002 11.0804 24.622C11.1585 24.5439 11.2645 24.5 11.375 24.5H12.625ZM16.5833 26.7221C16.5833 26.7221 16.0279 26.4446 15.75 26.1667C15.4721 26.4446 14.9167 26.7221 14.9167 26.7221C14.9167 26.7221 15.2075 27.8333 15.75 27.8333C16.2925 27.8333 16.5833 26.7221 16.5833 26.7221Z" fill="#32B38C"/>
</svg>
