<svg width="26" height="22" viewBox="0 0 26 22" fill="none" xmlns="http://www.w3.org/2000/svg">
<path d="M5.69222 5.90625L6.57111 0H2L0.09 5.0625C0.0311111 5.2425 0 5.42925 0 5.625C0 6.867 1.27778 7.875 2.85667 7.875C4.31222 7.875 5.51556 7.0155 5.69222 5.90625ZM10 7.875C11.5778 7.875 12.8567 6.867 12.8567 5.625C12.8567 5.57888 12.8533 5.53275 12.8511 5.48888L12.2856 0H7.71444L7.14778 5.48438C7.14515 5.53121 7.14367 5.57809 7.14333 5.625C7.14333 6.867 8.42222 7.875 10 7.875ZM15.5556 9.05175V13.5H4.44444V9.0585C3.95778 9.23625 3.42222 9.3375 2.85667 9.3375C2.64 9.3375 2.43 9.31163 2.22222 9.28238V16.425C2.22222 17.2913 2.92111 18 3.77556 18H16.2222C17.0778 18 17.7778 17.2901 17.7778 16.425V9.2835C17.5677 9.31615 17.3558 9.33457 17.1433 9.33862C16.6016 9.33807 16.0641 9.24096 15.5556 9.05175ZM19.9111 5.0625L17.9989 0H13.4289L14.3067 5.89725C14.4778 7.011 15.6811 7.875 17.1433 7.875C18.7211 7.875 20 6.867 20 5.625C20 5.42925 19.9689 5.2425 19.9111 5.0625Z" fill="#32B38C"/>
<path d="M10 18.1111H25V21H10V18.1111ZM13.1875 10.8889H15.25V10.1667H13V8H19V10.1667H16.75V10.8889H21.85C22.6 10.8889 23.35 11.6111 23.5 12.3333L23.875 17.3889H11.125L11.5375 12.3333C11.5375 11.6111 12.2875 10.8889 13.1875 10.8889ZM18.25 12.3333V13.7778H22V12.3333H18.25ZM13 12.3333V13.0556H14.5V12.3333H13ZM15.25 12.3333V13.0556H16.75V12.3333H15.25ZM13.75 8.72222V9.44444H18.25V8.72222H13.75Z" fill="white"/>
<path d="M11 19.1111H26V22H11V19.1111ZM14.1875 11.8889H16.25V11.1667H14V9H20V11.1667H17.75V11.8889H22.85C23.6 11.8889 24.35 12.6111 24.5 13.3333L24.875 18.3889H12.125L12.5375 13.3333C12.5375 12.6111 13.2875 11.8889 14.1875 11.8889ZM19.25 13.3333V14.7778H23V13.3333H19.25ZM14 13.3333V14.0556H15.5V13.3333H14ZM16.25 13.3333V14.0556H17.75V13.3333H16.25ZM14 14.7778V15.5H15.5V14.7778H14ZM16.25 14.7778V15.5H17.75V14.7778H16.25ZM14 16.2222V16.9444H15.5V16.2222H14ZM16.25 16.2222V16.9444H17.75V16.2222H16.25ZM14.75 9.72222V10.4444H19.25V9.72222H14.75Z" fill="#32B38C"/>
</svg>
