<svg width="24" height="14" viewBox="0 0 24 14" fill="none" xmlns="http://www.w3.org/2000/svg">
<path d="M19.1425 0C19.0758 0 19.0096 0.00149661 18.9437 0.00411588V0.000748309H5.19662V8.6986C5.19662 9.32334 5.4551 9.9225 5.91521 10.3643C6.37532 10.8061 6.99938 11.0543 7.65013 11.0544H16.4894C17.1402 11.0542 17.7642 10.806 18.2243 10.3642C18.6845 9.92245 18.9431 9.32335 18.9433 8.6986V8.07895C19.0088 8.08157 19.075 8.08382 19.1417 8.08382C21.5578 8.08382 23.5163 6.33826 23.5163 4.01946C23.5167 1.70028 21.5582 0 19.1425 0ZM19.1425 6.48307C19.0758 6.48307 19.0096 6.4797 18.9437 6.47521V1.59027C19.0088 1.58653 19.0758 1.58354 19.1425 1.58354C20.6064 1.58354 21.7932 2.61403 21.7932 4.01983C21.7932 5.42563 20.6068 6.48307 19.1425 6.48307ZM23.9996 11.5626V11.6442C23.9995 12.2689 23.741 12.868 23.2809 13.3097C22.8208 13.7515 22.1968 13.9998 21.5461 14H2.45351C1.80277 13.9999 1.17871 13.7517 0.718594 13.3099C0.258482 12.8681 -8.20831e-09 12.2689 0 11.6442V11.5626H24H23.9996Z" fill="#32B38C"/>
</svg>
