<svg width="17" height="24" viewBox="0 0 17 24" fill="none" xmlns="http://www.w3.org/2000/svg">
<path fill-rule="evenodd" clip-rule="evenodd" d="M6.88137 12.3537L0.759161 0.83833C0.723989 0.772181 0.70219 0.699752 0.695009 0.625178C0.687829 0.550604 0.695407 0.475346 0.717311 0.403701C0.761548 0.259007 0.861453 0.137813 0.995047 0.066779C1.12864 -0.00425453 1.28498 -0.0193085 1.42968 0.0249288C1.50132 0.0468329 1.56795 0.082634 1.62576 0.130288C1.68357 0.177942 1.73143 0.236516 1.7666 0.302666L7.88938 11.818L8.75762 11.356C9.02225 11.2153 9.312 11.1281 9.61032 11.0994C9.90865 11.0707 10.2097 11.1011 10.4963 11.1887C10.7829 11.2764 11.0494 11.4197 11.2806 11.6104C11.5118 11.8011 11.7032 12.0354 11.8438 12.3001L12.2135 12.9955L16.1326 18.7309L11.1479 21.3807L9.42107 17.9676L8.40337 18.4828L10.1404 21.9169L8.00347 23.0527L5.43924 16.5962L5.07015 15.9014C4.92944 15.6368 4.84223 15.3471 4.8135 15.0488C4.78477 14.7505 4.81508 14.4495 4.9027 14.1629C4.99031 13.8763 5.13353 13.6098 5.32415 13.3785C5.51478 13.1473 5.74909 12.9559 6.0137 12.8152L6.88194 12.3537H6.88137ZM9.29272 12.364L6.54879 13.8226C6.41649 13.893 6.29933 13.9887 6.20402 14.1043C6.10871 14.2199 6.0371 14.3532 5.99329 14.4965C5.94948 14.6398 5.93433 14.7903 5.94869 14.9394C5.96306 15.0886 6.00666 15.2334 6.07702 15.3657L6.44611 16.0606L11.2055 13.53L10.8358 12.8357C10.7655 12.7034 10.6698 12.5863 10.5542 12.491C10.4385 12.3957 10.3053 12.324 10.162 12.2802C10.0187 12.2364 9.86817 12.2213 9.71902 12.2356C9.56987 12.25 9.42502 12.2936 9.29272 12.364Z" fill="#32B38C"/>
<path d="M4.43136 17.9198C4.33458 17.8036 4.19561 17.7305 4.04499 17.7167C3.89437 17.7029 3.74443 17.7495 3.62815 17.8462H3.62929L3.62301 17.8508L3.58707 17.8782C3.53602 17.9165 3.4839 17.9534 3.43077 17.9889C3.28929 18.083 3.07822 18.2113 2.80668 18.3403C2.10871 18.6757 1.34485 18.8517 0.570463 18.8554C0.419167 18.8554 0.274067 18.9155 0.167085 19.0225C0.0601023 19.1295 0 19.2746 0 19.4259C0 19.5771 0.0601023 19.7222 0.167085 19.8292C0.274067 19.9362 0.419167 19.9963 0.570463 19.9963C1.51458 19.9927 2.44605 19.7789 3.29728 19.3705C3.5628 19.2448 3.81902 19.1003 4.06398 18.9381C4.15569 18.8768 4.24512 18.8121 4.3321 18.7441L4.34921 18.731L4.35492 18.7265L4.35663 18.7242H4.35777L4.35834 18.723C4.4745 18.6262 4.54744 18.4872 4.56113 18.3366C4.57482 18.1859 4.52814 18.036 4.43136 17.9198ZM5.60879 20.8206C5.65038 20.883 5.67928 20.9529 5.69385 21.0264C5.70841 21.0999 5.70836 21.1755 5.69368 21.249C5.67901 21.3225 5.65 21.3923 5.60833 21.4546C5.56665 21.5169 5.51311 21.5703 5.45078 21.6119L5.44963 21.613L5.44735 21.6141L5.44165 21.6176L5.42396 21.629C5.32519 21.6918 5.22495 21.7523 5.12333 21.8104C4.9231 21.9251 4.63844 22.0774 4.29616 22.2291C3.62301 22.5286 2.68175 22.8486 1.71139 22.8486C1.56009 22.8486 1.41499 22.7885 1.30801 22.6815C1.20103 22.5746 1.14093 22.4295 1.14093 22.2782C1.14093 22.1269 1.20103 21.9818 1.30801 21.8748C1.41499 21.7678 1.56009 21.7077 1.71139 21.7077C2.45185 21.7077 3.22312 21.4573 3.83294 21.1863C4.15065 21.0445 4.45895 20.8826 4.75595 20.7014C4.77259 20.6916 4.78895 20.6813 4.80501 20.6706L4.81642 20.6638L4.81756 20.6626C4.87989 20.621 4.94979 20.5921 5.02329 20.5776C5.09679 20.563 5.17243 20.5631 5.24591 20.5777C5.31939 20.5924 5.38925 20.6214 5.45151 20.6631C5.51378 20.7048 5.56722 20.7583 5.60879 20.8206Z" fill="#32B38C"/>
</svg>
