<svg width="22" height="23" viewBox="0 0 22 23" fill="none" xmlns="http://www.w3.org/2000/svg">
<path d="M14.25 15.1111H16.15V7.55556H10.45V15.1111H12.35V9.44444H14.25V15.1111ZM0.95 15.1111V0.944444C0.95 0.693962 1.05009 0.453739 1.22825 0.276621C1.40641 0.0995036 1.64804 0 1.9 0H15.2C15.452 0 15.6936 0.0995036 15.8718 0.276621C16.0499 0.453739 16.15 0.693962 16.15 0.944444V5.66667H18.05V15.1111H19V17H0V15.1111H0.95ZM4.75 7.55556V9.44444H6.65V7.55556H4.75ZM4.75 11.3333V13.2222H6.65V11.3333H4.75ZM4.75 3.77778V5.66667H6.65V3.77778H4.75Z" fill="#32B38C"/>
<path d="M17 10C18.0891 10 19.5 9.09125 19.5 8C19.5 6.90875 18.0891 5 17 5C15.9109 5 15.0351 5.8775 15.0351 6.96875C15.0351 8.06 15.9109 10 17 10ZM19.2456 18.5V21.875C19.2456 22.4937 18.7403 23 18.1228 23H15.8772C15.2597 23 14.7544 22.4937 14.7544 21.875V18.5H14.1256C13.3397 18.5 12.8008 17.7125 13.0702 16.9812L15.1811 11.3225C15.3213 10.9529 15.6751 10.2245 16 10C16.3249 9.77547 16.6053 10 17 10C17.3947 10 18.1751 9.77547 18.5 10C18.8249 10.2245 18.6787 10.9529 18.8189 11.3225L20.9298 16.9812C21.1992 17.7125 20.6603 18.5 19.8744 18.5H19.2456Z" fill="white"/>
<rect x="16" y="9" width="3" height="1" fill="white"/>
<path d="M17.5625 9.5C18.5325 9.5 19.3125 8.72 19.3125 7.75C19.3125 6.78 18.5325 6 17.5625 6C16.5925 6 15.8125 6.78 15.8125 7.75C15.8125 8.72 16.5925 9.5 17.5625 9.5ZM19.5625 18V21C19.5625 21.55 19.1125 22 18.5625 22H16.5625C16.0125 22 15.5625 21.55 15.5625 21V18H15.0025C14.3025 18 13.8225 17.3 14.0625 16.65L15.9425 11.62C16.0674 11.2914 16.2892 11.0086 16.5785 10.809C16.8679 10.6094 17.211 10.5025 17.5625 10.5025C17.914 10.5025 18.2572 10.6094 18.5466 10.809C18.8359 11.0086 19.0577 11.2914 19.1825 11.62L21.0625 16.65C21.3025 17.3 20.8225 18 20.1225 18H19.5625Z" fill="#32B38C"/>
</svg>
