<svg width="18" height="22" viewBox="0 0 18 22" fill="none" xmlns="http://www.w3.org/2000/svg">
<path d="M8.54527 4.31515C9.73687 4.31515 10.7028 3.34917 10.7028 2.15758C10.7028 0.96598 9.73687 0 8.54527 0C7.35367 0 6.3877 0.96598 6.3877 2.15758C6.3877 3.34917 7.35367 4.31515 8.54527 4.31515Z" fill="#32B38C"/>
<path d="M12.7414 6.59139C12.3207 6.17067 11.5979 5.39394 10.1955 5.39394H7.45538C6.18649 5.38723 4.96019 4.93543 3.99026 4.11729C3.02032 3.29915 2.36826 2.16657 2.14774 0.91697C2.1097 0.66322 1.98228 0.431401 1.78845 0.26328C1.59461 0.0951594 1.34711 0.00179165 1.09053 0C0.43247 0 -0.0853484 0.582546 0.0117425 1.22982C0.24668 2.62561 0.867166 3.92793 1.80314 4.98972C2.73912 6.05151 3.9533 6.83047 5.30859 7.23867V20.497C5.30859 21.0903 5.79405 21.5758 6.38738 21.5758C6.98071 21.5758 7.46617 21.0903 7.46617 20.497V15.103H9.62374V20.497C9.62374 21.0903 10.1092 21.5758 10.7025 21.5758C11.2959 21.5758 11.7813 21.0903 11.7813 20.497V8.68424L15.2766 12.1795C15.3765 12.2794 15.495 12.3586 15.6255 12.4127C15.756 12.4667 15.8959 12.4945 16.0371 12.4945C16.1784 12.4945 16.3182 12.4667 16.4487 12.4127C16.5792 12.3586 16.6978 12.2794 16.7977 12.1795C16.8976 12.0796 16.9768 11.9611 17.0308 11.8306C17.0849 11.7001 17.1127 11.5602 17.1127 11.419C17.1127 11.2777 17.0849 11.1379 17.0308 11.0074C16.9768 10.8769 16.8976 10.7583 16.7977 10.6584L12.7414 6.59139Z" fill="#32B38C"/>
</svg>
