<svg width="19" height="19" viewBox="0 0 19 19" fill="none" xmlns="http://www.w3.org/2000/svg">
<path d="M7.91634 13.0623L10.2913 13.854C10.2913 13.854 16.2288 12.6665 17.0205 12.6665C17.8122 12.6665 17.8122 13.4582 17.0205 14.2498C16.2288 15.0415 13.458 17.4165 11.083 17.4165C8.70801 17.4165 7.12467 16.229 5.54134 16.229H1.58301" stroke="white" stroke-width="1.6" stroke-linecap="round" stroke-linejoin="round"/>
<path d="M6.33301 7.12484V3.95817C6.33301 3.74821 6.41642 3.54684 6.56488 3.39838C6.71335 3.24991 6.91471 3.1665 7.12468 3.1665H16.6247C16.8346 3.1665 17.036 3.24991 17.1845 3.39838C17.3329 3.54684 17.4163 3.74821 17.4163 3.95817V10.2915M1.58301 11.479C2.37467 10.6873 3.95801 9.49984 5.54134 9.49984C7.12468 9.49984 10.8851 11.0832 11.4788 11.8748C12.0726 12.6665 10.2913 13.854 10.2913 13.854L1.58301 11.479Z" stroke="white" stroke-width="1.6" stroke-linecap="round" stroke-linejoin="round"/>
<path d="M9.89551 3.1665H13.8538V6.729H9.89551V3.1665Z" stroke="white" stroke-width="1.6" stroke-linecap="round" stroke-linejoin="round"/>
</svg>
