<svg width="19" height="21" viewBox="0 0 19 21" fill="none" xmlns="http://www.w3.org/2000/svg">
<path d="M2.10005 21H16.8004C17.3574 21 17.8915 20.7787 18.2853 20.3849C18.6792 19.9911 18.9004 19.4569 18.9004 18.9V7.34969C18.9004 7.0712 18.7898 6.80412 18.5929 6.60721C18.396 6.41029 18.1289 6.29966 17.8504 6.29966H14.7003V5.48379C14.7003 2.74428 12.7021 0.291423 9.97523 0.0257665C9.24533 -0.0467774 8.50833 0.0342726 7.81164 0.263702C7.11495 0.493132 6.474 0.865859 5.93003 1.35791C5.38606 1.84995 4.95111 2.45042 4.65317 3.12068C4.35523 3.79094 4.2009 4.51614 4.2001 5.24964V6.29966H1.05002C0.771541 6.29966 0.504463 6.41029 0.307545 6.60721C0.110627 6.80412 0 7.0712 0 7.34969V18.9C0 19.4569 0.221254 19.9911 0.61509 20.3849C1.00893 20.7787 1.54308 21 2.10005 21ZM14.7003 8.39971V10.4998H12.6003V8.39971H14.7003ZM6.30015 5.24964C6.30015 3.5129 7.71348 2.09956 9.45022 2.09956C11.187 2.09956 12.6003 3.5129 12.6003 5.24964V6.29966H6.30015V5.24964ZM4.2001 8.39971H6.30015V10.4998H4.2001V8.39971Z" fill="#32B38C"/>
</svg>
