<svg width="23" height="24" viewBox="0 0 23 24" fill="none" xmlns="http://www.w3.org/2000/svg">
<path d="M1.41667 17C1.41667 17 0 17 0 15.5833C0 14.1667 1.41667 9.91667 7.08333 9.91667C12.75 9.91667 14.1667 14.1667 14.1667 15.5833C14.1667 17 12.75 17 12.75 17H1.41667ZM7.08333 8.5C8.2105 8.5 9.29151 8.05223 10.0885 7.2552C10.8856 6.45817 11.3333 5.37717 11.3333 4.25C11.3333 3.12283 10.8856 2.04183 10.0885 1.2448C9.29151 0.447767 8.2105 0 7.08333 0C5.95616 0 4.87516 0.447767 4.07813 1.2448C3.2811 2.04183 2.83333 3.12283 2.83333 4.25C2.83333 5.37717 3.2811 6.45817 4.07813 7.2552C4.87516 8.05223 5.95616 8.5 7.08333 8.5Z" fill="#32B38C"/>
<path d="M21.2926 16.238C21.1751 14.5123 20.5257 12.9081 19.4383 11.6793C18.39 10.4944 17.0409 9.77863 15.59 9.62578C15.7406 9.45341 15.8337 9.2155 15.8337 8.95275C15.8337 8.42659 15.4604 8 15 8C14.5396 8 14.1663 8.42659 14.1663 8.95275C14.1663 9.2155 14.2594 9.45341 14.41 9.62578C12.9591 9.77859 11.61 10.4943 10.5617 11.6793C9.47429 12.9081 8.82488 14.5123 8.70744 16.238H8V17.2176H9.42857V17.903L11.3829 19.0162L16.2157 19.872L16.2323 19.8746C16.234 19.8746 16.4005 19.9017 16.5594 20.0026C16.796 20.1535 16.8263 20.3478 16.8263 20.5006V20.7217H16.3171V24H21.1691V20.7216H20.5146V18.1597L19.6774 17.2177H22V16.2381H21.2926V16.238ZM12.4889 11.4717L12.8406 12.3651C11.3374 13.138 10.9857 14.8036 10.9823 14.8203L10.1472 14.5998C10.1649 14.5123 10.6023 12.4418 12.4889 11.4717ZM17.7769 22.7314H17.2054V22.0784H17.7769V22.7314ZM19.6574 20.7216H17.6834V20.5006C17.6834 19.3835 16.8097 18.9682 16.3394 18.9025L11.6457 18.0715L10.2857 17.297V17.2176H18.4557L19.6574 18.5698V20.7216H19.6574Z" fill="white"/>
<path d="M22.2926 16.238C22.1751 14.5123 21.5257 12.9081 20.4383 11.6793C19.39 10.4944 18.0409 9.77863 16.59 9.62578C16.7406 9.45341 16.8337 9.2155 16.8337 8.95275C16.8337 8.42659 16.4604 8 16 8C15.5396 8 15.1663 8.42659 15.1663 8.95275C15.1663 9.2155 15.2594 9.45341 15.41 9.62578C13.9591 9.77859 12.61 10.4943 11.5617 11.6793C10.4743 12.9081 9.82488 14.5123 9.70744 16.238H9V17.2176H10.4286V17.903L12.3829 19.0162L17.2157 19.872L17.2323 19.8746C17.234 19.8746 17.4005 19.9017 17.5594 20.0026C17.796 20.1535 17.8263 20.3478 17.8263 20.5006V20.7217H17.3171V24H22.1691V20.7216H21.5146V18.1597L20.6774 17.2177H23V16.2381H22.2926V16.238ZM13.4889 11.4717L13.8406 12.3651C12.3374 13.138 11.9857 14.8036 11.9823 14.8203L11.1472 14.5998C11.1649 14.5123 11.6023 12.4418 13.4889 11.4717ZM18.7769 22.7314H18.2054V22.0784H18.7769V22.7314ZM20.6574 20.7216H18.6834V20.5006C18.6834 19.3835 17.8097 18.9682 17.3394 18.9025L12.6457 18.0715L11.2857 17.297V17.2176H19.4557L20.6574 18.5698V20.7216H20.6574Z" fill="#32B38C"/>
</svg>
