<svg width="17" height="22" viewBox="0 0 17 22" fill="none" xmlns="http://www.w3.org/2000/svg">
<path d="M1.85645 7.37901C2.20001 10.2984 4.84918 12.8574 8.06961 12.8574C11.5236 12.8574 14.3231 9.91524 14.3231 6.74028C14.3231 6.71314 14.3213 6.68674 14.3209 6.66071C10.7576 6.17708 6.21795 8.76611 1.85645 7.37901Z" fill="#32B38C"/>
<path d="M16.1333 6.76317C16.1333 2.58207 14.0404 0.000733333 14.04 0H2.09293C2.09293 0 0 2.58573 0 6.76317C0 10.7334 3.39387 14.4214 7.6615 14.6425C7.61163 16.9481 7.41547 19.349 6.8508 20.1806C6.0555 21.3525 3.2681 20.7504 3.2681 22H12.8663C12.8663 20.75 10.0778 21.3525 9.28253 20.1806C8.71787 19.349 8.5217 16.9484 8.47183 14.6425C12.7384 14.4217 16.1333 10.7334 16.1333 6.76317ZM8.06667 13.6598C4.47553 13.6598 1.52167 10.8068 1.13887 7.55187C1.11013 7.31571 1.09532 7.07807 1.0945 6.84017C1.0945 3.2285 2.90327 0.994033 2.90327 0.994033H13.2297C13.2301 0.995133 15.0066 3.19 15.0363 6.75143C15.0366 6.78077 15.0388 6.80973 15.0388 6.84017C15.0388 10.3796 11.9174 13.6598 8.06667 13.6598Z" fill="#32B38C"/>
</svg>
