<svg width="20" height="22" viewBox="0 0 20 22" fill="none" xmlns="http://www.w3.org/2000/svg">
<path fill-rule="evenodd" clip-rule="evenodd" d="M4.10744 2.13859C4.10744 1.87096 6.86684 0 9.60668 0C12.3465 0 15.1059 1.87157 15.1059 2.13859C15.1059 3.09179 15.0045 3.65638 14.9189 3.96373C14.8621 4.16536 14.6733 4.27718 14.4637 4.27718H4.74963C4.54005 4.27718 4.35124 4.16536 4.29442 3.96373C4.20887 3.65638 4.10744 3.09179 4.10744 2.13859ZM8.69014 1.83308C8.52808 1.83308 8.37267 1.89745 8.25808 2.01204C8.14349 2.12663 8.07911 2.28205 8.07911 2.4441C8.07911 2.60616 8.14349 2.76158 8.25808 2.87616C8.37267 2.99075 8.52808 3.05513 8.69014 3.05513H10.5232C10.6853 3.05513 10.8407 2.99075 10.9553 2.87616C11.0699 2.76158 11.1342 2.60616 11.1342 2.4441C11.1342 2.28205 11.0699 2.12663 10.9553 2.01204C10.8407 1.89745 10.6853 1.83308 10.5232 1.83308H8.69014ZM4.74169 8.07654C2.70697 7.44719 3.22023 6.3229 3.99624 5.49923H15.387C16.0078 6.29235 16.3408 7.36225 14.4643 8.00261C14.541 8.6833 14.4738 9.37252 14.267 10.0256C14.0602 10.6786 13.7185 11.2809 13.264 11.7934C12.8095 12.3059 12.2523 12.7171 11.6286 13.0004C11.005 13.2837 10.3287 13.4328 9.64372 13.438C8.95874 13.4432 8.28032 13.3043 7.65245 13.0304C7.02458 12.7565 6.46128 12.3537 5.99908 11.8482C5.53689 11.3426 5.18611 10.7455 4.96949 10.0957C4.75288 9.44583 4.67527 8.75771 4.74169 8.07593V8.07654ZM9.44048 8.55437C11.0548 8.55437 12.3062 8.46882 13.2655 8.31973C13.297 8.81791 13.2265 9.31728 13.0582 9.78724C12.8899 10.2572 12.6275 10.6878 12.2869 11.0528C11.9463 11.4177 11.5348 11.7092 11.0775 11.9095C10.6203 12.1098 10.127 12.2146 9.62778 12.2174C9.12861 12.2203 8.63412 12.1212 8.1746 11.9262C7.71508 11.7312 7.30022 11.4445 6.95545 11.0835C6.61068 10.7225 6.34326 10.2949 6.16958 9.82691C5.9959 9.35893 5.91961 8.8604 5.94541 8.36189C6.83934 8.48532 7.98501 8.55437 9.44048 8.55437ZM14.7497 17.4753C14.197 16.6131 13.4362 15.9037 12.5375 15.4125C11.6388 14.9213 10.6309 14.6641 9.60668 14.6646C8.58205 14.664 7.57373 14.9212 6.67462 15.4126C5.77552 15.904 5.01456 16.6138 4.46184 17.4766C4.2567 17.1606 3.94166 16.932 3.57768 16.835L2.39718 16.5191C2.0059 16.4142 1.58898 16.469 1.23811 16.6715C0.887248 16.874 0.631175 17.2075 0.526218 17.5988L0.0520621 19.3695C0.000132241 19.5633 -0.0131176 19.7654 0.0130694 19.9643C0.0392564 20.1632 0.104368 20.355 0.204684 20.5288C0.305 20.7025 0.438557 20.8548 0.597729 20.9769C0.7569 21.099 0.938567 21.1886 1.13236 21.2405L2.31225 21.557C2.51071 21.6105 2.71794 21.6232 2.92146 21.5944C3.12497 21.5656 3.32055 21.496 3.49642 21.3896C3.4969 21.5516 3.56174 21.7069 3.67668 21.8211C3.79161 21.9353 3.94722 21.9993 4.10928 21.9988C4.27133 21.9983 4.42655 21.9334 4.5408 21.8185C4.65505 21.7036 4.71895 21.548 4.71847 21.3859V20.7749C4.71847 20.5421 4.73497 20.313 4.76613 20.0887L7.94591 20.9411C8.09351 21.257 8.32816 21.5243 8.62233 21.7115C8.91649 21.8988 9.25797 21.9983 9.60668 21.9983C9.95539 21.9983 10.2969 21.8988 10.591 21.7115C10.8852 21.5243 11.1198 21.257 11.2674 20.9411L14.4472 20.0887C14.4784 20.313 14.4949 20.5421 14.4949 20.7749V21.3859C14.4941 21.548 14.5577 21.7037 14.6717 21.8189C14.7857 21.934 14.9408 21.9992 15.1029 22C15.2649 22.0008 15.4206 21.9372 15.5358 21.8232C15.651 21.7092 15.7161 21.5541 15.7169 21.392C16.0591 21.5973 16.4819 21.6688 16.898 21.557L18.0786 21.2411C18.2723 21.1892 18.454 21.0996 18.6132 20.9775C18.7724 20.8554 18.9059 20.7031 19.0062 20.5294C19.1065 20.3556 19.1717 20.1638 19.1978 19.9649C19.224 19.766 19.2108 19.5639 19.1588 19.3701L18.6841 17.5994C18.5791 17.2081 18.323 16.8746 17.9722 16.6721C17.6213 16.4696 17.2044 16.4148 16.8131 16.5197L15.6326 16.8356C15.2695 16.9323 14.955 17.16 14.7497 17.4747V17.4753ZM5.08692 18.9094C5.41699 18.1112 5.95249 17.4145 6.63903 16.8902C7.32556 16.366 8.13864 16.0328 8.99565 15.9246V18.4353C8.72182 18.5324 8.47493 18.6931 8.27524 18.9041C8.07555 19.1152 7.92876 19.3706 7.84692 19.6494L5.08692 18.91V18.9094ZM14.1264 18.9094C13.7963 18.1112 13.2608 17.4146 12.5743 16.8903C11.8877 16.3661 11.0747 16.0329 10.2177 15.9246V18.4353C10.7701 18.6308 11.2015 19.083 11.3664 19.6494L14.1264 18.91V18.9094ZM9.60668 20.7749C9.76873 20.7749 9.92415 20.7105 10.0387 20.5959C10.1533 20.4813 10.2177 20.3259 10.2177 20.1639C10.2177 20.0018 10.1533 19.8464 10.0387 19.7318C9.92415 19.6172 9.76873 19.5528 9.60668 19.5528C9.44462 19.5528 9.2892 19.6172 9.17461 19.7318C9.06003 19.8464 8.99565 20.0018 8.99565 20.1639C8.99565 20.3259 9.06003 20.4813 9.17461 20.5959C9.2892 20.7105 9.44462 20.7749 9.60668 20.7749Z" fill="#32B38C"/>
</svg>
