<svg width="29" height="18" viewBox="0 0 29 18" fill="none" xmlns="http://www.w3.org/2000/svg">
<rect x="11.4238" width="5.27273" height="5.27273" rx="1" fill="#32B38C"/>
<rect x="17.5762" width="5.27273" height="5.27273" rx="1" fill="#32B38C"/>
<rect x="23.7275" width="5.27273" height="5.27273" rx="1" fill="#32B38C"/>
<rect x="17.5762" y="6.15137" width="5.27273" height="5.27273" rx="1" fill="#32B38C"/>
<rect x="11.4238" y="6.15137" width="5.27273" height="5.27273" rx="1" fill="#32B38C"/>
<rect x="23.7275" y="6.15137" width="5.27273" height="5.27273" rx="1" fill="#32B38C"/>
<path d="M7.84058 3.51515C8.81127 3.51515 9.59816 2.72826 9.59816 1.75758C9.59816 0.786893 8.81127 0 7.84058 0C6.8699 0 6.08301 0.786893 6.08301 1.75758C6.08301 2.72826 6.8699 3.51515 7.84058 3.51515Z" fill="white"/>
<path d="M11.2582 5.36939C10.9154 5.02667 10.3267 4.39394 9.18423 4.39394H6.95211C5.91846 4.38847 4.91951 4.02043 4.1294 3.35397C3.33928 2.68751 2.80811 1.7649 2.62847 0.74697C2.59748 0.540264 2.49368 0.351422 2.33579 0.21447C2.17789 0.0775175 1.97627 0.00145949 1.76726 0C1.2312 0 0.809381 0.474546 0.888472 1.00182C1.07985 2.13884 1.58531 3.19972 2.34776 4.06466C3.11021 4.9296 4.09929 5.56415 5.20332 5.89667V16.697C5.20332 17.1803 5.59877 17.5758 6.08211 17.5758C6.56544 17.5758 6.9609 17.1803 6.9609 16.697V12.303H8.71847V16.697C8.71847 17.1803 9.11393 17.5758 9.59726 17.5758C10.0806 17.5758 10.476 17.1803 10.476 16.697V7.07424L13.3233 9.92152C13.4047 10.0029 13.5013 10.0674 13.6076 10.1114C13.7139 10.1555 13.8278 10.1781 13.9429 10.1781C14.0579 10.1781 14.1719 10.1555 14.2782 10.1114C14.3845 10.0674 14.4811 10.0029 14.5624 9.92152C14.6438 9.84016 14.7083 9.74357 14.7523 9.63727C14.7964 9.53096 14.819 9.41703 14.819 9.30197C14.819 9.18691 14.7964 9.07298 14.7523 8.96667C14.7083 8.86037 14.6438 8.76378 14.5624 8.68242L11.2582 5.36939Z" fill="white"/>
<path d="M6.96168 3.51515C7.93236 3.51515 8.71925 2.72826 8.71925 1.75758C8.71925 0.786893 7.93236 0 6.96168 0C5.99099 0 5.2041 0.786893 5.2041 1.75758C5.2041 2.72826 5.99099 3.51515 6.96168 3.51515Z" fill="#32B38C"/>
<path d="M10.3793 5.36939C10.0365 5.02667 9.44775 4.39394 8.30532 4.39394H6.0732C5.03956 4.38847 4.04061 4.02043 3.25049 3.35397C2.46037 2.68751 1.9292 1.7649 1.74957 0.74697C1.71857 0.540264 1.61478 0.351422 1.45688 0.21447C1.29898 0.0775175 1.09736 0.00145949 0.888353 0C0.352293 0 -0.0695254 0.474546 0.00956556 1.00182C0.200947 2.13884 0.7064 3.19972 1.46885 4.06466C2.2313 4.9296 3.22038 5.56415 4.32441 5.89667V16.697C4.32441 17.1803 4.71987 17.5758 5.2032 17.5758C5.68653 17.5758 6.08199 17.1803 6.08199 16.697V12.303H7.83957V16.697C7.83957 17.1803 8.23502 17.5758 8.71835 17.5758C9.20169 17.5758 9.59714 17.1803 9.59714 16.697V7.07424L12.4444 9.92152C12.5258 10.0029 12.6224 10.0674 12.7287 10.1114C12.835 10.1555 12.9489 10.1781 13.064 10.1781C13.179 10.1781 13.293 10.1555 13.3993 10.1114C13.5056 10.0674 13.6021 10.0029 13.6835 9.92152C13.7649 9.84016 13.8294 9.74357 13.8734 9.63727C13.9175 9.53096 13.9401 9.41703 13.9401 9.30197C13.9401 9.18691 13.9175 9.07298 13.8734 8.96667C13.8294 8.86037 13.7649 8.76378 13.6835 8.68242L10.3793 5.36939Z" fill="#32B38C"/>
<rect x="11.4238" y="12.3032" width="17.5758" height="1.75758" rx="0.878788" fill="#32B38C"/>
</svg>
