<svg width="28" height="27" viewBox="0 0 28 27" fill="none" xmlns="http://www.w3.org/2000/svg">
<path d="M10.1951 0C8.29561 0 6.62146 1.25561 6.08488 3.08C5.5161 2.82244 4.91512 2.68293 4.29268 2.68293C3.15419 2.68293 2.06233 3.13519 1.2573 3.94022C0.452263 4.74526 0 5.83712 0 6.97561C0.00254267 7.92626 0.319799 8.84932 0.902235 9.60066C1.48467 10.352 2.2995 10.8893 3.21951 11.1288V18.7805H17.1707V11.1288C19.0595 10.6351 20.3902 8.92878 20.3902 6.97561C20.3902 5.83712 19.938 4.74526 19.1329 3.94022C18.3279 3.13519 17.2361 2.68293 16.0976 2.68293C15.4751 2.68293 14.8741 2.82244 14.3054 3.08C13.7688 1.25561 12.0946 0 10.1951 0V0ZM9.65854 9.65854H10.7317V17.1707H9.65854V9.65854ZM6.43902 11.8049H7.51219V17.1707H6.43902V11.8049V11.8049ZM12.878 11.8049H13.9512V17.1707H12.878V11.8049ZM3.21951 19.8537V20.9268C3.21951 21.2115 3.33258 21.4844 3.53384 21.6857C3.7351 21.8869 4.00806 22 4.29268 22H16.0976C16.3822 22 16.6551 21.8869 16.8564 21.6857C17.0577 21.4844 17.1707 21.2115 17.1707 20.9268V19.8537H3.21951Z" fill="#32B38C"/>
<path d="M14.4167 27C14.4167 27 13 27 13 25.5833C13 24.1667 14.4167 19.9167 20.0833 19.9167C25.75 19.9167 27.1667 24.1667 27.1667 25.5833C27.1667 27 25.75 27 25.75 27H14.4167ZM20.0833 18.5C21.2105 18.5 22.2915 18.0522 23.0885 17.2552C23.8856 16.4582 24.3333 15.3772 24.3333 14.25C24.3333 13.1228 23.8856 12.0418 23.0885 11.2448C22.2915 10.4478 21.2105 10 20.0833 10C18.9562 10 17.8752 10.4478 17.0781 11.2448C16.2811 12.0418 15.8333 13.1228 15.8333 14.25C15.8333 15.3772 16.2811 16.4582 17.0781 17.2552C17.8752 18.0522 18.9562 18.5 20.0833 18.5V18.5Z" fill="#32B38C"/>
</svg>
