<svg width="20" height="20" viewBox="0 0 20 20" fill="none" xmlns="http://www.w3.org/2000/svg">
<path d="M10 19C14.9706 19 19 14.9706 19 10C19 5.02944 14.9706 1 10 1C5.02944 1 1 5.02944 1 10C1 14.9706 5.02944 19 10 19Z" stroke="#32B38C" stroke-width="2" stroke-linecap="round" stroke-linejoin="round"/>
<path d="M10 12C11.1046 12 12 11.1046 12 10C12 8.89543 11.1046 8 10 8C8.89543 8 8 8.89543 8 10C8 11.1046 8.89543 12 10 12Z" stroke="#32B38C" stroke-width="2" stroke-linecap="round" stroke-linejoin="round"/>
<path d="M12 10L18.75 8M10 12V19V12ZM8 10L1.25 8L8 10Z" stroke="#32B38C" stroke-width="2" stroke-linecap="round" stroke-linejoin="round"/>
</svg>
