<svg width="27" height="27" viewBox="0 0 27 27" fill="none" xmlns="http://www.w3.org/2000/svg">
<path d="M26.9476 20.5265C26.9329 19.8747 26.9097 19.225 26.8949 18.5796C26.8422 16.5546 26.8991 14.5021 26.8422 12.4666C26.7852 10.4458 26.8949 8.42925 26.8865 6.41058C26.8844 5.99081 26.9223 5.16393 26.511 4.91503C25.623 4.37925 25.0555 5.76933 24.813 6.33253C24.3763 7.35768 24.1105 8.4419 23.7899 9.50503C23.5178 10.4163 23.2077 11.3254 23.0896 12.2725C23.001 12.9834 22.9883 13.7807 23.3322 14.4325C23.5051 14.7595 23.811 14.9873 24.1654 15.0885C24.5324 15.194 24.9564 15.078 25.3023 15.2573C25.3909 15.3037 25.469 15.4007 25.5027 15.4957C25.6082 15.8036 25.4901 16.2656 25.4479 16.5778C25.3108 17.5903 25.1694 18.6133 25.0914 19.6321C25.045 20.2481 24.9923 21.037 25.3403 21.5833C25.5533 21.9145 25.9942 22.2309 26.4013 22.0769C27.0067 21.8554 26.9603 21.0454 26.9476 20.5265ZM4.52498 5.34323C4.35201 5.41706 4.42373 6.05831 4.41951 6.25659C4.41108 6.61097 4.44061 7.08136 4.40264 7.5412V7.55175C4.40053 7.58339 4.39631 7.61925 4.39209 7.65511C4.38787 7.69097 4.38155 7.72472 4.37733 7.75847C4.34358 7.98206 4.27608 8.24784 4.14319 8.37651C3.99342 8.52206 3.65381 8.49675 3.53569 8.32589C3.33951 8.04956 3.35006 7.42307 3.3374 7.40409C3.32686 7.10878 3.27623 6.2144 3.20873 5.62589C3.2024 5.58159 3.19186 5.3137 2.95772 5.28839C2.84803 5.27573 2.73201 5.37487 2.69826 5.55206C2.5928 6.07518 2.49998 7.07292 2.49365 7.22901C2.49365 7.24378 2.49155 7.26065 2.49155 7.27753V7.28175C2.49155 7.31339 2.46201 8.09597 2.27428 8.36597C2.17514 8.50729 1.9178 8.6212 1.66045 8.47354C1.55709 8.41448 1.48537 8.29847 1.43475 8.17612C1.15842 7.31128 1.38834 6.35362 1.41787 5.898C1.42631 5.76933 1.53389 5.34112 1.28498 5.358C0.909514 5.38331 0.441233 7.0455 0.358967 7.42729C0.156467 8.3744 0.133264 9.3869 0.512951 10.296C0.72178 10.7981 1.12889 11.2094 1.62881 11.4056C1.8503 11.4921 2.09498 11.5532 2.35444 11.587C2.28272 13.7385 2.19834 15.985 2.11397 17.2338C2.04858 18.1746 1.97053 19.1259 1.99162 20.0709C2.00428 20.6341 2.00639 21.307 2.36709 21.7774C2.74678 22.2667 3.53147 22.0326 3.73819 21.4462C3.97022 20.786 3.89217 20.0203 3.80147 18.8116C3.70865 17.6029 3.59897 15.9534 3.5399 15.0653C3.45342 13.7596 3.41545 12.6164 3.39858 11.5743C4.06092 11.4689 4.67686 11.1693 5.01858 10.6209C5.16834 10.3825 5.26537 10.1146 5.33076 9.84253C5.43201 9.42909 5.47842 8.97347 5.451 8.54948C5.42147 8.16136 5.07975 5.10698 4.52498 5.34323Z" fill="#32B38C"/>
<path d="M13.9222 22.0914C18.6718 22.0914 22.5221 18.2411 22.5221 13.4915C22.5221 8.74192 18.6718 4.8916 13.9222 4.8916C9.17258 4.8916 5.32227 8.74192 5.32227 13.4915C5.32227 18.2411 9.17258 22.0914 13.9222 22.0914Z" fill="#32B38C"/>
<path d="M14.0171 8.70134C19.5795 8.4904 20.5561 16.3985 15.6582 18.1788C13.8061 18.8517 11.5196 18.5142 10.14 17.0376C8.51792 15.3016 8.58332 12.5235 10.0135 10.7095C10.429 10.1821 9.68863 9.43118 9.26675 9.96275C6.3305 13.6879 8.47574 19.2356 13.3737 19.5499C17.5039 19.8135 20.7882 16.0103 19.7757 11.954C19.1239 9.34048 16.7065 7.5454 14.0171 7.64665C13.34 7.67197 13.3378 8.72665 14.0171 8.70134Z" fill="white"/>
</svg>
