<svg width="30" height="31" viewBox="0 0 30 31" fill="none" xmlns="http://www.w3.org/2000/svg">
<path d="M25.6066 4.39363C22.7735 1.56039 19.0066 0 15 0C10.9933 0 7.22643 1.56039 4.39336 4.39363C1.56023 7.22693 0 10.994 0 15.0009C0 19.0078 1.56023 22.7748 4.39336 25.6081C7.22648 28.4414 10.9933 30.0018 15 30.0018C19.0066 30.0018 22.7735 28.4414 25.6066 25.6081C28.4397 22.7748 30 19.0078 30 15.0009C30 10.994 28.4397 7.22698 25.6066 4.39363ZM15 28.2439C7.69822 28.2439 1.75781 22.3031 1.75781 15.0009C1.75781 7.69869 7.69822 1.75792 15 1.75792C22.3018 1.75792 28.2422 7.69869 28.2422 15.0009C28.2422 22.3031 22.3018 28.2439 15 28.2439Z" fill="white"/>
<path d="M9.87239 10.5371C9.53865 10.1851 9.53865 9.61439 9.87239 9.26238C10.2061 8.91037 10.7472 8.91037 11.081 9.26238L20.7497 19.4603C21.0834 19.8123 21.0834 20.383 20.7497 20.735C20.4159 21.087 19.8748 21.087 19.5411 20.735L9.87239 10.5371Z" fill="white"/>
<path d="M18.919 9.2623C19.2528 8.91029 19.7939 8.91029 20.1276 9.2623C20.4614 9.61431 20.4614 10.185 20.1276 10.537L10.4589 20.7349C10.1252 21.0869 9.58405 21.0869 9.25031 20.7349C8.91656 20.3829 8.91656 19.8122 9.25031 19.4602L18.919 9.2623Z" fill="white"/>
</svg>
