<svg width="19" height="15" viewBox="0 0 19 15" fill="none" xmlns="http://www.w3.org/2000/svg">
<path d="M15.2285 0.916549C15.2315 0.914863 15.2463 0.910823 15.2493 0.909969C15.3264 0.886097 15.3896 0.828219 15.4246 0.75508C15.4599 0.681896 15.4643 0.597652 15.4364 0.521282L15.319 0.198507C15.2621 0.0420951 15.0892 -0.038639 14.9328 0.0182003L0.198507 5.38112C0.042095 5.43814 -0.038639 5.61106 0.0182003 5.76747L0.135573 6.08958C0.163161 6.1656 0.224041 6.22565 0.297711 6.25929C0.369695 6.29209 0.454792 6.29359 0.529477 6.26651C0.777405 6.17368 1.06603 6.30133 1.15854 6.55549C1.25038 6.80778 1.11987 7.08768 0.882034 7.17481C0.874946 7.17682 0.861164 7.18118 0.854445 7.1837C0.698033 7.24058 0.617276 7.41348 0.674138 7.56992L0.878663 8.1315C0.906575 8.20838 0.964777 8.2706 1.03944 8.30391C1.11075 8.33572 1.19183 8.33822 1.26483 8.31164C1.27056 8.30961 1.27527 8.30777 1.28469 8.30356C1.53529 8.21678 1.81081 8.34731 1.90163 8.59727C1.99347 8.84954 1.86294 9.12963 1.62512 9.21671C1.61806 9.21858 1.60462 9.22294 1.59754 9.22546C1.44112 9.28251 1.36041 9.45538 1.41723 9.61182L1.60326 10.1226C1.66012 10.279 1.84613 10.3546 2.00254 10.2977C2.25486 10.2059 2.53472 10.3362 2.62655 10.5885C2.71839 10.8408 2.58786 11.1209 2.35005 11.208C2.34263 11.21 2.32917 11.2142 2.32246 11.2167C2.16604 11.2738 2.08531 11.4467 2.14215 11.6031L2.34667 12.1645C2.40354 12.3209 2.58922 12.3963 2.74564 12.3394C2.9979 12.2476 3.27781 12.3779 3.36964 12.6304C3.46148 12.8827 3.33097 13.1627 3.09311 13.2497C3.08607 13.2517 3.07227 13.2561 3.06555 13.2586C2.90913 13.3155 2.8284 13.4883 2.88524 13.6448L2.99188 13.9373C3.04874 14.0936 3.22164 14.1744 3.37807 14.1174L18.1124 8.75449C18.2688 8.69763 18.3495 8.52455 18.2927 8.36816L18.1857 8.07501C18.1578 7.99833 18.0999 7.93607 18.0252 7.90276C17.9539 7.87097 17.8728 7.86829 17.7995 7.89488C17.7928 7.89722 17.778 7.9038 17.7719 7.90666C17.5196 7.9985 17.2394 7.86796 17.1476 7.61567C17.0557 7.36336 17.1863 7.0835 17.4356 6.99266H17.4359C17.4393 6.99164 17.4544 6.98709 17.4578 6.98592C17.5338 6.96036 17.5994 6.90467 17.6354 6.83135C17.671 6.75787 17.6754 6.67309 17.6475 6.5964L17.4426 6.03343C17.4147 5.95655 17.3568 5.89433 17.2825 5.86118C17.2108 5.82923 17.1298 5.82655 17.0564 5.8531C17.05 5.85545 17.0346 5.8622 17.0288 5.86471C16.7766 5.95655 16.4964 5.82604 16.4045 5.57373C16.3127 5.32162 16.4432 5.04174 16.6952 4.95009C16.6995 4.9499 16.7103 4.94556 16.7123 4.94487C16.7927 4.91881 16.8553 4.8643 16.8916 4.79063C16.9279 4.71696 16.9326 4.63168 16.9044 4.55448L16.718 4.04197C16.6901 3.9656 16.6326 3.90371 16.5586 3.87026C16.4846 3.83694 16.3998 3.83443 16.3245 3.86437L16.3039 3.87346C16.0517 3.9653 15.7717 3.83479 15.6799 3.58248C15.5881 3.33019 15.7186 3.05031 15.9676 2.95965C15.9676 2.95946 15.9676 2.95946 15.9676 2.95946C15.9706 2.95863 15.9847 2.95443 15.9874 2.9536C16.0685 2.92885 16.1307 2.87303 16.167 2.79936C16.203 2.72571 16.2077 2.64041 16.1798 2.5632L15.9746 2.00007C15.9467 1.92336 15.8888 1.86112 15.8141 1.82799C15.7428 1.79603 15.6618 1.79336 15.5884 1.81993C15.5817 1.82228 15.5672 1.82884 15.5609 1.83154C15.3085 1.92336 15.0283 1.79303 14.9365 1.54072C14.845 1.28857 14.9752 1.00871 15.2285 0.916549ZM15.5003 2.45871L15.5211 2.51675C15.1208 2.79125 14.9398 3.31181 15.1134 3.78846C15.2867 4.26513 15.7603 4.54769 16.2434 4.50061L16.246 4.50819C15.8457 4.78253 15.6647 5.30325 15.838 5.77975C16.0116 6.2564 16.4849 6.53898 16.9679 6.49188L16.9891 6.5499C16.6598 6.77562 16.4825 7.16837 16.5256 7.56601L14.3454 8.35934C14.189 8.41639 14.1083 8.58928 14.1651 8.7457C14.222 8.90211 14.3952 8.98268 14.5516 8.92584L16.7509 8.12524C16.8656 8.27004 17.0143 8.3816 17.1808 8.45203L3.88201 13.2924C4.01487 13.0322 4.0438 12.7197 3.93617 12.4242C3.7656 11.9557 3.30542 11.6747 2.82371 11.7132L2.7988 11.6446C3.18936 11.3677 3.36429 10.8534 3.19305 10.3823C3.02249 9.91384 2.56198 9.6331 2.0806 9.67129L2.07386 9.6533C2.46474 9.37645 2.63967 8.8621 2.46811 8.39099C2.29655 7.91989 1.832 7.63846 1.35499 7.6775L1.33077 7.6114C1.7213 7.33473 1.89658 6.82038 1.72504 6.34925C1.61166 6.03758 1.36979 5.809 1.08118 5.70137L10.8402 2.14926L11.0518 2.73054C11.1087 2.88679 11.2819 2.96752 11.438 2.91068C11.5944 2.85382 11.6751 2.68074 11.6183 2.52433L11.4068 1.94324L14.447 0.836669C14.3717 0.969209 14.3246 1.11722 14.3098 1.27047L11.9426 2.13213C11.7862 2.18897 11.7055 2.36205 11.7623 2.51849C11.8192 2.6749 11.9924 2.75545 12.1488 2.69861L14.4272 1.86924C14.6321 2.26984 15.0609 2.50163 15.5003 2.45871Z" fill="#32B38C"/>
<path d="M12.6643 6.27797C12.5079 6.33497 12.4272 6.50789 12.484 6.6643L12.7646 7.43447C12.8214 7.59088 12.9943 7.67162 13.1508 7.61461C13.3072 7.55775 13.3879 7.38486 13.3307 7.22842L13.0505 6.45825C12.9936 6.30186 12.8208 6.22113 12.6643 6.27797Z" fill="#32B38C"/>
<path d="M12.0969 4.72329C11.9405 4.78029 11.8598 4.95321 11.9166 5.10962L12.1972 5.87979C12.254 6.03621 12.4269 6.11694 12.5833 6.05996C12.7398 6.00308 12.8205 5.83018 12.7637 5.67377L12.4831 4.9036C12.4263 4.74716 12.2534 4.66643 12.0969 4.72329Z" fill="#32B38C"/>
<path d="M11.5292 3.1608C11.3729 3.21766 11.2924 3.39074 11.3493 3.54716L11.6295 4.31733C11.6863 4.47374 11.8596 4.55431 12.0157 4.49747C12.1721 4.44063 12.2528 4.26755 12.196 4.11114L11.9155 3.34097C11.8586 3.18451 11.6857 3.10396 11.5292 3.1608Z" fill="#32B38C"/>
<path d="M4.15811 7.60026L2.79942 8.09475C2.643 8.15161 2.56227 8.32469 2.61945 8.48111C2.67629 8.63738 2.84919 8.71809 3.00563 8.66125L3.40124 8.5171L3.90448 9.89902C3.96134 10.0554 4.13424 10.1361 4.29065 10.0791C4.44709 10.0223 4.52782 9.8492 4.47096 9.69281L3.96772 8.31091L4.36397 8.16678C4.52041 8.10973 4.60114 7.93684 4.54428 7.78043C4.48742 7.62401 4.31418 7.5434 4.15811 7.60026Z" fill="#32B38C"/>
<path d="M6.50006 8.12962C6.57341 8.02234 6.6094 7.91753 6.62418 7.82603C6.66555 7.57125 6.55926 7.31305 6.34564 7.15195C6.0254 6.91125 5.39199 7.13057 5.04315 7.28278C5.04045 7.2838 5.03845 7.28564 5.03609 7.28666C5.03103 7.28814 5.02598 7.28867 5.02095 7.29052C4.86453 7.34754 4.78415 7.52046 4.84101 7.67685L5.44583 9.33895C5.50267 9.49538 5.67591 9.57612 5.832 9.51912C5.98842 9.46225 6.06915 9.28917 6.01231 9.13276L5.82191 8.6102C5.89457 8.58124 5.96152 8.55114 6.02208 8.51988L6.70863 9.06415C6.79375 9.13142 6.90408 9.14571 6.99894 9.11106C7.04971 9.09273 7.09614 9.06045 7.13183 9.01504C7.23544 8.88453 7.21355 8.69497 7.0827 8.59168L6.50006 8.12962ZM5.5087 7.74918C5.71627 7.67853 5.91539 7.63467 5.99717 7.64626C6.01296 7.66256 6.03517 7.69252 6.02944 7.72918C6.01665 7.80687 5.89891 7.93103 5.6167 8.04589L5.5087 7.74918Z" fill="#32B38C"/>
<path d="M7.83961 6.46166C7.75449 6.36915 7.62163 6.34124 7.50456 6.38647C7.38815 6.43357 7.31314 6.54794 7.31652 6.6736L7.36428 8.53856C7.36865 8.7049 7.50691 8.8364 7.67341 8.83222C7.84058 8.82802 7.97146 8.68962 7.96707 8.52309L7.96338 8.38734L8.58504 8.16112L8.70479 8.29146C8.78988 8.38365 8.91873 8.41092 9.02973 8.37054C9.06607 8.35742 9.10072 8.3369 9.13067 8.30915C9.25314 8.19628 9.2612 8.00558 9.14816 7.88308L7.83961 6.46166ZM7.94727 7.75174L7.93988 7.46044L8.14237 7.68059L7.94727 7.75174Z" fill="#32B38C"/>
<path d="M9.02679 5.83462C8.8707 5.89164 8.78997 6.0647 8.84683 6.22095L9.45064 7.87973C9.50748 8.03614 9.6804 8.11685 9.83681 8.05987C9.99322 8.00301 10.074 7.82995 10.0171 7.67354L9.41331 6.01477C9.35644 5.85849 9.1832 5.77776 9.02679 5.83462Z" fill="#32B38C"/>
<path d="M11.1949 5.03971C11.0385 5.09673 10.9578 5.26963 11.0146 5.42606L11.3177 6.25878L10.1767 5.53757C10.1498 5.52056 10.1212 5.5098 10.0919 5.50225C10.0855 5.50024 10.0788 5.49839 10.0721 5.49687C10.0664 5.49588 10.0603 5.49502 10.0546 5.49435C10.0055 5.48643 9.95434 5.4893 9.90456 5.50747C9.74813 5.56431 9.66742 5.73739 9.72426 5.89382L10.3311 7.56114C10.3883 7.71757 10.5612 7.79812 10.7176 7.74131C10.874 7.68426 10.9544 7.51136 10.8976 7.35493L10.5911 6.51261L11.7419 7.24007C11.8223 7.29089 11.9202 7.29978 12.0063 7.26849C12.0366 7.25739 12.0658 7.24123 12.0921 7.22003C12.1924 7.13895 12.2303 7.00339 12.1863 6.88212L11.5811 5.21983C11.5243 5.06342 11.3514 4.98287 11.1949 5.03971Z" fill="#32B38C"/>
</svg>
