<svg width="20" height="18" viewBox="0 0 20 18" fill="none" xmlns="http://www.w3.org/2000/svg">
<path d="M11.0001 4.00001C11.0001 5.65684 9.65691 7.00004 8 7.00004C6.34315 7.00004 5 5.65684 5 4.00001C5 2.34315 6.34315 1 8 1C9.65691 1 11.0001 2.34315 11.0001 4.00001Z" stroke="#32B38C"/>
<path d="M1 17.0004V13.5593C1 12.4823 1.61649 11.4977 2.62519 11.1202C3.98587 10.6109 5.85603 9.98346 8 10.0003C10.0957 10.0169 11.7052 10.6369 13.2416 11.1522C14.3166 11.5127 15.0001 12.5369 15.0001 13.6707V14.5031V15.3356V17.0004" stroke="#32B38C" stroke-linecap="round"/>
<path d="M13 7.00004C14.6569 7.00004 16 5.65684 16 4.00001C16 2.34315 14.6569 1 13 1" stroke="#32B38C" stroke-linecap="round"/>
<path d="M13.5 9.5C15.373 9.5 17.0843 10.4965 18.0845 11.2245C18.6967 11.6701 19 12.4007 19 13.158V17" stroke="#32B38C" stroke-linecap="round"/>
</svg>
