<svg width="8" height="15" viewBox="0 0 8 15" fill="none" xmlns="http://www.w3.org/2000/svg">
<path d="M6.12691 15C6.12691 15 7.48845 15 7.48845 13.6364V1.36358C7.48843 0 6.12691 0 6.12691 0H1.36153C1.36153 0 0 0 0 1.36358V13.6364C1.89394e-05 15 1.36153 15 1.36153 15H6.12691ZM3.74422 14.4322C3.36845 14.4322 3.06347 14.1272 3.06347 13.7515C3.06347 13.3757 3.36845 13.0707 3.74422 13.0707C4.12002 13.0707 4.42498 13.3757 4.42498 13.7515C4.42498 14.1273 4.12002 14.4322 3.74422 14.4322ZM2.72307 0.831212C2.72307 0.746799 2.76324 0.680758 2.8136 0.680758H4.67481C4.72451 0.680758 4.76536 0.748163 4.76536 0.831212V0.871383C4.76536 0.955795 4.72451 1.02184 4.67481 1.02184H2.8136C2.7639 1.02184 2.72307 0.954432 2.72307 0.871383V0.831212ZM0.680777 1.70191H6.80767V12.5942H0.680777V1.70191Z" fill="#8F8F8F"/>
</svg>
