<svg width="20" height="19" viewBox="0 0 20 19" fill="none" xmlns="http://www.w3.org/2000/svg">
<path d="M10.8789 8.63427L12.0134 9.98144L14.4713 7.28711" stroke="black" stroke-linecap="round" stroke-linejoin="round"/>
<path d="M2.79655 6.38867H1.89844" stroke="black" stroke-linecap="round"/>
<path d="M3.69498 11.7773H2.79688" stroke="black" stroke-linecap="round"/>
<path d="M3.69433 9.08203H1" stroke="black" stroke-linecap="round"/>
<path d="M5.2767 4.14338L4.69169 1.99345C4.53211 1.40698 3.99958 1 3.3918 1H1M5.2767 4.14338L7.14693 12.52C7.2844 13.1357 7.83081 13.5735 8.46176 13.5735H15.7771C16.408 13.5735 16.9545 13.1357 17.092 12.52L18.5958 5.7841C18.7838 4.94243 18.1435 4.14338 17.2811 4.14338H5.2767Z" stroke="black" stroke-linecap="round"/>
<path d="M9.53076 18.0635C10.2748 18.0635 10.8779 17.4603 10.8779 16.7163C10.8779 15.9723 10.2748 15.3691 9.53076 15.3691C8.78674 15.3691 8.18359 15.9723 8.18359 16.7163C8.18359 17.4603 8.78674 18.0635 9.53076 18.0635Z" fill="black"/>
<path d="M14.9214 18.0635C15.6654 18.0635 16.2685 17.4603 16.2685 16.7163C16.2685 15.9723 15.6654 15.3691 14.9214 15.3691C14.1774 15.3691 13.5742 15.9723 13.5742 16.7163C13.5742 17.4603 14.1774 18.0635 14.9214 18.0635Z" fill="black"/>
</svg>
