<svg width="16" height="14" viewBox="0 0 16 14" fill="none" xmlns="http://www.w3.org/2000/svg">
<path d="M1.09961 2.08984H3.48294" stroke="white" stroke-width="0.7" stroke-linecap="round"/>
<path d="M1.09961 11.6211H3.48294" stroke="white" stroke-width="0.7" stroke-linecap="round"/>
<path d="M9.83984 2.08984H15.401" stroke="white" stroke-width="0.7" stroke-linecap="round"/>
<path d="M9.83984 11.6211H15.401" stroke="white" stroke-width="0.7" stroke-linecap="round"/>
<path d="M1.09961 6.85547H10.6329" stroke="white" stroke-width="0.7" stroke-linecap="round"/>
<path d="M7.05838 0.5H6.26393C5.60579 0.5 5.07227 1.03353 5.07227 1.69167V2.48611C5.07227 3.14425 5.60579 3.67778 6.26393 3.67778H7.05838C7.71652 3.67778 8.25004 3.14425 8.25004 2.48611V1.69167C8.25004 1.03353 7.71652 0.5 7.05838 0.5Z" stroke="white" stroke-width="0.7"/>
<path d="M7.05838 10.0352H6.26393C5.60579 10.0352 5.07227 10.5687 5.07227 11.2268V12.0213C5.07227 12.6794 5.60579 13.2129 6.26393 13.2129H7.05838C7.71652 13.2129 8.25004 12.6794 8.25004 12.0213V11.2268C8.25004 10.5687 7.71652 10.0352 7.05838 10.0352Z" stroke="white" stroke-width="0.7"/>
<path d="M14.2088 5.26562H13.4143C12.7562 5.26562 12.2227 5.79915 12.2227 6.45729V7.25174C12.2227 7.90988 12.7562 8.4434 13.4143 8.4434H14.2088C14.8669 8.4434 15.4004 7.90988 15.4004 7.25174V6.45729C15.4004 5.79915 14.8669 5.26562 14.2088 5.26562Z" stroke="white" stroke-width="0.7"/>
</svg>
