<svg width="14" height="19" viewBox="0 0 14 19" fill="none" xmlns="http://www.w3.org/2000/svg">
<path d="M6.14258 2.66531V1.85714C6.14258 1.38376 6.52632 1 6.99972 1C7.47312 1 7.85686 1.38376 7.85686 1.85714V2.71429" stroke="black"/>
<path d="M11.9106 12.6419C10.701 10.6747 10.6087 8.76859 11.0112 6.69659C11.4004 4.69229 10.0425 2.71484 8.0008 2.71484H5.77111C3.98668 2.86532 2.64762 4.71965 2.93673 6.47736C3.40595 8.36084 3.38129 9.77084 2.11328 12.4718" stroke="black" stroke-linecap="round"/>
<path d="M7 14.714C10.3137 14.714 13 14.1384 13 13.4283C13 12.7182 10.3137 12.1426 7 12.1426C3.68629 12.1426 1 12.7182 1 13.4283C1 14.1384 3.68629 14.714 7 14.714Z" stroke="black"/>
<path d="M8.71373 17.2852C8.71373 17.2852 8.42804 18.1423 6.99944 18.1423C5.57084 18.1423 5.28516 17.2852 5.28516 17.2852" stroke="black" stroke-linecap="round" stroke-linejoin="round"/>
</svg>
