<svg width="20" height="18" viewBox="0 0 20 18" fill="none" xmlns="http://www.w3.org/2000/svg">
<path d="M4.05794 11.8669C3.08425 12.0536 2.14358 11.4157 1.95688 10.442L1.04544 5.68874C0.784063 4.32559 1.67686 3.00871 3.04 2.74733C4.46307 2.47446 6.23894 2.13393 7.62416 1.86832C9.03103 1.59856 10.8465 1.28152 12.2861 1.03592C13.6285 0.806892 14.9025 1.69654 15.1589 3.03398C15.1983 3.2395 15.2385 3.44875 15.2786 3.65755" stroke="black" stroke-linecap="round"/>
<path d="M4.16211 6.61869V13.0811C4.16211 14.0726 4.96581 14.8762 5.95723 14.8762H6.17495C6.55042 14.8762 6.85479 15.1806 6.85479 15.556C6.85479 16.2963 6.91726 17.3912 7.65711 17.3705C8.15903 17.3564 8.33845 16.7428 8.61149 16.3214L8.80455 16.0231C9.26778 15.308 10.0619 14.8762 10.9139 14.8762H16.0099C17.3979 14.8762 18.5231 13.7512 18.5231 12.3632V6.67848C18.5231 5.3213 17.6359 4.13825 16.2792 4.10552C14.8172 4.07024 12.7789 4.10553 11.3426 4.10553H6.6749C5.28692 4.10553 4.16211 5.23071 4.16211 6.61869Z" stroke="black" stroke-linecap="round"/>
<path d="M7.75303 10.3889C8.24874 10.3889 8.65059 9.98702 8.65059 9.49131C8.65059 8.9956 8.24874 8.59375 7.75303 8.59375C7.25732 8.59375 6.85547 8.9956 6.85547 9.49131C6.85547 9.98702 7.25732 10.3889 7.75303 10.3889Z" fill="black"/>
<path d="M11.3429 10.3889C11.8386 10.3889 12.2404 9.98702 12.2404 9.49131C12.2404 8.9956 11.8386 8.59375 11.3429 8.59375C10.8472 8.59375 10.4453 8.9956 10.4453 9.49131C10.4453 9.98702 10.8472 10.3889 11.3429 10.3889Z" fill="black"/>
<path d="M14.9327 10.3889C15.4284 10.3889 15.8303 9.98702 15.8303 9.49131C15.8303 8.9956 15.4284 8.59375 14.9327 8.59375C14.437 8.59375 14.0352 8.9956 14.0352 9.49131C14.0352 9.98702 14.437 10.3889 14.9327 10.3889Z" fill="black"/>
</svg>
