<svg width="17" height="18" viewBox="0 0 17 18" fill="none" xmlns="http://www.w3.org/2000/svg">
<path d="M1 3.62489C1 2.1752 2.1752 1 3.62489 1H13.3745C14.8242 1 15.9993 2.1752 15.9993 3.62489V10.5621C15.9993 12.0118 14.8242 13.187 13.3745 13.187H3.62489C2.1752 13.187 1 12.0118 1 10.5621V3.62489Z" stroke="#32B38C"/>
<path d="M8.49988 17.8749C10.0531 17.8749 11.3123 17.4552 11.3123 16.9375C11.3123 16.4197 10.0531 16 8.49988 16C6.94664 16 5.6875 16.4197 5.6875 16.9375C5.6875 17.4552 6.94664 17.8749 8.49988 17.8749Z" fill="#32B38C"/>
<path d="M8.49805 13.6562V16.9374" stroke="#32B38C" stroke-linecap="round"/>
<path d="M5.6875 3.8125V10.3747" stroke="#32B38C" stroke-linecap="round"/>
<path d="M8.49805 8.5V10.3749" stroke="#32B38C" stroke-linecap="round"/>
<path d="M11.3105 6.625V10.3748" stroke="#32B38C" stroke-linecap="round"/>
</svg>
