<svg width="16" height="17" viewBox="0 0 16 17" fill="none" xmlns="http://www.w3.org/2000/svg">
<path d="M12.923 16.0049H3.07691C2.26086 16.0049 1.47824 15.6807 0.901206 15.1037C0.324174 14.5267 0 13.744 0 12.928V4.31265C0 4.14944 0.0648347 3.99291 0.180241 3.87751C0.295648 3.7621 0.452173 3.69727 0.615382 3.69727H12.923C13.7391 3.69727 14.5217 4.02144 15.0987 4.59847C15.6758 5.1755 15.9999 5.95813 15.9999 6.77418V12.928C15.9999 13.744 15.6758 14.5267 15.0987 15.1037C14.5217 15.6807 13.7391 16.0049 12.923 16.0049ZM1.23076 4.92803V12.928C1.23076 13.4176 1.42527 13.8872 1.77149 14.2334C2.11771 14.5796 2.58728 14.7741 3.07691 14.7741H12.923C13.4127 14.7741 13.8822 14.5796 14.2284 14.2334C14.5747 13.8872 14.7692 13.4176 14.7692 12.928V6.77418C14.7692 6.28455 14.5747 5.81497 14.2284 5.46875C13.8822 5.12253 13.4127 4.92803 12.923 4.92803H1.23076Z" fill="black"/>
<path d="M14.1539 4.92859C13.9906 4.92859 13.8341 4.86376 13.7187 4.74835C13.6033 4.63295 13.5385 4.47642 13.5385 4.31321V2.62091C13.5503 2.40534 13.5132 2.18988 13.4301 1.99062C13.347 1.79137 13.22 1.61345 13.0585 1.47015C12.9134 1.36144 12.7454 1.28721 12.5674 1.25309C12.3893 1.21897 12.2058 1.22586 12.0308 1.27323L1.71083 3.61783C1.57201 3.64909 1.44832 3.7275 1.3608 3.8397C1.27328 3.9519 1.22736 4.09096 1.23083 4.23321C1.23083 4.39642 1.166 4.55295 1.05059 4.66835C0.935184 4.78376 0.77866 4.84859 0.61545 4.84859C0.452241 4.84859 0.295716 4.78376 0.180309 4.66835C0.0649027 4.55295 6.80492e-05 4.39642 6.80492e-05 4.23321C-0.00354269 3.81253 0.136635 3.40323 0.397389 3.0731C0.658144 2.74296 1.02383 2.51178 1.43391 2.41784L11.76 0.0732304C12.1152 -0.016569 12.4861 -0.0238819 12.8445 0.0518517C13.2029 0.127585 13.5393 0.284356 13.8277 0.510152C14.1327 0.769006 14.3757 1.09307 14.5386 1.45841C14.7016 1.82375 14.7804 2.22103 14.7692 2.62091V4.31321C14.7692 4.47642 14.7044 4.63295 14.589 4.74835C14.4736 4.86376 14.3171 4.92859 14.1539 4.92859Z" fill="black"/>
<path d="M15.3844 12.3137H11.0768C10.4239 12.3137 9.79783 12.0543 9.3362 11.5927C8.87457 11.1311 8.61523 10.505 8.61523 9.85215C8.61523 9.19932 8.87457 8.57322 9.3362 8.11159C9.79783 7.64996 10.4239 7.39063 11.0768 7.39062H15.3844C15.5476 7.39062 15.7042 7.45546 15.8196 7.57087C15.935 7.68627 15.9998 7.8428 15.9998 8.00601V11.6983C15.9998 11.8615 15.935 12.018 15.8196 12.1334C15.7042 12.2488 15.5476 12.3137 15.3844 12.3137ZM11.0768 8.62139C10.7503 8.62139 10.4373 8.75106 10.2065 8.98187C9.97567 9.21268 9.846 9.52573 9.846 9.85215C9.846 10.1786 9.97567 10.4916 10.2065 10.7224C10.4373 10.9532 10.7503 11.0829 11.0768 11.0829H14.7691V8.62139H11.0768Z" fill="black"/>
</svg>
