<svg width="15" height="15" viewBox="0 0 15 15" fill="none" xmlns="http://www.w3.org/2000/svg">
<path d="M7.50145 4.3913H7.5C6.8742 4.3913 6.26141 4.57196 5.73904 4.91186C5.21653 5.25185 4.80724 5.73647 4.565 6.30599C4.32269 6.87566 4.25907 7.50332 4.38278 8.10899C4.50648 8.71458 4.81145 9.26898 5.25696 9.70284C5.70234 10.1366 6.2682 10.4305 6.88231 10.5494C7.49635 10.6684 8.13297 10.6075 8.71218 10.3738C9.29149 10.1401 9.78877 9.74355 10.1396 9.2322C10.4906 8.72067 10.6788 8.11784 10.6788 7.5L10.6788 7.49847C10.6763 6.67082 10.3374 5.88054 9.74069 5.29944C9.14442 4.71878 8.33916 4.39374 7.50145 4.3913ZM12.7338 8.15636L12.6914 8.44763L12.9255 8.62609L14.4593 9.7955L13.0249 12.207L11.1964 11.4917L10.9371 11.3902L10.7143 11.5573C10.3489 11.8312 9.94883 12.0588 9.5236 12.2343L9.26029 12.343L9.21951 12.625L8.94834 14.5H6.0501L5.78049 12.6357L5.73947 12.3521L5.47406 12.2441C5.04931 12.0713 4.65049 11.8443 4.28806 11.5691L4.06471 11.3996L3.80357 11.5018L1.97491 12.2172L0.540729 9.80626L2.07453 8.63686L2.30761 8.45915L2.26642 8.16897C2.23493 7.94712 2.21825 7.72353 2.21647 7.49962C2.21788 7.28014 2.23447 7.06098 2.26615 6.84363L2.3086 6.55237L2.07453 6.37391L0.540724 5.2045L1.97507 2.79298L3.80357 3.50835L4.06292 3.60981L4.28572 3.44274C4.65106 3.16877 5.05117 2.94117 5.4764 2.76565L5.73971 2.65697L5.78049 2.37504L6.05166 0.5H8.9499L9.21951 2.36428L9.26056 2.64809L9.52625 2.75598C9.95154 2.92868 10.3509 3.15575 10.7138 3.43099L10.9372 3.60042L11.1982 3.49819L13.0251 2.78284L14.4593 5.19406L12.9255 6.36347L12.6924 6.54117L12.7336 6.83136C12.7651 7.05312 12.7817 7.27661 12.7835 7.50043C12.7821 7.7199 12.7655 7.93903 12.7338 8.15636Z" fill="white" stroke="#BF5B5B"/>
</svg>
