<svg width="14" height="14" viewBox="0 0 14 14" fill="none" xmlns="http://www.w3.org/2000/svg">
<circle cx="7" cy="7" r="6.5" fill="white" stroke="#8F8F8F"/>
<path d="M7.38623 8.19824H6.56885C6.57178 7.91699 6.59668 7.68701 6.64355 7.5083C6.69336 7.32666 6.77393 7.16113 6.88525 7.01172C6.99658 6.8623 7.14453 6.69238 7.3291 6.50195C7.46387 6.36426 7.58691 6.23535 7.69824 6.11523C7.8125 5.99219 7.90479 5.86035 7.9751 5.71973C8.04541 5.57617 8.08057 5.40479 8.08057 5.20557C8.08057 5.00342 8.04395 4.8291 7.9707 4.68262C7.90039 4.53613 7.79492 4.42334 7.6543 4.34424C7.5166 4.26514 7.34521 4.22559 7.14014 4.22559C6.97021 4.22559 6.80908 4.25635 6.65674 4.31787C6.50439 4.37939 6.38135 4.47461 6.2876 4.60352C6.19385 4.72949 6.14551 4.89502 6.14258 5.1001H5.32959C5.33545 4.76904 5.41748 4.48486 5.57568 4.24756C5.73682 4.01025 5.95361 3.82861 6.22607 3.70264C6.49854 3.57666 6.80322 3.51367 7.14014 3.51367C7.51221 3.51367 7.82861 3.58105 8.08936 3.71582C8.35303 3.85059 8.55371 4.04395 8.69141 4.2959C8.8291 4.54492 8.89795 4.84082 8.89795 5.18359C8.89795 5.44727 8.84375 5.69043 8.73535 5.91309C8.62988 6.13281 8.49365 6.33936 8.32666 6.53271C8.15967 6.72607 7.98242 6.91064 7.79492 7.08643C7.63379 7.23584 7.52539 7.4043 7.46973 7.5918C7.41406 7.7793 7.38623 7.98145 7.38623 8.19824ZM6.53369 9.59131C6.53369 9.45947 6.57471 9.34814 6.65674 9.25732C6.73877 9.1665 6.85742 9.12109 7.0127 9.12109C7.1709 9.12109 7.29102 9.1665 7.37305 9.25732C7.45508 9.34814 7.49609 9.45947 7.49609 9.59131C7.49609 9.71729 7.45508 9.82568 7.37305 9.9165C7.29102 10.0073 7.1709 10.0527 7.0127 10.0527C6.85742 10.0527 6.73877 10.0073 6.65674 9.9165C6.57471 9.82568 6.53369 9.71729 6.53369 9.59131Z" fill="#8F8F8F"/>
</svg>
