<svg width="23" height="27" viewBox="0 0 23 27" fill="none" xmlns="http://www.w3.org/2000/svg">
<path d="M16.7398 7.29414V5.81058C16.7398 5.67459 16.6306 5.56333 16.4971 5.56333H4.8521C4.71867 5.56333 4.6095 5.67459 4.6095 5.81058V7.29414C4.6095 7.43013 4.71867 7.5414 4.8521 7.5414H16.4971C16.6306 7.5414 16.7398 7.43013 16.7398 7.29414ZM4.8521 10.014C4.71867 10.014 4.6095 10.1253 4.6095 10.2612V11.7448C4.6095 11.8808 4.71867 11.9921 4.8521 11.9921H10.432C10.5655 11.9921 10.6746 11.8808 10.6746 11.7448V10.2612C10.6746 10.1253 10.5655 10.014 10.432 10.014H4.8521ZM16.2545 13.5992C12.6367 13.5992 9.7042 16.588 9.7042 20.2752C9.7042 23.9625 12.6367 26.9512 16.2545 26.9512C19.8724 26.9512 22.8049 23.9625 22.8049 20.2752C22.8049 16.588 19.8724 13.5992 16.2545 13.5992ZM19.5145 23.5978C18.6442 24.4848 17.4858 24.9731 16.2545 24.9731C15.0233 24.9731 13.8649 24.4848 12.9945 23.5978C12.1242 22.7107 11.645 21.5301 11.645 20.2752C11.645 19.0204 12.1242 17.8397 12.9945 16.9527C13.8649 16.0656 15.0233 15.5773 16.2545 15.5773C17.4858 15.5773 18.6442 16.0656 19.5145 16.9527C20.3849 17.8397 20.864 19.0204 20.864 20.2752C20.864 21.5301 20.3849 22.7107 19.5145 23.5978ZM18.9535 17.9263H17.6101C17.5312 17.9263 17.4585 17.9634 17.413 18.0283L15.4873 20.7419L14.7868 19.756C14.7643 19.7241 14.7347 19.6982 14.7004 19.6805C14.6661 19.6628 14.6281 19.6537 14.5897 19.654H13.2523C13.0552 19.654 12.9399 19.8827 13.0552 20.0465L15.2932 23.2022C15.3903 23.3382 15.5874 23.3382 15.6844 23.2022L19.1476 18.3188C19.2659 18.155 19.1506 17.9263 18.9535 17.9263ZM9.21899 23.9841H2.18345V2.22533H19.1658V12.8575C19.1658 12.9935 19.275 13.1047 19.4084 13.1047H21.1066C21.2401 13.1047 21.3492 12.9935 21.3492 12.8575V0.989036C21.3492 0.441975 20.9156 0 20.3788 0H0.97042C0.433657 0 0 0.441975 0 0.989036V25.2204C0 25.7675 0.433657 26.2094 0.97042 26.2094H9.21899C9.35243 26.2094 9.4616 26.0982 9.4616 25.9622V24.2314C9.4616 24.0954 9.35243 23.9841 9.21899 23.9841Z" fill="#32B38C"/>
</svg>
