<svg width="17" height="21" viewBox="0 0 17 21" fill="none" xmlns="http://www.w3.org/2000/svg">
<path d="M16.086 17.086V19.9032C16.086 20.0383 16.0431 20.1121 16.0044 20.1509C15.9656 20.1896 15.8918 20.2325 15.7567 20.2325H0.829299C0.694133 20.2325 0.620348 20.1896 0.58161 20.1509C0.542873 20.1121 0.5 20.0383 0.5 19.9032V9.12229C0.5 8.98712 0.542873 8.91334 0.581611 8.8746C0.620348 8.83586 0.694133 8.79299 0.829299 8.79299H15.7567C15.8918 8.79299 15.9656 8.83586 16.0044 8.8746C16.0431 8.91334 16.086 8.98712 16.086 9.12229V11.9395H12.8541C11.417 11.9395 10.2809 13.0756 10.2809 14.5127C10.2809 15.9499 11.417 17.086 12.8541 17.086H16.086ZM12.5248 14.5127C12.5248 14.3776 12.5677 14.3038 12.6064 14.265C12.6452 14.2263 12.719 14.1834 12.8541 14.1834C12.9893 14.1834 13.0631 14.2263 13.1018 14.265C13.1406 14.3038 13.1834 14.3776 13.1834 14.5127C13.1834 14.6479 13.1406 14.7217 13.1018 14.7604C13.0631 14.7992 12.9893 14.842 12.8541 14.842C12.719 14.842 12.6452 14.7992 12.6064 14.7604C12.5677 14.7217 12.5248 14.6479 12.5248 14.5127ZM9.62229 2.07325C9.62229 1.18837 10.3107 0.5 11.1955 0.5C12.0804 0.5 12.7688 1.18837 12.7688 2.07325C12.7688 2.95812 12.0804 3.6465 11.1955 3.6465C10.3107 3.6465 9.62229 2.95812 9.62229 2.07325ZM7.79299 5.5563C7.79299 5.77565 7.7655 5.96019 7.71033 6.13439H3.89986C3.84468 5.96019 3.8172 5.77565 3.8172 5.5563C3.8172 4.42264 4.67143 3.56841 5.80509 3.56841C6.93876 3.56841 7.79299 4.42264 7.79299 5.5563Z" stroke="#32B38C"/>
</svg>
