<svg width="12" height="13" viewBox="0 0 12 13" fill="none" xmlns="http://www.w3.org/2000/svg">
<path d="M11.2186 3.55947L6.1076 0.109571C6.00195 0.0381606 5.87735 0 5.74983 0C5.62231 0 5.49771 0.0381606 5.39206 0.109571L0.281103 3.55947C0.194492 3.61801 0.12357 3.69691 0.0745594 3.78925C0.0255488 3.88159 -5.29519e-05 3.98455 8.22274e-08 4.08909V12.1389C8.22274e-08 12.3083 0.0673094 12.4708 0.187121 12.5906C0.306932 12.7104 0.469431 12.7777 0.63887 12.7777H10.8608C11.0302 12.7777 11.1927 12.7104 11.3125 12.5906C11.4323 12.4708 11.4997 12.3083 11.4997 12.1389V4.08909C11.4997 3.98455 11.4741 3.88159 11.4251 3.78925C11.3761 3.69691 11.3052 3.61801 11.2186 3.55947ZM10.2219 11.5H1.27774V4.42897L5.74983 1.40967L10.2219 4.42897V11.5ZM6.3887 5.11128V6.38902H7.66644V7.66676H6.3887V8.9445H5.11096V7.66676H3.83322V6.38902H5.11096V5.11128H6.3887Z" fill="#8F8F8F"/>
</svg>
