<svg width="15" height="15" viewBox="0 0 15 15" fill="none" xmlns="http://www.w3.org/2000/svg">
<path d="M5.58991 1.50262C6.84901 0.832459 8.38629 0.832459 9.64538 1.50262L12.127 2.82351C13.4293 3.51671 14.2353 4.8207 14.2353 6.23463V8.70147C14.2353 10.1154 13.4293 11.4194 12.127 12.1126L9.64538 13.4335C8.38629 14.1037 6.84901 14.1037 5.58991 13.4335L3.10829 12.1126C1.80595 11.4194 1 10.1154 1 8.70147V6.23463C1 4.8207 1.80595 3.51671 3.10829 2.82351L5.58991 1.50262Z" fill="#32B38C" stroke="#32B38C" stroke-width="0.7"/>
<path d="M7.62109 4.33789V7.95059L10.1027 9.03438" fill="#32B38C"/>
<path d="M7.62109 4.33789V7.95059L10.1027 9.03438" stroke="white" stroke-width="0.7" stroke-linecap="round" stroke-linejoin="round"/>
</svg>
