<svg width="21" height="21" viewBox="0 0 21 21" fill="none" xmlns="http://www.w3.org/2000/svg">
<circle cx="10.5" cy="10.5" r="10.5" fill="white"/>
<path d="M10.5 8.58696C10.1115 8.58696 9.73166 8.69915 9.40861 8.90936C9.08555 9.11957 8.83376 9.41835 8.68508 9.76791C8.53639 10.1175 8.49749 10.5021 8.57329 10.8732C8.64909 11.2443 8.83619 11.5852 9.11092 11.8527C9.38565 12.1203 9.73569 12.3025 10.1168 12.3763C10.4978 12.4501 10.8928 12.4122 11.2518 12.2674C11.6107 12.1226 11.9175 11.8774 12.1334 11.5628C12.3492 11.2482 12.4645 10.8784 12.4645 10.5C12.4629 9.99309 12.2554 9.50738 11.8874 9.14895C11.5193 8.79051 11.0205 8.58847 10.5 8.58696ZM14.7413 10.5C14.7402 10.6788 14.7268 10.8572 14.701 11.0342L15.8966 11.9458C15.9487 11.9877 15.9838 12.0462 15.9956 12.1109C16.0074 12.1757 15.9952 12.2424 15.9612 12.2992L14.8302 14.2008C14.7958 14.2571 14.7421 14.2998 14.6786 14.3213C14.6151 14.3429 14.5458 14.3419 14.4829 14.3187L13.0771 13.7687C12.7844 13.9882 12.464 14.1704 12.1239 14.3108L11.9137 15.7642C11.9019 15.8293 11.8673 15.8884 11.8157 15.9314C11.7642 15.9744 11.6989 15.9987 11.631 16H9.36896C9.30233 15.9987 9.23811 15.9755 9.18678 15.9341C9.13544 15.8927 9.10003 15.8356 9.08633 15.7721L8.87613 14.3187C8.53502 14.1799 8.21444 13.9974 7.92288 13.7761L6.51707 14.3261C6.45422 14.3494 6.38496 14.3504 6.32146 14.3288C6.25795 14.3073 6.20427 14.2647 6.16985 14.2084L5.03881 12.3071C5.00477 12.2503 4.99257 12.1836 5.0044 12.1188C5.01623 12.0541 5.05132 11.9955 5.10339 11.9537L6.29901 11.0421C6.27351 10.8624 6.26006 10.6814 6.25874 10.5C6.25976 10.3212 6.27322 10.1428 6.29901 9.96578L5.10339 9.05422C5.05132 9.01234 5.01623 8.9538 5.0044 8.88906C4.99257 8.82431 5.00477 8.75758 5.03881 8.70078L6.16985 6.79922C6.20423 6.74292 6.2579 6.70024 6.32141 6.67868C6.38491 6.65712 6.4542 6.65805 6.51707 6.68133L7.92288 7.23133C8.21561 7.01181 8.53596 6.82963 8.87613 6.68922L9.08633 5.23578C9.09809 5.17068 9.13271 5.11157 9.18426 5.06857C9.23581 5.02556 9.3011 5.00133 9.36896 5H11.631C11.6977 5.00126 11.7619 5.02448 11.8132 5.06587C11.8646 5.10726 11.9 5.16438 11.9137 5.22789L12.1239 6.68133C12.4654 6.82001 12.7864 7.00249 13.0783 7.22391L14.4829 6.67391C14.5458 6.65062 14.615 6.64965 14.6785 6.67116C14.742 6.69268 14.7957 6.73532 14.8302 6.79157L15.9612 8.69313C15.9952 8.74993 16.0074 8.81666 15.9956 8.88141C15.9838 8.94615 15.9487 9.00469 15.8966 9.04657L14.701 9.95813C14.7265 10.1377 14.7399 10.3187 14.7413 10.5Z" fill="black"/>
</svg>
