<svg width="20" height="21" viewBox="0 0 20 21" fill="none" xmlns="http://www.w3.org/2000/svg">
<path d="M11.5 7C12.6046 7 13.5 6.10457 13.5 5C13.5 3.89543 12.6046 3 11.5 3C10.3954 3 9.5 3.89543 9.5 5C9.5 6.10457 10.3954 7 11.5 7Z" stroke="#8F8F8F" stroke-miterlimit="10" stroke-linecap="round" stroke-linejoin="round"/>
<path d="M11.5 1V1.5" stroke="#8F8F8F" stroke-miterlimit="10" stroke-linecap="round" stroke-linejoin="round"/>
<path d="M8.0498 3L8.4498 3.25" stroke="#8F8F8F" stroke-miterlimit="10" stroke-linecap="round" stroke-linejoin="round"/>
<path d="M14.9498 7L14.5498 6.75" stroke="#8F8F8F" stroke-miterlimit="10" stroke-linecap="round" stroke-linejoin="round"/>
<path d="M14.9498 3L14.5498 3.25" stroke="#8F8F8F" stroke-miterlimit="10" stroke-linecap="round" stroke-linejoin="round"/>
<path d="M1 12H16" stroke="#8F8F8F" stroke-miterlimit="10" stroke-linecap="round" stroke-linejoin="round"/>
<path d="M3 14H14" stroke="#8F8F8F" stroke-miterlimit="10" stroke-linecap="round" stroke-linejoin="round"/>
<path d="M5.5 16H11.5" stroke="#8F8F8F" stroke-miterlimit="10" stroke-linecap="round" stroke-linejoin="round"/>
<path d="M2.5 12L8 8L11 9C11.65 10.3 12.75 11.3 14.1 11.85L14.5 12" stroke="#8F8F8F" stroke-miterlimit="10" stroke-linecap="round" stroke-linejoin="round"/>
<circle cx="15" cy="16" r="5" fill="white"/>
<path d="M15.111 13.9048C15.9655 13.9048 16.5109 13.6316 16.5109 13.4442V12.9277C16.1837 13.1317 15.6454 13.2367 15.111 13.2367C14.5766 13.2367 14.0385 13.1317 13.7114 12.9279V13.4433C13.7114 13.6316 14.2568 13.9048 15.111 13.9048Z" fill="#8F8F8F"/>
<path d="M15.111 12.9213C15.9655 12.9213 16.5109 12.6482 16.5109 12.4607C16.5109 12.2731 15.9655 12 15.111 12C14.2565 12 13.7114 12.2718 13.7114 12.46C13.7114 12.6482 14.2568 12.9213 15.111 12.9213Z" fill="#8F8F8F"/>
<path d="M12.881 14.8092C13.2078 14.8092 13.4881 14.7689 13.7112 14.7092C13.7691 14.6935 13.8216 14.6763 13.8714 14.6585C13.89 14.6519 13.908 14.6453 13.9254 14.6383C13.969 14.6214 14.0118 14.6022 14.0534 14.5808C14.0639 14.5754 14.0723 14.5698 14.082 14.5644C14.1112 14.5481 14.1393 14.5298 14.1661 14.5098C14.1732 14.5045 14.1811 14.4992 14.1875 14.4933C14.211 14.4742 14.2319 14.452 14.2497 14.4275C14.2531 14.4226 14.2557 14.4178 14.2585 14.4129C14.2731 14.394 14.281 14.3709 14.281 14.3471C14.281 14.3233 14.2731 14.3001 14.2585 14.2813C14.2557 14.2763 14.2531 14.2716 14.2497 14.2666C14.2319 14.2421 14.211 14.22 14.1875 14.2008C14.1811 14.1955 14.1732 14.1903 14.1661 14.1844C14.1392 14.1644 14.111 14.1462 14.0818 14.1297C14.0721 14.1243 14.0639 14.1187 14.0536 14.1133C14.0119 14.0919 13.9691 14.0727 13.9254 14.0559C13.908 14.049 13.89 14.0422 13.8714 14.0356C13.8221 14.0177 13.7691 14.0006 13.7112 13.985C13.4881 13.9251 13.2078 13.8848 12.881 13.8848C12.0268 13.8848 11.4814 14.1584 11.4814 14.3464C11.4814 14.5345 12.0268 14.8092 12.881 14.8092Z" fill="#8F8F8F"/>
<path d="M18.9735 16.594C18.9622 16.5768 18.9475 16.5619 18.9304 16.5504C18.9133 16.5388 18.8941 16.5307 18.8738 16.5266C18.8536 16.5225 18.8328 16.5224 18.8125 16.5263C18.7922 16.5303 18.7729 16.5382 18.7557 16.5496L14.4686 19.3909L11.2222 17.9233C11.1841 17.9062 11.1408 17.9048 11.1018 17.9195C11.0628 17.9342 11.0312 17.9639 11.014 18.0019C10.9968 18.0399 10.9954 18.0832 11.0101 18.1223C11.0249 18.1613 11.0545 18.1929 11.0925 18.2101L14.4181 19.7135C14.4385 19.7226 14.4606 19.7273 14.483 19.7273C14.5138 19.7274 14.544 19.7183 14.5697 19.7011L18.9294 16.8118C18.9467 16.8005 18.9615 16.7858 18.973 16.7687C18.9845 16.7515 18.9926 16.7323 18.9967 16.7121C19.0008 16.6919 19.0008 16.671 18.9969 16.6507C18.9929 16.6305 18.985 16.6112 18.9735 16.594Z" fill="#8F8F8F"/>
<path d="M11.0909 17.5183L12.043 17.9633L13.6566 18.7175L14.4096 19.0696C14.4342 19.081 14.4613 19.0858 14.4884 19.0837C14.5154 19.0816 14.5415 19.0726 14.5641 19.0576L15.2003 18.6298L17.9463 16.7872L18.819 16.201C18.8422 16.1855 18.8609 16.1641 18.8731 16.1391C18.8853 16.114 18.8906 16.0861 18.8885 16.0583C18.8863 16.0305 18.8768 16.0038 18.861 15.9809C18.8451 15.958 18.8234 15.9397 18.7981 15.9279L17.8482 15.4837L16.5103 14.8585V13.9043C16.1798 14.1106 15.6352 14.2187 15.1109 14.2187C14.9262 14.2185 14.7417 14.2048 14.559 14.1779C14.5828 14.2311 14.5952 14.2886 14.5955 14.3469V15.0314L14.2811 15.2288V14.8083C14.2398 14.8338 14.1972 14.857 14.1534 14.8778C14.132 14.8881 14.1085 14.8973 14.086 14.907C14.0634 14.9168 14.0381 14.9281 14.0126 14.9378C13.981 14.9498 13.9476 14.9607 13.9139 14.9707C13.8958 14.9765 13.8782 14.9827 13.8597 14.9883C13.8219 14.9997 13.7826 15.0099 13.7431 15.0197C13.461 15.089 13.1716 15.1239 12.8812 15.1236C12.357 15.1236 11.8126 15.0151 11.4816 14.8087V15.3302C11.4816 15.5184 12.027 15.7918 12.8812 15.7918C13.074 15.7925 13.2666 15.7774 13.457 15.7466L12.8841 16.1062H12.8805C12.3463 16.1062 11.8082 16.0013 11.481 15.7973V16.3129C11.481 16.4234 11.6746 16.5618 12.0048 16.6584L11.961 16.6865L11.0738 17.2426C11.0498 17.2576 11.0304 17.2788 11.0175 17.3039C11.0045 17.329 10.9986 17.3571 11.0003 17.3853C11.002 17.4135 11.0112 17.4407 11.027 17.4641C11.0428 17.4875 11.0647 17.5062 11.0902 17.5183H11.0909ZM14.4624 18.7466L13.9553 18.5099C13.9576 18.5071 13.9589 18.5036 13.9614 18.501C13.9693 18.4919 13.9789 18.4845 13.9872 18.4763C14.0165 18.4465 14.0485 18.4195 14.083 18.3959C14.0973 18.3862 14.1121 18.3772 14.1273 18.369C14.1603 18.3504 14.195 18.3348 14.2309 18.3225C14.2464 18.3171 14.2613 18.311 14.2771 18.306C14.3771 18.2773 14.4829 18.2758 14.5836 18.3018C14.5978 18.3052 14.6114 18.31 14.6254 18.3143C14.6585 18.3245 14.6907 18.3374 14.7217 18.3528C14.7353 18.3597 14.7491 18.3664 14.7623 18.3741C14.7964 18.3946 14.8286 18.4181 14.8584 18.4444C14.865 18.4501 14.8724 18.4548 14.8786 18.4608C14.8798 18.462 14.8806 18.4635 14.8817 18.4646L14.4624 18.7466ZM17.8571 15.8993C17.8594 15.8882 17.8614 15.8774 17.864 15.8664C17.866 15.8581 17.8702 15.8499 17.8726 15.8418L18.4135 16.0942L17.9148 16.429C17.9112 16.421 17.9086 16.4126 17.9051 16.4043C17.8887 16.3636 17.8752 16.3217 17.8648 16.279C17.8612 16.2643 17.8576 16.2497 17.8548 16.2349C17.8442 16.1807 17.8387 16.1256 17.8383 16.0704C17.8388 16.0128 17.8451 15.9555 17.8571 15.8993ZM15.5938 14.7766L16.0757 15.002C16.0729 15.0053 16.0712 15.0097 16.0684 15.013C16.0584 15.0245 16.0465 15.0341 16.0355 15.0449C16.0077 15.0736 15.9773 15.0996 15.9447 15.1227C15.9296 15.1333 15.9138 15.1428 15.8978 15.1522C15.8645 15.1711 15.8296 15.1871 15.7935 15.1999C15.7771 15.2056 15.7623 15.2124 15.7458 15.2163C15.6923 15.2316 15.6369 15.2397 15.5813 15.2404C15.5322 15.2398 15.4834 15.2335 15.4358 15.2218C15.4217 15.2183 15.408 15.2135 15.3944 15.2093C15.3608 15.199 15.3281 15.1859 15.2967 15.1701C15.2837 15.1635 15.2703 15.1573 15.2577 15.1497C15.2201 15.1275 15.1848 15.1016 15.1524 15.0724C15.1489 15.0691 15.1448 15.0668 15.1414 15.0635C15.1414 15.0635 15.14 15.0617 15.1392 15.0609L15.5938 14.7766ZM14.8684 15.2326C14.8729 15.2376 14.8786 15.2412 14.8831 15.2461C14.9227 15.29 14.9664 15.3301 15.0135 15.3659C15.0152 15.367 15.0166 15.3687 15.0185 15.37C15.0669 15.405 15.1185 15.4353 15.1726 15.4607C15.1826 15.4654 15.1924 15.4704 15.2026 15.4748C15.2556 15.4981 15.3106 15.5164 15.3671 15.5294C15.3776 15.5319 15.3883 15.5335 15.3988 15.5357C15.4592 15.5481 15.5206 15.5547 15.5823 15.5553C15.625 15.555 15.6676 15.5519 15.7099 15.5459C15.7238 15.5441 15.7371 15.5406 15.7507 15.5381C15.7789 15.533 15.8068 15.5273 15.8341 15.5197C15.8496 15.5154 15.8646 15.5103 15.8797 15.5052C15.9047 15.4969 15.9291 15.4878 15.9536 15.4774C15.9687 15.471 15.9834 15.4643 15.998 15.4572C16.0219 15.4455 16.0447 15.4329 16.0674 15.4194C16.0809 15.4113 16.0944 15.4029 16.1076 15.3948C16.1316 15.3784 16.1545 15.3619 16.1772 15.3432C16.1872 15.3351 16.1979 15.3277 16.2076 15.3192C16.2688 15.2665 16.323 15.2063 16.3692 15.14L17.5815 15.7066C17.5739 15.73 17.5707 15.7538 17.5651 15.7774C17.5596 15.7981 17.5542 15.8188 17.5499 15.8399C17.5335 15.9159 17.5247 15.9933 17.5238 16.071C17.5241 16.1254 17.5281 16.1796 17.5358 16.2334C17.5381 16.2499 17.5415 16.2663 17.5445 16.2828C17.5511 16.3204 17.5593 16.3576 17.5695 16.3943C17.5744 16.4117 17.5794 16.4292 17.585 16.4463C17.5978 16.4854 17.6126 16.5238 17.6294 16.5615C17.6348 16.5735 17.6391 16.5858 17.6449 16.5975C17.6467 16.6014 17.648 16.6054 17.6498 16.6092L15.1491 18.2873C15.1446 18.2823 15.1391 18.2789 15.1344 18.2741C15.0944 18.2302 15.0503 18.1902 15.0028 18.1545C15.002 18.154 15.0013 18.1534 15.0007 18.1527C14.9525 18.1183 14.9011 18.0885 14.8474 18.0637C14.8372 18.0588 14.8273 18.0537 14.8169 18.0492C14.7643 18.0265 14.7097 18.0086 14.6539 17.9957C14.643 17.9933 14.632 17.9916 14.621 17.9895C14.5614 17.9774 14.5008 17.971 14.44 17.9704C14.37 17.971 14.3002 17.9794 14.2321 17.9954C14.2212 17.9979 14.2102 17.9995 14.1991 18.0023C14.136 18.0189 14.0748 18.042 14.0164 18.0713C14.0052 18.0769 13.9943 18.0828 13.9835 18.0889C13.9254 18.1202 13.8708 18.1576 13.8204 18.2002C13.8148 18.2052 13.8099 18.2108 13.804 18.2157C13.7552 18.26 13.7111 18.3092 13.6724 18.3625C13.6694 18.3664 13.6654 18.3692 13.6626 18.3732L12.311 17.7414C12.3184 17.7184 12.3216 17.6948 12.3274 17.6716C12.3328 17.6511 12.3381 17.6305 12.3422 17.6098C12.3584 17.5341 12.367 17.4569 12.3679 17.3795C12.367 17.302 12.3585 17.2249 12.3424 17.1491C12.3389 17.131 12.3351 17.1133 12.3307 17.0953C12.313 17.0209 12.2883 16.9484 12.2568 16.8787C12.256 16.8768 12.2558 16.8749 12.255 16.8731L14.8684 15.2326ZM11.9829 17.0432C11.9864 17.0514 11.989 17.0596 11.9921 17.0682C12.0065 17.1057 12.0182 17.1442 12.0273 17.1833C12.0306 17.1975 12.0341 17.2115 12.0367 17.2258C12.0464 17.2764 12.0516 17.3278 12.0522 17.3793C12.0515 17.4365 12.045 17.4935 12.0329 17.5494C12.0308 17.5599 12.029 17.5706 12.0265 17.5813C12.0245 17.5892 12.0206 17.5968 12.0184 17.6045L11.4857 17.3556L11.9829 17.0432Z" fill="#8F8F8F"/>
<path d="M14.1517 16.2695C14.1235 16.3275 14.1012 16.3881 14.085 16.4505C14.0612 16.5382 14.0553 16.6297 14.0674 16.7197C14.0788 16.8029 14.1085 16.8826 14.1545 16.953C14.2018 17.0237 14.2662 17.0813 14.3418 17.1204C14.4092 17.1545 14.4826 17.1748 14.5579 17.1802C14.6332 17.1855 14.7088 17.1758 14.7803 17.1515C14.9047 17.1084 15.023 17.0245 15.1241 16.9077L15.5958 17.2162C15.532 17.2887 15.4685 17.3381 15.4063 17.3629C15.324 17.3958 15.2503 17.4006 15.1881 17.3794C15.1194 17.3465 15.0401 17.372 14.9917 17.4417C14.9769 17.4601 14.9664 17.4816 14.961 17.5046C14.9555 17.5275 14.9553 17.5514 14.9603 17.5745C14.9653 17.5958 14.9758 17.6153 14.9908 17.6312C15.0057 17.6472 15.0246 17.6588 15.0455 17.6652C15.1212 17.6966 15.2028 17.711 15.2847 17.7074C15.3666 17.7038 15.4467 17.6823 15.5193 17.6444C15.645 17.5796 15.7555 17.4888 15.8436 17.3782L15.8793 17.4014C15.8995 17.4156 15.9228 17.4247 15.9472 17.4281C15.9716 17.4315 15.9965 17.4291 16.0198 17.421C16.0578 17.4073 16.0903 17.3817 16.1126 17.348C16.1341 17.3143 16.1452 17.275 16.1443 17.2351C16.1438 17.2095 16.1369 17.1845 16.1243 17.1622C16.1117 17.14 16.0938 17.1212 16.0721 17.1076L16.0326 17.0816C16.093 16.9456 16.1113 16.8207 16.0871 16.7098C16.058 16.5764 15.9967 16.4732 15.9061 16.4036C15.8574 16.3643 15.8029 16.3329 15.7445 16.3103C15.6771 16.284 15.6052 16.2712 15.5328 16.2725H15.532C15.4501 16.2777 15.3703 16.3001 15.2977 16.3383C15.2278 16.3739 15.1639 16.42 15.108 16.475L14.6279 16.1603C14.662 16.1455 14.6977 16.1351 14.7344 16.1294C14.7666 16.1247 14.7995 16.126 14.8313 16.1332C14.866 16.1417 14.8996 16.1543 14.9313 16.1708C15.0246 16.2166 15.1011 16.169 15.1361 16.1019C15.1717 16.0318 15.1551 15.9578 15.0837 15.888C14.9443 15.8015 14.8007 15.7761 14.6559 15.8138C14.5441 15.8436 14.442 15.9021 14.3598 15.9836L14.3012 15.9464C14.2803 15.9328 14.2565 15.9242 14.2317 15.9213C14.2069 15.9185 14.1817 15.9214 14.1582 15.93C14.074 15.9619 14.0283 16.0358 14.036 16.1294C14.0392 16.1521 14.0473 16.1738 14.0597 16.193C14.0722 16.2123 14.0887 16.2286 14.1081 16.2407L14.1517 16.2695ZM15.4918 16.5894C15.5576 16.579 15.63 16.6009 15.7187 16.6601L15.7248 16.665C15.7371 16.6751 15.7478 16.687 15.7566 16.7003C15.7709 16.7193 15.7816 16.7407 15.7883 16.7636C15.796 16.7988 15.7973 16.8352 15.7919 16.8709C15.7899 16.8866 15.7864 16.9022 15.7814 16.9173L15.3689 16.6468C15.4051 16.6188 15.4471 16.5991 15.4918 16.5894ZM14.4011 16.4332L14.8696 16.7406C14.8479 16.7613 14.8242 16.7799 14.7989 16.796C14.7582 16.8226 14.7139 16.843 14.6673 16.8567C14.6417 16.8647 14.6146 16.8666 14.5881 16.8623C14.5599 16.8562 14.5325 16.8466 14.5067 16.8337C14.4712 16.8136 14.4407 16.7857 14.4175 16.7521C14.3944 16.7186 14.3791 16.6802 14.3729 16.6399C14.3619 16.5782 14.3711 16.5088 14.4011 16.4332Z" fill="#8F8F8F"/>
</svg>
