<svg width="28" height="29" viewBox="0 0 28 29" fill="none" xmlns="http://www.w3.org/2000/svg">
<path d="M15.5143 9.29331C17.041 9.29331 18.2787 8.05568 18.2787 6.52898C18.2787 5.00228 17.041 3.76465 15.5143 3.76465C13.9876 3.76465 12.75 5.00228 12.75 6.52898C12.75 8.05568 13.9876 9.29331 15.5143 9.29331Z" stroke="#32B38C" stroke-miterlimit="10" stroke-linecap="round" stroke-linejoin="round"/>
<path d="M15.5117 1V1.69108" stroke="#32B38C" stroke-miterlimit="10" stroke-linecap="round" stroke-linejoin="round"/>
<path d="M10.7422 3.76465L11.2951 4.11019" stroke="#32B38C" stroke-miterlimit="10" stroke-linecap="round" stroke-linejoin="round"/>
<path d="M20.2794 9.29281L19.7266 8.94727" stroke="#32B38C" stroke-miterlimit="10" stroke-linecap="round" stroke-linejoin="round"/>
<path d="M20.2794 3.76465L19.7266 4.11019" stroke="#32B38C" stroke-miterlimit="10" stroke-linecap="round" stroke-linejoin="round"/>
<path d="M1 16.2041H21.7325" stroke="#32B38C" stroke-miterlimit="10" stroke-linecap="round" stroke-linejoin="round"/>
<path d="M3.76562 18.9678H18.9694" stroke="#32B38C" stroke-miterlimit="10" stroke-linecap="round" stroke-linejoin="round"/>
<path d="M7.21875 21.7324H15.5117" stroke="#32B38C" stroke-miterlimit="10" stroke-linecap="round" stroke-linejoin="round"/>
<path d="M3.07422 16.2035L10.6761 10.6748L14.8226 12.057C15.721 13.8538 17.2414 15.2359 19.1073 15.9961L19.6602 16.2035" stroke="#32B38C" stroke-miterlimit="10" stroke-linecap="round" stroke-linejoin="round"/>
<circle cx="20.3483" cy="21.7321" r="6.91083" fill="white"/>
<path d="M20.5008 18.8349C21.6819 18.8349 22.4357 18.4572 22.4357 18.1982V17.4844C21.9835 17.7663 21.2394 17.9114 20.5008 17.9114C19.7623 17.9114 19.0185 17.7663 18.5664 17.4846V18.197C18.5664 18.4572 19.3202 18.8349 20.5008 18.8349Z" fill="#32B38C"/>
<path d="M20.5008 17.4756C21.6819 17.4756 22.4357 17.0981 22.4357 16.8389C22.4357 16.5796 21.6819 16.2021 20.5008 16.2021C19.3198 16.2021 18.5664 16.5778 18.5664 16.8379C18.5664 17.0981 19.3202 17.4756 20.5008 17.4756Z" fill="#32B38C"/>
<path d="M17.4188 20.0853C17.8704 20.0853 18.2579 20.0296 18.5662 19.9471C18.6463 19.9255 18.7188 19.9016 18.7877 19.8771C18.8134 19.868 18.8382 19.8589 18.8623 19.8491C18.9226 19.8258 18.9817 19.7993 19.0392 19.7697C19.0538 19.7622 19.0654 19.7545 19.0788 19.747C19.1192 19.7244 19.158 19.6992 19.195 19.6715C19.2048 19.6642 19.2157 19.6569 19.2245 19.6487C19.257 19.6223 19.2859 19.5917 19.3105 19.5578C19.3153 19.551 19.3189 19.5444 19.3228 19.5376C19.3429 19.5115 19.3538 19.4795 19.3538 19.4466C19.3538 19.4137 19.3429 19.3817 19.3228 19.3556C19.3189 19.3488 19.3153 19.3422 19.3105 19.3354C19.2859 19.3015 19.257 19.2709 19.2245 19.2444C19.2157 19.2372 19.2048 19.2299 19.195 19.2217C19.1578 19.1941 19.1189 19.1689 19.0786 19.1462C19.0651 19.1387 19.0538 19.131 19.0394 19.1235C18.9818 19.0939 18.9227 19.0674 18.8623 19.0441C18.8382 19.0346 18.8134 19.0252 18.7877 19.0161C18.7195 18.9914 18.6463 18.9677 18.5662 18.9461C18.2579 18.8633 17.8704 18.8076 17.4188 18.8076C16.2382 18.8076 15.4844 19.1858 15.4844 19.4457C15.4844 19.7056 16.2382 20.0853 17.4188 20.0853Z" fill="#32B38C"/>
<path d="M25.841 22.5517C25.8253 22.5278 25.8051 22.5073 25.7814 22.4913C25.7578 22.4753 25.7312 22.4642 25.7033 22.4585C25.6753 22.4528 25.6465 22.4526 25.6184 22.4581C25.5904 22.4636 25.5638 22.4745 25.54 22.4903L19.6146 26.4174L15.1274 24.389C15.0748 24.3652 15.015 24.3633 14.961 24.3837C14.9071 24.4041 14.8634 24.445 14.8396 24.4976C14.8159 24.5501 14.814 24.61 14.8343 24.664C14.8547 24.7179 14.8956 24.7616 14.9482 24.7854L19.5447 26.8633C19.5729 26.8759 19.6035 26.8824 19.6343 26.8824C19.677 26.8825 19.7187 26.8699 19.7542 26.8462L25.7801 22.8527C25.8039 22.837 25.8244 22.8167 25.8403 22.793C25.8563 22.7694 25.8674 22.7428 25.873 22.7148C25.8787 22.6869 25.8788 22.6581 25.8733 22.6301C25.8678 22.6021 25.8568 22.5754 25.841 22.5517Z" fill="#32B38C"/>
<path d="M14.9459 23.8291L16.2618 24.4442L18.4921 25.4866L19.5329 25.9732C19.5669 25.989 19.6044 25.9957 19.6418 25.9928C19.6792 25.9899 19.7152 25.9775 19.7464 25.9566L20.6258 25.3654L24.4212 22.8186L25.6275 22.0084C25.6596 21.987 25.6853 21.9575 25.7022 21.9228C25.7191 21.8882 25.7264 21.8496 25.7235 21.8112C25.7205 21.7728 25.7074 21.7358 25.6855 21.7042C25.6635 21.6725 25.6336 21.6472 25.5986 21.6309L24.2857 21.017L22.4365 20.1529V18.834C21.9797 19.1191 21.227 19.2685 20.5023 19.2685C20.2469 19.2682 19.992 19.2494 19.7394 19.2121C19.7723 19.2856 19.7895 19.3652 19.7899 19.4457V20.3919L19.3553 20.6647V20.0835C19.2983 20.1187 19.2394 20.1508 19.1788 20.1795C19.1493 20.1938 19.1168 20.2065 19.0856 20.2199C19.0545 20.2334 19.0194 20.2491 18.9842 20.2625C18.9405 20.2791 18.8944 20.2941 18.8478 20.308C18.8228 20.3159 18.7984 20.3246 18.773 20.3323C18.7207 20.348 18.6663 20.3621 18.6117 20.3757C18.2219 20.4714 17.8219 20.5196 17.4204 20.5192C16.6959 20.5192 15.9435 20.3693 15.486 20.084V20.8048C15.486 21.0649 16.2398 21.4429 17.4204 21.4429C17.687 21.4438 17.9531 21.4229 18.2163 21.3803L17.4245 21.8774H17.4195C16.6812 21.8774 15.9374 21.7323 15.4851 21.4504V22.163C15.4851 22.3158 15.7527 22.5071 16.2091 22.6406L16.1486 22.6794L14.9223 23.448C14.8892 23.4688 14.8623 23.498 14.8444 23.5328C14.8266 23.5675 14.8184 23.6064 14.8207 23.6453C14.823 23.6843 14.8358 23.7219 14.8577 23.7543C14.8795 23.7866 14.9097 23.8125 14.945 23.8291H14.9459ZM19.6059 25.5269L18.9051 25.1996C18.9083 25.1958 18.9101 25.191 18.9135 25.1874C18.9244 25.1749 18.9376 25.1646 18.9492 25.1533C18.9896 25.112 19.0339 25.0747 19.0815 25.0421C19.1013 25.0287 19.1217 25.0163 19.1427 25.005C19.1884 24.9792 19.2363 24.9576 19.286 24.9406C19.3073 24.9331 19.328 24.9247 19.3498 24.9179C19.488 24.8782 19.6343 24.8761 19.7735 24.912C19.793 24.9168 19.8119 24.9234 19.8312 24.9293C19.8769 24.9434 19.9214 24.9612 19.9643 24.9825C19.9831 24.992 20.0022 25.0014 20.0204 25.012C20.0676 25.0403 20.112 25.0728 20.1532 25.1091C20.1623 25.1171 20.1726 25.1235 20.1812 25.1319C20.1828 25.1335 20.1839 25.1355 20.1855 25.1371L19.6059 25.5269ZM24.2979 21.5914C24.3011 21.5761 24.3038 21.5611 24.3075 21.5459C24.3102 21.5345 24.3161 21.5231 24.3193 21.512L25.067 21.8608L24.3778 22.3236C24.3727 22.3124 24.3691 22.3008 24.3643 22.2895C24.3416 22.2331 24.323 22.1752 24.3086 22.1162C24.3036 22.0959 24.2986 22.0757 24.2948 22.0552C24.2802 21.9803 24.2726 21.9042 24.272 21.8278C24.2727 21.7484 24.2814 21.6691 24.2979 21.5914ZM21.1697 20.0396L21.8357 20.3512C21.8319 20.3557 21.8296 20.3618 21.8257 20.3664C21.8118 20.3823 21.7955 20.3955 21.7802 20.4105C21.7418 20.4501 21.6998 20.4862 21.6547 20.5181C21.6338 20.5326 21.612 20.5458 21.5899 20.5588C21.5439 20.585 21.4956 20.607 21.4457 20.6247C21.423 20.6327 21.4025 20.642 21.3798 20.6474C21.3058 20.6686 21.2293 20.6797 21.1524 20.6806C21.0846 20.6798 21.0172 20.6712 20.9514 20.655C20.9318 20.6502 20.913 20.6436 20.8941 20.6377C20.8476 20.6234 20.8024 20.6053 20.759 20.5836C20.741 20.5745 20.7226 20.5658 20.7051 20.5554C20.6531 20.5247 20.6044 20.4889 20.5596 20.4485C20.5548 20.4439 20.5491 20.4407 20.5443 20.4362C20.5443 20.4362 20.5425 20.4337 20.5414 20.4326L21.1697 20.0396ZM20.1671 20.67C20.1732 20.6768 20.1812 20.6818 20.1873 20.6886C20.2422 20.7493 20.3026 20.8047 20.3677 20.8542C20.3699 20.8557 20.372 20.858 20.3745 20.8598C20.4414 20.9082 20.5128 20.9501 20.5876 20.9851C20.6014 20.9917 20.6148 20.9985 20.6289 21.0047C20.7022 21.0369 20.7783 21.0622 20.8563 21.0802C20.8709 21.0836 20.8857 21.0859 20.9002 21.0888C20.9837 21.106 21.0686 21.1151 21.1538 21.1159C21.2128 21.1156 21.2718 21.1113 21.3302 21.1029C21.3493 21.1004 21.3677 21.0956 21.3866 21.0922C21.4255 21.0852 21.4642 21.0772 21.5019 21.0668C21.5233 21.0609 21.544 21.0538 21.5649 21.0468C21.5995 21.0352 21.6331 21.0226 21.667 21.0083C21.6879 20.9995 21.7081 20.9901 21.7284 20.9804C21.7614 20.9642 21.793 20.9467 21.8243 20.9281C21.843 20.9169 21.8616 20.9053 21.8798 20.8942C21.913 20.8714 21.9446 20.8487 21.976 20.8228C21.9899 20.8116 22.0047 20.8014 22.0181 20.7896C22.1026 20.7167 22.1776 20.6335 22.2414 20.5419L23.9171 21.3251C23.9066 21.3574 23.902 21.3903 23.8943 21.4229C23.8868 21.4515 23.8793 21.4802 23.8734 21.5093C23.8507 21.6143 23.8386 21.7213 23.8372 21.8288C23.8377 21.9039 23.8433 21.9788 23.8538 22.0532C23.857 22.0759 23.8618 22.0987 23.8659 22.1214C23.875 22.1735 23.8864 22.2249 23.9005 22.2756C23.9073 22.2997 23.9141 22.3238 23.9218 22.3474C23.9396 22.4015 23.9601 22.4546 23.9832 22.5066C23.9907 22.5232 23.9966 22.5403 24.0046 22.5564C24.0071 22.5619 24.0089 22.5673 24.0114 22.5726L20.555 24.892C20.5489 24.8852 20.5412 24.8804 20.5348 24.8738C20.4794 24.8131 20.4185 24.7578 20.3529 24.7085C20.3518 24.7078 20.3508 24.7069 20.3499 24.706C20.2833 24.6584 20.2123 24.6172 20.138 24.583C20.1239 24.5761 20.1103 24.5691 20.0959 24.5629C20.0232 24.5316 19.9478 24.5068 19.8706 24.489C19.8556 24.4856 19.8403 24.4834 19.8251 24.4804C19.7427 24.4637 19.659 24.4549 19.575 24.454C19.4782 24.4549 19.3818 24.4665 19.2875 24.4886C19.2725 24.492 19.2573 24.4943 19.2421 24.4981C19.1548 24.5211 19.0701 24.553 18.9894 24.5934C18.974 24.6011 18.959 24.6093 18.944 24.6177C18.8637 24.6611 18.7882 24.7127 18.7186 24.7717C18.7109 24.7785 18.7041 24.7862 18.6959 24.7931C18.6284 24.8543 18.5675 24.9222 18.5139 24.9959C18.5099 25.0014 18.5044 25.0052 18.5005 25.0107L16.6323 24.1375C16.6425 24.1057 16.647 24.0731 16.655 24.0411C16.6625 24.0126 16.6698 23.9842 16.6755 23.9556C16.6979 23.8509 16.7098 23.7443 16.7109 23.6372C16.7097 23.5302 16.6979 23.4236 16.6757 23.3189C16.6709 23.2939 16.6657 23.2693 16.6596 23.2445C16.6351 23.1417 16.6009 23.0414 16.5575 22.945C16.5563 22.9425 16.5561 22.9398 16.555 22.9373L20.1671 20.67ZM16.1788 23.1724C16.1836 23.1838 16.1873 23.1952 16.1916 23.207C16.2114 23.2589 16.2277 23.3121 16.2402 23.3662C16.2448 23.3857 16.2496 23.4051 16.2532 23.4248C16.2667 23.4948 16.2738 23.5658 16.2746 23.637C16.2736 23.7161 16.2647 23.7948 16.248 23.8721C16.245 23.8867 16.2425 23.9015 16.2391 23.9162C16.2364 23.9271 16.2309 23.9376 16.228 23.9483L15.4917 23.6043L16.1788 23.1724Z" fill="#32B38C"/>
<path d="M19.1766 22.1035C19.1377 22.1836 19.1068 22.2674 19.0846 22.3536C19.0517 22.4748 19.0434 22.6013 19.0602 22.7256C19.076 22.8407 19.117 22.9508 19.1805 23.0481C19.2459 23.1459 19.335 23.2255 19.4395 23.2796C19.5326 23.3267 19.6341 23.3547 19.7382 23.3621C19.8422 23.3695 19.9467 23.3561 20.0455 23.3226C20.2174 23.263 20.3809 23.147 20.5208 22.9856L21.1727 23.4119C21.0845 23.5122 20.9967 23.5804 20.9108 23.6148C20.7971 23.6602 20.6952 23.6668 20.6092 23.6375C20.5142 23.592 20.4046 23.6273 20.3377 23.7237C20.3173 23.7491 20.3028 23.7788 20.2952 23.8105C20.2877 23.8423 20.2874 23.8753 20.2943 23.9072C20.3012 23.9366 20.3157 23.9636 20.3364 23.9856C20.3571 24.0076 20.3832 24.0238 20.4121 24.0325C20.5167 24.0759 20.6296 24.0958 20.7427 24.0909C20.8559 24.0859 20.9665 24.0562 21.067 24.0038C21.2406 23.9142 21.3934 23.7888 21.5152 23.6359L21.5645 23.668C21.5924 23.6875 21.6246 23.7001 21.6584 23.7048C21.6921 23.7096 21.7265 23.7062 21.7587 23.695C21.8112 23.6761 21.8562 23.6407 21.887 23.5941C21.9168 23.5476 21.9321 23.4933 21.9308 23.4381C21.9301 23.4027 21.9206 23.3681 21.9032 23.3373C21.8858 23.3066 21.861 23.2806 21.831 23.2618L21.7764 23.2259C21.8599 23.0379 21.8851 22.8653 21.8517 22.712C21.8115 22.5276 21.7269 22.385 21.6016 22.2888C21.5343 22.2345 21.4589 22.191 21.3783 22.1599C21.2851 22.1235 21.1856 22.1058 21.0856 22.1076H21.0845C20.9713 22.1148 20.861 22.1458 20.7607 22.1985C20.6641 22.2477 20.5757 22.3114 20.4985 22.3875L19.835 21.9525C19.882 21.932 19.9314 21.9176 19.9821 21.9098C20.0267 21.9033 20.0721 21.9051 20.116 21.915C20.164 21.9268 20.2104 21.9443 20.2543 21.9671C20.3832 22.0303 20.4889 21.9646 20.5374 21.8718C20.5865 21.7749 20.5635 21.6726 20.4648 21.5762C20.2722 21.4566 20.0737 21.4215 19.8736 21.4736C19.719 21.5148 19.5779 21.5957 19.4643 21.7083L19.3834 21.6569C19.3544 21.638 19.3215 21.6262 19.2872 21.6222C19.2529 21.6183 19.2182 21.6224 19.1857 21.6342C19.0693 21.6783 19.0061 21.7804 19.0168 21.9098C19.0212 21.9411 19.0324 21.9712 19.0496 21.9977C19.0668 22.0243 19.0896 22.0468 19.1164 22.0637L19.1766 22.1035ZM21.029 22.5455C21.12 22.5312 21.22 22.5615 21.3426 22.6433L21.351 22.6501C21.368 22.664 21.3828 22.6804 21.3949 22.6988C21.4147 22.7251 21.4295 22.7548 21.4388 22.7864C21.4494 22.8351 21.4511 22.8853 21.4438 22.9346C21.441 22.9564 21.4361 22.9779 21.4292 22.9987L20.8591 22.6249C20.9092 22.5862 20.9672 22.5591 21.029 22.5455ZM19.5214 22.3298L20.169 22.7545C20.139 22.7832 20.1062 22.8088 20.0712 22.8312C20.015 22.8679 19.9537 22.8961 19.8893 22.9151C19.8539 22.9261 19.8165 22.9287 19.7799 22.9228C19.7409 22.9143 19.7031 22.901 19.6674 22.8832C19.6183 22.8555 19.5762 22.8169 19.5441 22.7705C19.5121 22.7241 19.491 22.6711 19.4825 22.6154C19.4673 22.5301 19.48 22.4341 19.5214 22.3298Z" fill="#32B38C"/>
</svg>
