<svg width="16" height="17" viewBox="0 0 16 17" fill="none" xmlns="http://www.w3.org/2000/svg">
<path d="M12 7C13.1046 7 14 6.10457 14 5C14 3.89543 13.1046 3 12 3C10.8954 3 10 3.89543 10 5C10 6.10457 10.8954 7 12 7Z" stroke="#8F8F8F" stroke-miterlimit="10" stroke-linecap="round" stroke-linejoin="round"/>
<path d="M12 1V1.5" stroke="#8F8F8F" stroke-miterlimit="10" stroke-linecap="round" stroke-linejoin="round"/>
<path d="M12 8.5V9" stroke="#8F8F8F" stroke-miterlimit="10" stroke-linecap="round" stroke-linejoin="round"/>
<path d="M8.5498 3L8.9498 3.25" stroke="#8F8F8F" stroke-miterlimit="10" stroke-linecap="round" stroke-linejoin="round"/>
<path d="M15.4498 7L15.0498 6.75" stroke="#8F8F8F" stroke-miterlimit="10" stroke-linecap="round" stroke-linejoin="round"/>
<path d="M15.4498 3L15.0498 3.25" stroke="#8F8F8F" stroke-miterlimit="10" stroke-linecap="round" stroke-linejoin="round"/>
<path d="M13.5 16C12.05 14.2 9.8 13 7.25 13C4.7 13 2.45 14.2 1 16H13.5Z" stroke="#8F8F8F" stroke-miterlimit="10" stroke-linecap="round" stroke-linejoin="round"/>
<path d="M5.50035 6C3.20035 6 1.30035 7.7 1.05035 9.95C1.00035 10.25 1.25035 10.5 1.55035 10.5H9.50035C9.80035 10.5 10.0503 10.25 10.0003 9.95C9.70035 7.7 7.80035 6 5.50035 6Z" stroke="#8F8F8F" stroke-miterlimit="10" stroke-linecap="round" stroke-linejoin="round"/>
<path d="M7.5 10.5C7.4 7.95 6.55 6 5.5 6C4.45 6 3.65 7.95 3.5 10.5" stroke="#8F8F8F" stroke-miterlimit="10" stroke-linecap="round" stroke-linejoin="round"/>
<path d="M5.5 10.5V13" stroke="#8F8F8F" stroke-miterlimit="10" stroke-linecap="round" stroke-linejoin="round"/>
</svg>
