<svg width="22" height="23" viewBox="0 0 22 23" fill="none" xmlns="http://www.w3.org/2000/svg">
<path d="M16.2057 9.29331C17.7324 9.29331 18.9701 8.05568 18.9701 6.52898C18.9701 5.00228 17.7324 3.76465 16.2057 3.76465C14.679 3.76465 13.4414 5.00228 13.4414 6.52898C13.4414 8.05568 14.679 9.29331 16.2057 9.29331Z" stroke="#32B38C" stroke-miterlimit="10" stroke-linecap="round" stroke-linejoin="round"/>
<path d="M16.2031 1V1.69108" stroke="#32B38C" stroke-miterlimit="10" stroke-linecap="round" stroke-linejoin="round"/>
<path d="M16.2031 11.3662V12.0573" stroke="#32B38C" stroke-miterlimit="10" stroke-linecap="round" stroke-linejoin="round"/>
<path d="M11.4375 3.76465L11.9904 4.11019" stroke="#32B38C" stroke-miterlimit="10" stroke-linecap="round" stroke-linejoin="round"/>
<path d="M20.9747 9.29281L20.4219 8.94727" stroke="#32B38C" stroke-miterlimit="10" stroke-linecap="round" stroke-linejoin="round"/>
<path d="M20.9747 3.76465L20.4219 4.11019" stroke="#32B38C" stroke-miterlimit="10" stroke-linecap="round" stroke-linejoin="round"/>
<path d="M18.2771 21.7324C16.2729 19.2445 13.1631 17.5859 9.63853 17.5859C6.11401 17.5859 3.00414 19.2445 1 21.7324H18.2771Z" stroke="#32B38C" stroke-miterlimit="10" stroke-linecap="round" stroke-linejoin="round"/>
<path d="M7.21808 7.91113C4.0391 7.91113 1.41298 10.2608 1.06744 13.3707C0.998335 13.7853 1.34388 14.1309 1.75853 14.1309H12.7467C13.1614 14.1309 13.5069 13.7853 13.4378 13.3707C13.0232 10.2608 10.3971 7.91113 7.21808 7.91113Z" stroke="#32B38C" stroke-miterlimit="10" stroke-linecap="round" stroke-linejoin="round"/>
<path d="M9.98569 14.1309C9.84748 10.6064 8.67263 7.91113 7.22136 7.91113C5.77009 7.91113 4.66436 10.6064 4.45703 14.1309" stroke="#32B38C" stroke-miterlimit="10" stroke-linecap="round" stroke-linejoin="round"/>
<path d="M7.21875 14.1309V17.5863" stroke="#32B38C" stroke-miterlimit="10" stroke-linecap="round" stroke-linejoin="round"/>
</svg>
