<svg width="88" height="89" viewBox="0 0 88 89" fill="none" xmlns="http://www.w3.org/2000/svg">
<g filter="url(#filter0_d_1_11224)">
<circle cx="44.1838" cy="44.5005" r="33.6626" fill="white"/>
</g>
<path d="M57.4838 42.9909C57.2322 39.4316 55.8405 36.1229 53.5103 33.5886C51.264 31.1446 48.373 29.6684 45.2641 29.3532C45.5867 28.9977 45.7861 28.507 45.7861 27.965C45.7861 26.8798 44.9864 26 43.9997 26C43.0131 26 42.2133 26.8798 42.2133 27.965C42.2133 28.507 42.4128 28.9977 42.7354 29.3532C39.6264 29.6683 36.7355 31.1446 34.4891 33.5886C32.1589 36.1229 30.7673 39.4316 30.5157 42.9909H28.9997V45.0114H32.061V46.4249L36.2487 48.7208L46.6048 50.486L46.6403 50.4914C46.644 50.4914 47.0009 50.5473 47.3413 50.7554C47.8483 51.0665 47.9131 51.4673 47.9131 51.7825V52.2384H46.8221V59H57.2193V52.2384H55.8166V46.9544L54.0227 45.0114H58.9997V42.991H57.4838V42.9909ZM38.6187 33.1604L39.3724 35.0029C36.1514 36.5971 35.3977 40.0324 35.3904 40.0668L33.6008 39.6122C33.6387 39.4316 34.576 35.1612 38.6187 33.1604ZM49.9502 56.3836H48.7257V55.0366H49.9502V56.3836ZM53.9799 52.2384H49.7499V51.7824C49.7499 49.4785 47.8777 48.6218 46.8699 48.4865L36.812 46.7725L33.8977 45.175V45.0114H51.4048L53.9799 47.8002V52.2384H53.9799Z" fill="#32B38C"/>
<defs>
<filter id="filter0_d_1_11224" x="0.521214" y="0.837891" width="87.3252" height="87.3262" filterUnits="userSpaceOnUse" color-interpolation-filters="sRGB">
<feFlood flood-opacity="0" result="BackgroundImageFix"/>
<feColorMatrix in="SourceAlpha" type="matrix" values="0 0 0 0 0 0 0 0 0 0 0 0 0 0 0 0 0 0 127 0" result="hardAlpha"/>
<feOffset/>
<feGaussianBlur stdDeviation="5"/>
<feComposite in2="hardAlpha" operator="out"/>
<feColorMatrix type="matrix" values="0 0 0 0 0 0 0 0 0 0 0 0 0 0 0 0 0 0 0.15 0"/>
<feBlend mode="normal" in2="BackgroundImageFix" result="effect1_dropShadow_1_11224"/>
<feBlend mode="normal" in="SourceGraphic" in2="effect1_dropShadow_1_11224" result="shape"/>
</filter>
</defs>
</svg>
