<svg width="33" height="33" viewBox="0 0 33 33" fill="none" xmlns="http://www.w3.org/2000/svg">
<circle cx="16.5" cy="16.5" r="16.5" fill="#32B38C"/>
<path d="M23.141 15.2975C22.9984 13.1404 22.2098 11.1351 20.8893 9.59918C19.6164 8.11797 17.9782 7.22328 16.2165 7.03223C16.3993 6.81676 16.5123 6.51938 16.5123 6.19094C16.5123 5.53324 16.0591 5 15.5 5C14.9409 5 14.4877 5.53324 14.4877 6.19094C14.4877 6.51938 14.6007 6.81676 14.7835 7.03223C13.0218 7.22324 11.3836 8.11793 10.1107 9.59918C8.79021 11.1351 8.00164 13.1404 7.85903 15.2975H7V16.522H8.7347V17.3787L11.1078 18.7702L16.9762 19.84L16.9963 19.8433C16.9984 19.8433 17.2007 19.8771 17.3936 20.0033C17.6808 20.1918 17.7176 20.4347 17.7176 20.6257V20.9021H17.0994V25H22.9911V20.902H22.1962V17.6996L21.1797 16.5221H24V15.2976H23.141V15.2975ZM12.4508 9.33961L12.8778 10.4563C11.0526 11.4225 10.6255 13.5045 10.6214 13.5253L9.60728 13.2498C9.62876 13.1404 10.1599 10.5522 12.4508 9.33961ZM18.8719 23.4143H18.178V22.598H18.8719V23.4143ZM21.1555 20.902H18.7585V20.6257C18.7585 19.2294 17.6975 18.7102 17.1265 18.6282L11.4269 17.5894L9.77552 16.6212V16.522H19.6962L21.1554 18.2122V20.902H21.1555Z" fill="white"/>
</svg>
