<svg width="10" height="12" viewBox="0 0 10 12" fill="none" xmlns="http://www.w3.org/2000/svg">
<path d="M9.49469 6.17852C9.41082 4.88423 8.94693 3.68105 8.1702 2.75951C7.42143 1.87078 6.45777 1.33397 5.42145 1.21934C5.52898 1.09005 5.59547 0.911625 5.59547 0.714563C5.59547 0.319945 5.32889 0 5 0C4.67111 0 4.40453 0.319945 4.40453 0.714563C4.40453 0.911625 4.47102 1.09005 4.57856 1.21934C3.54223 1.33395 2.57857 1.87076 1.8298 2.75951C1.05307 3.68105 0.589199 4.88423 0.505313 6.17852H0V6.91322H1.02041V7.42725L2.41633 8.26212L5.86836 8.904L5.8802 8.90597C5.88143 8.90597 6.00039 8.92629 6.11387 9.00197C6.28285 9.1151 6.30447 9.26084 6.30447 9.37545V9.54124H5.9408V12H9.40652V9.54122H8.93897V7.61977L8.341 6.91324H10V6.17855H9.49469V6.17852ZM3.20633 2.60377L3.45756 3.2738C2.38389 3.85348 2.13266 5.1027 2.13021 5.11519L1.53369 4.94988C1.54633 4.88423 1.85877 3.33134 3.20633 2.60377ZM6.98348 11.0486H6.57531V10.5588H6.98348V11.0486ZM8.32674 9.54122H6.91674V9.37542C6.91674 8.53763 6.29266 8.22612 5.95674 8.1769L2.60408 7.55363L1.63266 6.97273V6.91322H7.46836L8.32672 7.92734V9.54122H8.32674Z" fill="#32B38C"/>
</svg>
